<svg width="400" height="400" viewBox="0 0 400 400" fill="none" xmlns="http://www.w3.org/2000/svg">
<rect width="400" height="400" fill="#FF4B4B"/>
<path d="M64.536 280.32V297H61.8V280.32H64.536ZM81.8321 297H79.0961L70.8641 284.544V297H68.1281V280.296H70.8641L79.0961 292.728V280.296H81.8321V297ZM96.201 280.32V282.552H91.761V297H89.025V282.552H84.561V280.32H96.201ZM107.636 297L103.796 290.328H101.708V297H98.9719V280.32H104.732C106.012 280.32 107.092 280.544 107.972 280.992C108.868 281.44 109.532 282.04 109.964 282.792C110.412 283.544 110.636 284.384 110.636 285.312C110.636 286.4 110.316 287.392 109.676 288.288C109.052 289.168 108.084 289.768 106.772 290.088L110.9 297H107.636ZM101.708 288.144H104.732C105.756 288.144 106.524 287.888 107.036 287.376C107.564 286.864 107.828 286.176 107.828 285.312C107.828 284.448 107.572 283.776 107.06 283.296C106.548 282.8 105.772 282.552 104.732 282.552H101.708V288.144ZM121.744 297.168C120.192 297.168 118.76 296.808 117.448 296.088C116.152 295.352 115.12 294.336 114.352 293.04C113.6 291.728 113.224 290.256 113.224 288.624C113.224 286.992 113.6 285.528 114.352 284.232C115.12 282.936 116.152 281.928 117.448 281.208C118.76 280.472 120.192 280.104 121.744 280.104C123.312 280.104 124.744 280.472 126.04 281.208C127.352 281.928 128.384 282.936 129.136 284.232C129.888 285.528 130.264 286.992 130.264 288.624C130.264 290.256 129.888 291.728 129.136 293.04C128.384 294.336 127.352 295.352 126.04 296.088C124.744 296.808 123.312 297.168 121.744 297.168ZM121.744 294.792C122.848 294.792 123.832 294.544 124.696 294.048C125.56 293.536 126.232 292.816 126.712 291.888C127.208 290.944 127.456 289.856 127.456 288.624C127.456 287.392 127.208 286.312 126.712 285.384C126.232 284.456 125.56 283.744 124.696 283.248C123.832 282.752 122.848 282.504 121.744 282.504C120.64 282.504 119.656 282.752 118.792 283.248C117.928 283.744 117.248 284.456 116.752 285.384C116.272 286.312 116.032 287.392 116.032 288.624C116.032 289.856 116.272 290.944 116.752 291.888C117.248 292.816 117.928 293.536 118.792 294.048C119.656 294.544 120.64 294.792 121.744 294.792ZM138.404 280.32C140.18 280.32 141.732 280.664 143.06 281.352C144.404 282.024 145.436 283 146.156 284.28C146.892 285.544 147.26 287.024 147.26 288.72C147.26 290.416 146.892 291.888 146.156 293.136C145.436 294.384 144.404 295.344 143.06 296.016C141.732 296.672 140.18 297 138.404 297H132.956V280.32H138.404ZM138.404 294.768C140.356 294.768 141.852 294.24 142.892 293.184C143.932 292.128 144.452 290.64 144.452 288.72C144.452 286.784 143.932 285.272 142.892 284.184C141.852 283.096 140.356 282.552 138.404 282.552H135.692V294.768H138.404ZM152.684 280.32V290.952C152.684 292.216 153.012 293.168 153.668 293.808C154.34 294.448 155.268 294.768 156.452 294.768C157.652 294.768 158.58 294.448 159.236 293.808C159.908 293.168 160.244 292.216 160.244 290.952V280.32H162.98V290.904C162.98 292.264 162.684 293.416 162.092 294.36C161.5 295.304 160.708 296.008 159.716 296.472C158.724 296.936 157.628 297.168 156.428 297.168C155.228 297.168 154.132 296.936 153.14 296.472C152.164 296.008 151.388 295.304 150.812 294.36C150.236 293.416 149.948 292.264 149.948 290.904V280.32H152.684ZM165.63 288.624C165.63 286.992 166.006 285.528 166.758 284.232C167.526 282.936 168.558 281.928 169.854 281.208C171.166 280.472 172.598 280.104 174.15 280.104C175.926 280.104 177.502 280.544 178.878 281.424C180.27 282.288 181.278 283.52 181.902 285.12H178.614C178.182 284.24 177.582 283.584 176.814 283.152C176.046 282.72 175.158 282.504 174.15 282.504C173.046 282.504 172.062 282.752 171.198 283.248C170.334 283.744 169.654 284.456 169.158 285.384C168.678 286.312 168.438 287.392 168.438 288.624C168.438 289.856 168.678 290.936 169.158 291.864C169.654 292.792 170.334 293.512 171.198 294.024C172.062 294.52 173.046 294.768 174.15 294.768C175.158 294.768 176.046 294.552 176.814 294.12C177.582 293.688 178.182 293.032 178.614 292.152H181.902C181.278 293.752 180.27 294.984 178.878 295.848C177.502 296.712 175.926 297.144 174.15 297.144C172.582 297.144 171.15 296.784 169.854 296.064C168.558 295.328 167.526 294.312 166.758 293.016C166.006 291.72 165.63 290.256 165.63 288.624ZM195.881 280.32V282.552H191.441V297H188.705V282.552H184.241V280.32H195.881ZM201.388 280.32V297H198.652V280.32H201.388ZM212.588 297.168C211.036 297.168 209.604 296.808 208.292 296.088C206.996 295.352 205.964 294.336 205.196 293.04C204.444 291.728 204.068 290.256 204.068 288.624C204.068 286.992 204.444 285.528 205.196 284.232C205.964 282.936 206.996 281.928 208.292 281.208C209.604 280.472 211.036 280.104 212.588 280.104C214.156 280.104 215.588 280.472 216.884 281.208C218.196 281.928 219.228 282.936 219.98 284.232C220.732 285.528 221.108 286.992 221.108 288.624C221.108 290.256 220.732 291.728 219.98 293.04C219.228 294.336 218.196 295.352 216.884 296.088C215.588 296.808 214.156 297.168 212.588 297.168ZM212.588 294.792C213.692 294.792 214.676 294.544 215.54 294.048C216.404 293.536 217.076 292.816 217.556 291.888C218.052 290.944 218.3 289.856 218.3 288.624C218.3 287.392 218.052 286.312 217.556 285.384C217.076 284.456 216.404 283.744 215.54 283.248C214.676 282.752 213.692 282.504 212.588 282.504C211.484 282.504 210.5 282.752 209.636 283.248C208.772 283.744 208.092 284.456 207.596 285.384C207.116 286.312 206.876 287.392 206.876 288.624C206.876 289.856 207.116 290.944 207.596 291.888C208.092 292.816 208.772 293.536 209.636 294.048C210.5 294.544 211.484 294.792 212.588 294.792ZM237.504 297H234.768L226.536 284.544V297H223.8V280.296H226.536L234.768 292.728V280.296H237.504V297ZM258.107 280.32V282.552H253.667V297H250.931V282.552H246.467V280.32H258.107ZM268.486 297.168C266.934 297.168 265.502 296.808 264.19 296.088C262.894 295.352 261.862 294.336 261.094 293.04C260.342 291.728 259.966 290.256 259.966 288.624C259.966 286.992 260.342 285.528 261.094 284.232C261.862 282.936 262.894 281.928 264.19 281.208C265.502 280.472 266.934 280.104 268.486 280.104C270.054 280.104 271.486 280.472 272.782 281.208C274.094 281.928 275.126 282.936 275.878 284.232C276.63 285.528 277.006 286.992 277.006 288.624C277.006 290.256 276.63 291.728 275.878 293.04C275.126 294.336 274.094 295.352 272.782 296.088C271.486 296.808 270.054 297.168 268.486 297.168ZM268.486 294.792C269.59 294.792 270.574 294.544 271.438 294.048C272.302 293.536 272.974 292.816 273.454 291.888C273.95 290.944 274.198 289.856 274.198 288.624C274.198 287.392 273.95 286.312 273.454 285.384C272.974 284.456 272.302 283.744 271.438 283.248C270.574 282.752 269.59 282.504 268.486 282.504C267.382 282.504 266.398 282.752 265.534 283.248C264.67 283.744 263.99 284.456 263.494 285.384C263.014 286.312 262.774 287.392 262.774 288.624C262.774 289.856 263.014 290.944 263.494 291.888C263.99 292.816 264.67 293.536 265.534 294.048C266.398 294.544 267.382 294.792 268.486 294.792ZM73.464 321.288C73.464 322.136 73.264 322.936 72.864 323.688C72.464 324.44 71.824 325.056 70.944 325.536C70.064 326 68.936 326.232 67.56 326.232H64.536V333H61.8V316.32H67.56C68.84 316.32 69.92 316.544 70.8 316.992C71.696 317.424 72.36 318.016 72.792 318.768C73.24 319.52 73.464 320.36 73.464 321.288ZM67.56 324C68.6 324 69.376 323.768 69.888 323.304C70.4 322.824 70.656 322.152 70.656 321.288C70.656 319.464 69.624 318.552 67.56 318.552H64.536V324H67.56ZM84.7374 333L80.8974 326.328H78.8094V333H76.0734V316.32H81.8334C83.1134 316.32 84.1934 316.544 85.0734 316.992C85.9694 317.44 86.6334 318.04 87.0654 318.792C87.5134 319.544 87.7374 320.384 87.7374 321.312C87.7374 322.4 87.4174 323.392 86.7774 324.288C86.1534 325.168 85.1854 325.768 83.8734 326.088L88.0014 333H84.7374ZM78.8094 324.144H81.8334C82.8574 324.144 83.6254 323.888 84.1374 323.376C84.6654 322.864 84.9294 322.176 84.9294 321.312C84.9294 320.448 84.6734 319.776 84.1614 319.296C83.6494 318.8 82.8734 318.552 81.8334 318.552H78.8094V324.144ZM98.8455 333.168C97.2935 333.168 95.8615 332.808 94.5495 332.088C93.2535 331.352 92.2215 330.336 91.4535 329.04C90.7015 327.728 90.3255 326.256 90.3255 324.624C90.3255 322.992 90.7015 321.528 91.4535 320.232C92.2215 318.936 93.2535 317.928 94.5495 317.208C95.8615 316.472 97.2935 316.104 98.8455 316.104C100.414 316.104 101.846 316.472 103.142 317.208C104.454 317.928 105.486 318.936 106.238 320.232C106.99 321.528 107.366 322.992 107.366 324.624C107.366 326.256 106.99 327.728 106.238 329.04C105.486 330.336 104.454 331.352 103.142 332.088C101.846 332.808 100.414 333.168 98.8455 333.168ZM98.8455 330.792C99.9495 330.792 100.934 330.544 101.798 330.048C102.662 329.536 103.334 328.816 103.814 327.888C104.31 326.944 104.558 325.856 104.558 324.624C104.558 323.392 104.31 322.312 103.814 321.384C103.334 320.456 102.662 319.744 101.798 319.248C100.934 318.752 99.9495 318.504 98.8455 318.504C97.7415 318.504 96.7575 318.752 95.8935 319.248C95.0295 319.744 94.3495 320.456 93.8535 321.384C93.3735 322.312 93.1335 323.392 93.1335 324.624C93.1335 325.856 93.3735 326.944 93.8535 327.888C94.3495 328.816 95.0295 329.536 95.8935 330.048C96.7575 330.544 97.7415 330.792 98.8455 330.792ZM119.154 316.32V328.344C119.154 329.832 118.698 331.008 117.786 331.872C116.89 332.736 115.706 333.168 114.234 333.168C112.762 333.168 111.57 332.736 110.658 331.872C109.762 331.008 109.314 329.832 109.314 328.344H112.074C112.09 329.08 112.274 329.664 112.626 330.096C112.994 330.528 113.53 330.744 114.234 330.744C114.938 330.744 115.474 330.528 115.842 330.096C116.21 329.648 116.394 329.064 116.394 328.344V316.32H119.154ZM126.341 318.528V323.424H132.101V325.656H126.341V330.768H132.821V333H123.605V316.296H132.821V318.528H126.341ZM135.279 324.624C135.279 322.992 135.655 321.528 136.407 320.232C137.175 318.936 138.207 317.928 139.503 317.208C140.815 316.472 142.247 316.104 143.799 316.104C145.575 316.104 147.151 316.544 148.527 317.424C149.919 318.288 150.927 319.52 151.551 321.12H148.263C147.831 320.24 147.231 319.584 146.463 319.152C145.695 318.72 144.807 318.504 143.799 318.504C142.695 318.504 141.711 318.752 140.847 319.248C139.983 319.744 139.303 320.456 138.807 321.384C138.327 322.312 138.087 323.392 138.087 324.624C138.087 325.856 138.327 326.936 138.807 327.864C139.303 328.792 139.983 329.512 140.847 330.024C141.711 330.52 142.695 330.768 143.799 330.768C144.807 330.768 145.695 330.552 146.463 330.12C147.231 329.688 147.831 329.032 148.263 328.152H151.551C150.927 329.752 149.919 330.984 148.527 331.848C147.151 332.712 145.575 333.144 143.799 333.144C142.231 333.144 140.799 332.784 139.503 332.064C138.207 331.328 137.175 330.312 136.407 329.016C135.655 327.72 135.279 326.256 135.279 324.624ZM165.529 316.32V318.552H161.089V333H158.353V318.552H153.889V316.32H165.529ZM192.102 316.32V333H189.366V321.576L184.278 333H182.382L177.27 321.576V333H174.534V316.32H177.486L183.342 329.4L189.174 316.32H192.102ZM205.754 329.592H198.77L197.57 333H194.714L200.69 316.296H203.858L209.834 333H206.954L205.754 329.592ZM204.986 327.36L202.274 319.608L199.538 327.36H204.986ZM226.137 333H223.401L215.169 320.544V333H212.433V316.296H215.169L223.401 328.728V316.296H226.137V333ZM239.786 329.592H232.802L231.602 333H228.746L234.722 316.296H237.89L243.866 333H240.986L239.786 329.592ZM239.018 327.36L236.306 319.608L233.57 327.36H239.018ZM258.536 321.12C258.104 320.288 257.504 319.664 256.736 319.248C255.968 318.816 255.08 318.6 254.072 318.6C252.968 318.6 251.984 318.848 251.12 319.344C250.256 319.84 249.576 320.544 249.08 321.456C248.6 322.368 248.36 323.424 248.36 324.624C248.36 325.824 248.6 326.888 249.08 327.816C249.576 328.728 250.256 329.432 251.12 329.928C251.984 330.424 252.968 330.672 254.072 330.672C255.56 330.672 256.768 330.256 257.696 329.424C258.624 328.592 259.192 327.464 259.4 326.04H253.136V323.856H262.328V325.992C262.152 327.288 261.688 328.48 260.936 329.568C260.2 330.656 259.232 331.528 258.032 332.184C256.848 332.824 255.528 333.144 254.072 333.144C252.504 333.144 251.072 332.784 249.776 332.064C248.48 331.328 247.448 330.312 246.68 329.016C245.928 327.72 245.552 326.256 245.552 324.624C245.552 322.992 245.928 321.528 246.68 320.232C247.448 318.936 248.48 317.928 249.776 317.208C251.088 316.472 252.52 316.104 254.072 316.104C255.848 316.104 257.424 316.544 258.8 317.424C260.192 318.288 261.2 319.52 261.824 321.12H258.536ZM267.763 318.528V323.424H273.523V325.656H267.763V330.768H274.243V333H265.027V316.296H274.243V318.528H267.763ZM295.181 316.32V333H292.445V321.576L287.357 333H285.461L280.349 321.576V333H277.613V316.32H280.565L286.421 329.4L292.253 316.32H295.181ZM301.513 318.528V323.424H307.273V325.656H301.513V330.768H307.993V333H298.777V316.296H307.993V318.528H301.513ZM325.067 333H322.331L314.099 320.544V333H311.363V316.296H314.099L322.331 328.728V316.296H325.067V333ZM339.435 316.32V318.552H334.995V333H332.259V318.552H327.795V316.32H339.435Z" fill="white"/>
<g clip-path="url(#clip0_16_53)">
<path d="M141.512 193.989C142.63 194.621 143.845 194.913 145.06 194.913C147.612 194.913 150.091 193.552 151.428 191.17L167.347 162.637L185.429 167.109C188.71 167.911 192.113 166.38 193.668 163.366L205.115 141.104L226.794 143.777C228.031 143.928 229.286 143.759 230.439 143.287C231.592 142.814 232.605 142.054 233.381 141.079L257.344 110.991L258.414 115.973C259.143 119.4 262.181 121.733 265.535 121.733C266.045 121.733 266.556 121.685 267.066 121.563C268.002 121.363 268.889 120.98 269.676 120.437C270.464 119.894 271.136 119.2 271.655 118.397C272.175 117.593 272.53 116.695 272.702 115.754C272.874 114.812 272.858 113.846 272.656 112.911L268.354 92.8604L268.281 92.6417C268.208 92.3014 268.087 91.9855 267.965 91.6695C267.917 91.548 267.868 91.4022 267.795 91.2807C267.747 91.2078 267.722 91.1106 267.698 91.0376C267.576 90.7946 267.431 90.5759 267.285 90.3571C267.236 90.3085 267.212 90.2356 267.188 90.187C266.945 89.8224 266.653 89.5065 266.361 89.2148C266.288 89.1662 266.24 89.1176 266.167 89.0447C265.924 88.8017 265.632 88.6073 265.365 88.4128C265.281 88.3476 265.192 88.2906 265.097 88.2427C264.773 88.0357 264.432 87.8568 264.077 87.708C264.028 87.6837 264.004 87.6594 263.955 87.6594C263.566 87.5136 263.177 87.3921 262.789 87.3191L262.351 87.2462C262.059 87.1976 261.768 87.1733 261.452 87.1733H260.844L240.915 88.3399C236.905 88.5829 233.818 92.0341 234.061 96.0442C234.304 100.054 237.756 103.068 241.766 102.898L245.363 102.679L224.51 128.83L201.834 126.035C198.796 125.671 195.856 127.226 194.446 129.948L183.315 151.603L165.427 147.18C163.875 146.791 162.238 146.926 160.77 147.564C159.302 148.201 158.086 149.305 157.31 150.704L138.668 184.122C136.724 187.597 137.988 192.045 141.512 193.989ZM128.582 219.289V81.8751C128.582 77.8406 125.326 74.5839 121.291 74.5839C117.257 74.5839 114 77.8406 114 81.8751V226.581C114 230.615 117.257 233.872 121.291 233.872H188.807C188.987 231.225 189.708 228.643 190.924 226.286C192.141 223.928 193.827 221.845 195.88 220.164C195.564 219.897 195.272 219.581 194.956 219.289H128.582ZM249.64 167.619L246.262 164.922C241.508 161.085 235.649 158.876 229.546 158.618C223.443 158.36 217.419 160.067 212.358 163.488L204.119 169.029C203.324 169.561 202.641 170.246 202.111 171.042C201.58 171.839 201.211 172.732 201.026 173.671C200.841 174.61 200.843 175.576 201.032 176.515C201.22 177.453 201.592 178.345 202.126 179.139C203.205 180.741 204.875 181.85 206.77 182.223C208.665 182.596 210.63 182.204 212.236 181.132L220.475 175.591C222.96 173.911 225.919 173.073 228.916 173.2C231.912 173.327 234.789 174.412 237.124 176.296L240.502 178.994C245.679 183.149 252.071 185.264 258.462 185.264C264.15 185.264 269.837 183.587 274.697 180.233L282.985 174.522C286.29 172.237 287.141 167.692 284.857 164.387C283.759 162.797 282.076 161.706 280.176 161.356C278.276 161.005 276.315 161.422 274.722 162.515L266.434 168.227C261.33 171.727 254.428 171.484 249.64 167.619ZM274.722 192.579L266.434 198.291C263.937 199.996 260.959 200.858 257.937 200.748C254.915 200.639 252.007 199.565 249.64 197.683L246.262 194.985C241.508 191.149 235.649 188.94 229.546 188.682C223.443 188.424 217.419 190.131 212.358 193.552L204.119 199.093C203.324 199.625 202.641 200.309 202.111 201.106C201.58 201.903 201.211 202.796 201.026 203.735C200.841 204.674 200.843 205.64 201.032 206.579C201.22 207.517 201.592 208.409 202.126 209.203C202.659 209.999 203.343 210.681 204.139 211.212C204.936 211.742 205.829 212.111 206.768 212.296C207.707 212.481 208.673 212.479 209.612 212.29C210.55 212.102 211.442 211.73 212.236 211.196L220.475 205.655C222.96 203.975 225.919 203.137 228.916 203.264C231.912 203.391 234.789 204.476 237.124 206.36L240.502 209.057C245.679 213.213 252.071 215.328 258.462 215.328C264.15 215.328 269.837 213.675 274.697 210.297L282.985 204.586C286.29 202.301 287.141 197.756 284.857 194.451C283.756 192.865 282.073 191.779 280.174 191.428C278.276 191.078 276.316 191.492 274.722 192.579ZM274.722 222.668L266.434 228.379C263.937 230.085 260.959 230.946 257.937 230.837C254.915 230.727 252.007 229.653 249.64 227.771L246.262 225.074C241.508 221.238 235.649 219.028 229.546 218.77C223.443 218.512 217.419 220.219 212.358 223.64L204.119 229.181C203.324 229.714 202.641 230.398 202.111 231.194C201.58 231.991 201.211 232.884 201.026 233.823C200.841 234.762 200.843 235.728 201.032 236.667C201.22 237.605 201.592 238.497 202.126 239.292C203.205 240.893 204.875 242.002 206.77 242.375C208.665 242.749 210.63 242.356 212.236 241.284L220.475 235.743C222.96 234.063 225.919 233.225 228.916 233.352C231.912 233.479 234.789 234.564 237.124 236.448L240.502 239.146C245.679 243.302 252.071 245.416 258.462 245.416C264.15 245.416 269.837 243.763 274.697 240.385L282.985 234.674C286.29 232.389 287.141 227.844 284.857 224.539C284.315 223.749 283.623 223.074 282.82 222.553C282.017 222.031 281.119 221.673 280.178 221.499C279.236 221.325 278.27 221.339 277.333 221.539C276.397 221.74 275.51 222.123 274.722 222.668Z" fill="white"/>
</g>
<rect x="226.533" y="353" width="154.933" height="28" rx="14" fill="white"/>
<path d="M257.624 362.66C258.512 362.66 259.288 362.832 259.952 363.176C260.624 363.512 261.14 364 261.5 364.64C261.868 365.272 262.052 366.012 262.052 366.86C262.052 367.708 261.868 368.444 261.5 369.068C261.14 369.692 260.624 370.172 259.952 370.508C259.288 370.836 258.512 371 257.624 371H254.9V362.66H257.624ZM257.624 369.884C258.6 369.884 259.348 369.62 259.868 369.092C260.388 368.564 260.648 367.82 260.648 366.86C260.648 365.892 260.388 365.136 259.868 364.592C259.348 364.048 258.6 363.776 257.624 363.776H256.268V369.884H257.624ZM269.396 364.388V371H268.028V370.22C267.812 370.492 267.528 370.708 267.176 370.868C266.832 371.02 266.464 371.096 266.072 371.096C265.552 371.096 265.084 370.988 264.668 370.772C264.26 370.556 263.936 370.236 263.696 369.812C263.464 369.388 263.348 368.876 263.348 368.276V364.388H264.704V368.072C264.704 368.664 264.852 369.12 265.148 369.44C265.444 369.752 265.848 369.908 266.36 369.908C266.872 369.908 267.276 369.752 267.572 369.44C267.876 369.12 268.028 368.664 268.028 368.072V364.388H269.396ZM272.569 365.348C272.769 365.012 273.033 364.752 273.361 364.568C273.697 364.376 274.093 364.28 274.549 364.28V365.696H274.201C273.665 365.696 273.257 365.832 272.977 366.104C272.705 366.376 272.569 366.848 272.569 367.52V371H271.201V364.388H272.569V365.348ZM275.35 367.664C275.35 367 275.486 366.412 275.758 365.9C276.038 365.388 276.414 364.992 276.886 364.712C277.366 364.424 277.894 364.28 278.47 364.28C278.99 364.28 279.442 364.384 279.826 364.592C280.218 364.792 280.53 365.044 280.762 365.348V364.388H282.142V371H280.762V370.016C280.53 370.328 280.214 370.588 279.814 370.796C279.414 371.004 278.958 371.108 278.446 371.108C277.878 371.108 277.358 370.964 276.886 370.676C276.414 370.38 276.038 369.972 275.758 369.452C275.486 368.924 275.35 368.328 275.35 367.664ZM280.762 367.688C280.762 367.232 280.666 366.836 280.474 366.5C280.29 366.164 280.046 365.908 279.742 365.732C279.438 365.556 279.11 365.468 278.758 365.468C278.406 365.468 278.078 365.556 277.774 365.732C277.47 365.9 277.222 366.152 277.03 366.488C276.846 366.816 276.754 367.208 276.754 367.664C276.754 368.12 276.846 368.52 277.03 368.864C277.222 369.208 277.47 369.472 277.774 369.656C278.086 369.832 278.414 369.92 278.758 369.92C279.11 369.92 279.438 369.832 279.742 369.656C280.046 369.48 280.29 369.224 280.474 368.888C280.666 368.544 280.762 368.144 280.762 367.688ZM285.535 365.504V369.164C285.535 369.412 285.591 369.592 285.703 369.704C285.823 369.808 286.023 369.86 286.303 369.86H287.143V371H286.063C285.447 371 284.975 370.856 284.647 370.568C284.319 370.28 284.155 369.812 284.155 369.164V365.504H283.375V364.388H284.155V362.744H285.535V364.388H287.143V365.504H285.535ZM289.1 363.512C288.852 363.512 288.644 363.428 288.476 363.26C288.308 363.092 288.224 362.884 288.224 362.636C288.224 362.388 288.308 362.18 288.476 362.012C288.644 361.844 288.852 361.76 289.1 361.76C289.34 361.76 289.544 361.844 289.712 362.012C289.88 362.18 289.964 362.388 289.964 362.636C289.964 362.884 289.88 363.092 289.712 363.26C289.544 363.428 289.34 363.512 289.1 363.512ZM289.772 364.388V371H288.404V364.388H289.772ZM294.436 371.108C293.812 371.108 293.248 370.968 292.744 370.688C292.24 370.4 291.844 370 291.556 369.488C291.268 368.968 291.124 368.368 291.124 367.688C291.124 367.016 291.272 366.42 291.568 365.9C291.864 365.38 292.268 364.98 292.78 364.7C293.292 364.42 293.864 364.28 294.496 364.28C295.128 364.28 295.7 364.42 296.212 364.7C296.724 364.98 297.128 365.38 297.424 365.9C297.72 366.42 297.868 367.016 297.868 367.688C297.868 368.36 297.716 368.956 297.412 369.476C297.108 369.996 296.692 370.4 296.164 370.688C295.644 370.968 295.068 371.108 294.436 371.108ZM294.436 369.92C294.788 369.92 295.116 369.836 295.42 369.668C295.732 369.5 295.984 369.248 296.176 368.912C296.368 368.576 296.464 368.168 296.464 367.688C296.464 367.208 296.372 366.804 296.188 366.476C296.004 366.14 295.76 365.888 295.456 365.72C295.152 365.552 294.824 365.468 294.472 365.468C294.12 365.468 293.792 365.552 293.488 365.72C293.192 365.888 292.956 366.14 292.78 366.476C292.604 366.804 292.516 367.208 292.516 367.688C292.516 368.4 292.696 368.952 293.056 369.344C293.424 369.728 293.884 369.92 294.436 369.92ZM302.556 364.28C303.076 364.28 303.54 364.388 303.948 364.604C304.364 364.82 304.688 365.14 304.92 365.564C305.152 365.988 305.268 366.5 305.268 367.1V371H303.912V367.304C303.912 366.712 303.764 366.26 303.468 365.948C303.172 365.628 302.768 365.468 302.256 365.468C301.744 365.468 301.336 365.628 301.032 365.948C300.736 366.26 300.588 366.712 300.588 367.304V371H299.22V364.388H300.588V365.144C300.812 364.872 301.096 364.66 301.44 364.508C301.792 364.356 302.164 364.28 302.556 364.28ZM307.565 371.084C307.317 371.084 307.109 371 306.941 370.832C306.773 370.664 306.689 370.456 306.689 370.208C306.689 369.96 306.773 369.752 306.941 369.584C307.109 369.416 307.317 369.332 307.565 369.332C307.805 369.332 308.009 369.416 308.177 369.584C308.345 369.752 308.429 369.96 308.429 370.208C308.429 370.456 308.345 370.664 308.177 370.832C308.009 371 307.805 371.084 307.565 371.084ZM307.565 366.044C307.317 366.044 307.109 365.96 306.941 365.792C306.773 365.624 306.689 365.416 306.689 365.168C306.689 364.92 306.773 364.712 306.941 364.544C307.109 364.376 307.317 364.292 307.565 364.292C307.805 364.292 308.009 364.376 308.177 364.544C308.345 364.712 308.429 364.92 308.429 365.168C308.429 365.416 308.345 365.624 308.177 365.792C308.009 365.96 307.805 366.044 307.565 366.044ZM312.712 363.5V362.252H315.208V371H313.828V363.5H312.712ZM331.244 362.66L328.772 371H327.224L325.472 364.688L323.612 371L322.076 371.012L319.712 362.66H321.164L322.892 369.452L324.764 362.66H326.3L328.04 369.416L329.78 362.66H331.244ZM338.433 367.532C338.433 367.78 338.417 368.004 338.385 368.204H333.333C333.373 368.732 333.569 369.156 333.921 369.476C334.273 369.796 334.705 369.956 335.217 369.956C335.953 369.956 336.473 369.648 336.777 369.032H338.253C338.053 369.64 337.689 370.14 337.161 370.532C336.641 370.916 335.993 371.108 335.217 371.108C334.585 371.108 334.017 370.968 333.513 370.688C333.017 370.4 332.625 370 332.337 369.488C332.057 368.968 331.917 368.368 331.917 367.688C331.917 367.008 332.053 366.412 332.325 365.9C332.605 365.38 332.993 364.98 333.489 364.7C333.993 364.42 334.569 364.28 335.217 364.28C335.841 364.28 336.397 364.416 336.885 364.688C337.373 364.96 337.753 365.344 338.025 365.84C338.297 366.328 338.433 366.892 338.433 367.532ZM337.005 367.1C336.997 366.596 336.817 366.192 336.465 365.888C336.113 365.584 335.677 365.432 335.157 365.432C334.685 365.432 334.281 365.584 333.945 365.888C333.609 366.184 333.409 366.588 333.345 367.1H337.005ZM345.839 367.532C345.839 367.78 345.823 368.004 345.791 368.204H340.739C340.779 368.732 340.975 369.156 341.327 369.476C341.679 369.796 342.111 369.956 342.623 369.956C343.359 369.956 343.879 369.648 344.183 369.032H345.659C345.459 369.64 345.095 370.14 344.567 370.532C344.047 370.916 343.399 371.108 342.623 371.108C341.991 371.108 341.423 370.968 340.919 370.688C340.423 370.4 340.031 370 339.743 369.488C339.463 368.968 339.323 368.368 339.323 367.688C339.323 367.008 339.459 366.412 339.731 365.9C340.011 365.38 340.399 364.98 340.895 364.7C341.399 364.42 341.975 364.28 342.623 364.28C343.247 364.28 343.803 364.416 344.291 364.688C344.779 364.96 345.159 365.344 345.431 365.84C345.703 366.328 345.839 366.892 345.839 367.532ZM344.411 367.1C344.403 366.596 344.223 366.192 343.871 365.888C343.519 365.584 343.083 365.432 342.563 365.432C342.091 365.432 341.687 365.584 341.351 365.888C341.015 366.184 340.815 366.588 340.751 367.1H344.411ZM349.801 367.7L352.849 371H351.001L348.553 368.156V371H347.185V362.12H348.553V367.28L350.953 364.388H352.849L349.801 367.7Z" fill="#FF4B4B"/>
<rect x="18" y="353" width="154.933" height="28" rx="14" fill="white"/>
<path d="M54.624 362.66C55.512 362.66 56.288 362.832 56.952 363.176C57.624 363.512 58.14 364 58.5 364.64C58.868 365.272 59.052 366.012 59.052 366.86C59.052 367.708 58.868 368.444 58.5 369.068C58.14 369.692 57.624 370.172 56.952 370.508C56.288 370.836 55.512 371 54.624 371H51.9V362.66H54.624ZM54.624 369.884C55.6 369.884 56.348 369.62 56.868 369.092C57.388 368.564 57.648 367.82 57.648 366.86C57.648 365.892 57.388 365.136 56.868 364.592C56.348 364.048 55.6 363.776 54.624 363.776H53.268V369.884H54.624ZM61.1038 363.512C60.8558 363.512 60.6478 363.428 60.4798 363.26C60.3118 363.092 60.2278 362.884 60.2278 362.636C60.2278 362.388 60.3118 362.18 60.4798 362.012C60.6478 361.844 60.8558 361.76 61.1038 361.76C61.3438 361.76 61.5478 361.844 61.7158 362.012C61.8838 362.18 61.9678 362.388 61.9678 362.636C61.9678 362.884 61.8838 363.092 61.7158 363.26C61.5478 363.428 61.3438 363.512 61.1038 363.512ZM61.7758 364.388V371H60.4078V364.388H61.7758ZM66.3439 365.504H65.1199V371H63.7399V365.504H62.9599V364.388H63.7399V363.92C63.7399 363.16 63.9399 362.608 64.3399 362.264C64.7479 361.912 65.3839 361.736 66.2479 361.736V362.876C65.8319 362.876 65.5399 362.956 65.3719 363.116C65.2039 363.268 65.1199 363.536 65.1199 363.92V364.388H66.3439V365.504ZM70.3283 365.504H69.1043V371H67.7243V365.504H66.9443V364.388H67.7243V363.92C67.7243 363.16 67.9243 362.608 68.3243 362.264C68.7323 361.912 69.3683 361.736 70.2323 361.736V362.876C69.8163 362.876 69.5243 362.956 69.3563 363.116C69.1883 363.268 69.1043 363.536 69.1043 363.92V364.388H70.3283V365.504ZM72.2366 363.512C71.9886 363.512 71.7806 363.428 71.6126 363.26C71.4446 363.092 71.3606 362.884 71.3606 362.636C71.3606 362.388 71.4446 362.18 71.6126 362.012C71.7806 361.844 71.9886 361.76 72.2366 361.76C72.4766 361.76 72.6806 361.844 72.8486 362.012C73.0166 362.18 73.1006 362.388 73.1006 362.636C73.1006 362.884 73.0166 363.092 72.8486 363.26C72.6806 363.428 72.4766 363.512 72.2366 363.512ZM72.9086 364.388V371H71.5406V364.388H72.9086ZM74.2487 367.688C74.2487 367.008 74.3847 366.412 74.6567 365.9C74.9367 365.38 75.3207 364.98 75.8087 364.7C76.2967 364.42 76.8567 364.28 77.4887 364.28C78.2887 364.28 78.9487 364.472 79.4687 364.856C79.9967 365.232 80.3527 365.772 80.5367 366.476H79.0607C78.9407 366.148 78.7487 365.892 78.4847 365.708C78.2207 365.524 77.8887 365.432 77.4887 365.432C76.9287 365.432 76.4807 365.632 76.1447 366.032C75.8167 366.424 75.6527 366.976 75.6527 367.688C75.6527 368.4 75.8167 368.956 76.1447 369.356C76.4807 369.756 76.9287 369.956 77.4887 369.956C78.2807 369.956 78.8047 369.608 79.0607 368.912H80.5367C80.3447 369.584 79.9847 370.12 79.4567 370.52C78.9287 370.912 78.2727 371.108 77.4887 371.108C76.8567 371.108 76.2967 370.968 75.8087 370.688C75.3207 370.4 74.9367 370 74.6567 369.488C74.3847 368.968 74.2487 368.368 74.2487 367.688ZM87.888 364.388V371H86.52V370.22C86.304 370.492 86.02 370.708 85.668 370.868C85.324 371.02 84.956 371.096 84.564 371.096C84.044 371.096 83.576 370.988 83.16 370.772C82.752 370.556 82.428 370.236 82.188 369.812C81.956 369.388 81.84 368.876 81.84 368.276V364.388H83.196V368.072C83.196 368.664 83.344 369.12 83.64 369.44C83.936 369.752 84.34 369.908 84.852 369.908C85.364 369.908 85.768 369.752 86.064 369.44C86.368 369.12 86.52 368.664 86.52 368.072V364.388H87.888ZM91.061 362.12V371H89.693V362.12H91.061ZM94.453 365.504V369.164C94.453 369.412 94.509 369.592 94.621 369.704C94.741 369.808 94.941 369.86 95.221 369.86H96.061V371H94.981C94.365 371 93.893 370.856 93.565 370.568C93.237 370.28 93.073 369.812 93.073 369.164V365.504H92.293V364.388H93.073V362.744H94.453V364.388H96.061V365.504H94.453ZM103.274 364.388L99.2179 374.108H97.8019L99.1459 370.892L96.5419 364.388H98.0659L99.9259 369.428L101.858 364.388H103.274ZM104.858 371.084C104.61 371.084 104.402 371 104.234 370.832C104.066 370.664 103.982 370.456 103.982 370.208C103.982 369.96 104.066 369.752 104.234 369.584C104.402 369.416 104.61 369.332 104.858 369.332C105.098 369.332 105.302 369.416 105.47 369.584C105.638 369.752 105.722 369.96 105.722 370.208C105.722 370.456 105.638 370.664 105.47 370.832C105.302 371 105.098 371.084 104.858 371.084ZM104.858 366.044C104.61 366.044 104.402 365.96 104.234 365.792C104.066 365.624 103.982 365.416 103.982 365.168C103.982 364.92 104.066 364.712 104.234 364.544C104.402 364.376 104.61 364.292 104.858 364.292C105.098 364.292 105.302 364.376 105.47 364.544C105.638 364.712 105.722 364.92 105.722 365.168C105.722 365.416 105.638 365.624 105.47 365.792C105.302 365.96 105.098 366.044 104.858 366.044ZM111.733 363.764V366.212H114.613V367.328H111.733V369.884H114.973V371H110.365V362.648H114.973V363.764H111.733ZM116.202 367.664C116.202 367 116.338 366.412 116.61 365.9C116.89 365.388 117.266 364.992 117.738 364.712C118.218 364.424 118.746 364.28 119.322 364.28C119.842 364.28 120.294 364.384 120.678 364.592C121.07 364.792 121.382 365.044 121.614 365.348V364.388H122.994V371H121.614V370.016C121.382 370.328 121.066 370.588 120.666 370.796C120.266 371.004 119.81 371.108 119.298 371.108C118.73 371.108 118.21 370.964 117.738 370.676C117.266 370.38 116.89 369.972 116.61 369.452C116.338 368.924 116.202 368.328 116.202 367.664ZM121.614 367.688C121.614 367.232 121.518 366.836 121.326 366.5C121.142 366.164 120.898 365.908 120.594 365.732C120.29 365.556 119.962 365.468 119.61 365.468C119.258 365.468 118.93 365.556 118.626 365.732C118.322 365.9 118.074 366.152 117.882 366.488C117.698 366.816 117.606 367.208 117.606 367.664C117.606 368.12 117.698 368.52 117.882 368.864C118.074 369.208 118.322 369.472 118.626 369.656C118.938 369.832 119.266 369.92 119.61 369.92C119.962 369.92 120.29 369.832 120.594 369.656C120.898 369.48 121.142 369.224 121.326 368.888C121.518 368.544 121.614 368.144 121.614 367.688ZM127.191 371.108C126.671 371.108 126.203 371.016 125.787 370.832C125.379 370.64 125.055 370.384 124.815 370.064C124.575 369.736 124.447 369.372 124.431 368.972H125.847C125.871 369.252 126.003 369.488 126.243 369.68C126.491 369.864 126.799 369.956 127.167 369.956C127.551 369.956 127.847 369.884 128.055 369.74C128.271 369.588 128.379 369.396 128.379 369.164C128.379 368.916 128.259 368.732 128.019 368.612C127.787 368.492 127.415 368.36 126.903 368.216C126.407 368.08 126.003 367.948 125.691 367.82C125.379 367.692 125.107 367.496 124.875 367.232C124.651 366.968 124.539 366.62 124.539 366.188C124.539 365.836 124.643 365.516 124.851 365.228C125.059 364.932 125.355 364.7 125.739 364.532C126.131 364.364 126.579 364.28 127.083 364.28C127.835 364.28 128.439 364.472 128.895 364.856C129.359 365.232 129.607 365.748 129.639 366.404H128.271C128.247 366.108 128.127 365.872 127.911 365.696C127.695 365.52 127.403 365.432 127.035 365.432C126.675 365.432 126.399 365.5 126.207 365.636C126.015 365.772 125.919 365.952 125.919 366.176C125.919 366.352 125.983 366.5 126.111 366.62C126.239 366.74 126.395 366.836 126.579 366.908C126.763 366.972 127.035 367.056 127.395 367.16C127.875 367.288 128.267 367.42 128.571 367.556C128.883 367.684 129.151 367.876 129.375 368.132C129.599 368.388 129.715 368.728 129.723 369.152C129.723 369.528 129.619 369.864 129.411 370.16C129.203 370.456 128.907 370.688 128.523 370.856C128.147 371.024 127.703 371.108 127.191 371.108ZM137.153 364.388L133.097 374.108H131.681L133.025 370.892L130.421 364.388H131.945L133.805 369.428L135.737 364.388H137.153Z" fill="#FF4B4B"/>
<defs>
<clipPath id="clip0_16_53">
<rect width="172" height="172" fill="white" transform="translate(114 64)"/>
</clipPath>
</defs>
</svg>
