<svg width="400" height="400" viewBox="0 0 400 400" fill="none" xmlns="http://www.w3.org/2000/svg">
<rect width="400" height="400" fill="#854BFF"/>
<path d="M69.536 280.32V297H66.8V280.32H69.536ZM86.8321 297H84.0961L75.8641 284.544V297H73.1281V280.296H75.8641L84.0961 292.728V280.296H86.8321V297ZM101.201 280.32V282.552H96.761V297H94.025V282.552H89.561V280.32H101.201ZM112.636 297L108.796 290.328H106.708V297H103.972V280.32H109.732C111.012 280.32 112.092 280.544 112.972 280.992C113.868 281.44 114.532 282.04 114.964 282.792C115.412 283.544 115.636 284.384 115.636 285.312C115.636 286.4 115.316 287.392 114.676 288.288C114.052 289.168 113.084 289.768 111.772 290.088L115.9 297H112.636ZM106.708 288.144H109.732C110.756 288.144 111.524 287.888 112.036 287.376C112.564 286.864 112.828 286.176 112.828 285.312C112.828 284.448 112.572 283.776 112.06 283.296C111.548 282.8 110.772 282.552 109.732 282.552H106.708V288.144ZM126.744 297.168C125.192 297.168 123.76 296.808 122.448 296.088C121.152 295.352 120.12 294.336 119.352 293.04C118.6 291.728 118.224 290.256 118.224 288.624C118.224 286.992 118.6 285.528 119.352 284.232C120.12 282.936 121.152 281.928 122.448 281.208C123.76 280.472 125.192 280.104 126.744 280.104C128.312 280.104 129.744 280.472 131.04 281.208C132.352 281.928 133.384 282.936 134.136 284.232C134.888 285.528 135.264 286.992 135.264 288.624C135.264 290.256 134.888 291.728 134.136 293.04C133.384 294.336 132.352 295.352 131.04 296.088C129.744 296.808 128.312 297.168 126.744 297.168ZM126.744 294.792C127.848 294.792 128.832 294.544 129.696 294.048C130.56 293.536 131.232 292.816 131.712 291.888C132.208 290.944 132.456 289.856 132.456 288.624C132.456 287.392 132.208 286.312 131.712 285.384C131.232 284.456 130.56 283.744 129.696 283.248C128.832 282.752 127.848 282.504 126.744 282.504C125.64 282.504 124.656 282.752 123.792 283.248C122.928 283.744 122.248 284.456 121.752 285.384C121.272 286.312 121.032 287.392 121.032 288.624C121.032 289.856 121.272 290.944 121.752 291.888C122.248 292.816 122.928 293.536 123.792 294.048C124.656 294.544 125.64 294.792 126.744 294.792ZM143.404 280.32C145.18 280.32 146.732 280.664 148.06 281.352C149.404 282.024 150.436 283 151.156 284.28C151.892 285.544 152.26 287.024 152.26 288.72C152.26 290.416 151.892 291.888 151.156 293.136C150.436 294.384 149.404 295.344 148.06 296.016C146.732 296.672 145.18 297 143.404 297H137.956V280.32H143.404ZM143.404 294.768C145.356 294.768 146.852 294.24 147.892 293.184C148.932 292.128 149.452 290.64 149.452 288.72C149.452 286.784 148.932 285.272 147.892 284.184C146.852 283.096 145.356 282.552 143.404 282.552H140.692V294.768H143.404ZM157.684 280.32V290.952C157.684 292.216 158.012 293.168 158.668 293.808C159.34 294.448 160.268 294.768 161.452 294.768C162.652 294.768 163.58 294.448 164.236 293.808C164.908 293.168 165.244 292.216 165.244 290.952V280.32H167.98V290.904C167.98 292.264 167.684 293.416 167.092 294.36C166.5 295.304 165.708 296.008 164.716 296.472C163.724 296.936 162.628 297.168 161.428 297.168C160.228 297.168 159.132 296.936 158.14 296.472C157.164 296.008 156.388 295.304 155.812 294.36C155.236 293.416 154.948 292.264 154.948 290.904V280.32H157.684ZM170.63 288.624C170.63 286.992 171.006 285.528 171.758 284.232C172.526 282.936 173.558 281.928 174.854 281.208C176.166 280.472 177.598 280.104 179.15 280.104C180.926 280.104 182.502 280.544 183.878 281.424C185.27 282.288 186.278 283.52 186.902 285.12H183.614C183.182 284.24 182.582 283.584 181.814 283.152C181.046 282.72 180.158 282.504 179.15 282.504C178.046 282.504 177.062 282.752 176.198 283.248C175.334 283.744 174.654 284.456 174.158 285.384C173.678 286.312 173.438 287.392 173.438 288.624C173.438 289.856 173.678 290.936 174.158 291.864C174.654 292.792 175.334 293.512 176.198 294.024C177.062 294.52 178.046 294.768 179.15 294.768C180.158 294.768 181.046 294.552 181.814 294.12C182.582 293.688 183.182 293.032 183.614 292.152H186.902C186.278 293.752 185.27 294.984 183.878 295.848C182.502 296.712 180.926 297.144 179.15 297.144C177.582 297.144 176.15 296.784 174.854 296.064C173.558 295.328 172.526 294.312 171.758 293.016C171.006 291.72 170.63 290.256 170.63 288.624ZM200.881 280.32V282.552H196.441V297H193.705V282.552H189.241V280.32H200.881ZM206.388 280.32V297H203.652V280.32H206.388ZM217.588 297.168C216.036 297.168 214.604 296.808 213.292 296.088C211.996 295.352 210.964 294.336 210.196 293.04C209.444 291.728 209.068 290.256 209.068 288.624C209.068 286.992 209.444 285.528 210.196 284.232C210.964 282.936 211.996 281.928 213.292 281.208C214.604 280.472 216.036 280.104 217.588 280.104C219.156 280.104 220.588 280.472 221.884 281.208C223.196 281.928 224.228 282.936 224.98 284.232C225.732 285.528 226.108 286.992 226.108 288.624C226.108 290.256 225.732 291.728 224.98 293.04C224.228 294.336 223.196 295.352 221.884 296.088C220.588 296.808 219.156 297.168 217.588 297.168ZM217.588 294.792C218.692 294.792 219.676 294.544 220.54 294.048C221.404 293.536 222.076 292.816 222.556 291.888C223.052 290.944 223.3 289.856 223.3 288.624C223.3 287.392 223.052 286.312 222.556 285.384C222.076 284.456 221.404 283.744 220.54 283.248C219.676 282.752 218.692 282.504 217.588 282.504C216.484 282.504 215.5 282.752 214.636 283.248C213.772 283.744 213.092 284.456 212.596 285.384C212.116 286.312 211.876 287.392 211.876 288.624C211.876 289.856 212.116 290.944 212.596 291.888C213.092 292.816 213.772 293.536 214.636 294.048C215.5 294.544 216.484 294.792 217.588 294.792ZM242.504 297H239.768L231.536 284.544V297H228.8V280.296H231.536L239.768 292.728V280.296H242.504V297ZM263.107 280.32V282.552H258.667V297H255.931V282.552H251.467V280.32H263.107ZM273.486 297.168C271.934 297.168 270.502 296.808 269.19 296.088C267.894 295.352 266.862 294.336 266.094 293.04C265.342 291.728 264.966 290.256 264.966 288.624C264.966 286.992 265.342 285.528 266.094 284.232C266.862 282.936 267.894 281.928 269.19 281.208C270.502 280.472 271.934 280.104 273.486 280.104C275.054 280.104 276.486 280.472 277.782 281.208C279.094 281.928 280.126 282.936 280.878 284.232C281.63 285.528 282.006 286.992 282.006 288.624C282.006 290.256 281.63 291.728 280.878 293.04C280.126 294.336 279.094 295.352 277.782 296.088C276.486 296.808 275.054 297.168 273.486 297.168ZM273.486 294.792C274.59 294.792 275.574 294.544 276.438 294.048C277.302 293.536 277.974 292.816 278.454 291.888C278.95 290.944 279.198 289.856 279.198 288.624C279.198 287.392 278.95 286.312 278.454 285.384C277.974 284.456 277.302 283.744 276.438 283.248C275.574 282.752 274.59 282.504 273.486 282.504C272.382 282.504 271.398 282.752 270.534 283.248C269.67 283.744 268.99 284.456 268.494 285.384C268.014 286.312 267.774 287.392 267.774 288.624C267.774 289.856 268.014 290.944 268.494 291.888C268.99 292.816 269.67 293.536 270.534 294.048C271.398 294.544 272.382 294.792 273.486 294.792ZM88.52 316.32L83.576 333H80.48L76.976 320.376L73.256 333L70.184 333.024L65.456 316.32H68.36L71.816 329.904L75.56 316.32H78.632L82.112 329.832L85.592 316.32H88.52ZM100.833 329.592H93.8486L92.6486 333H89.7926L95.7686 316.296H98.9366L104.913 333H102.033L100.833 329.592ZM100.065 327.36L97.3526 319.608L94.6166 327.36H100.065ZM118.287 316.32V318.552H113.847V333H111.111V318.552H106.647V316.32H118.287ZM123.794 318.528V323.424H129.554V325.656H123.794V330.768H130.274V333H121.058V316.296H130.274V318.528H123.794ZM142.308 333L138.468 326.328H136.38V333H133.644V316.32H139.404C140.684 316.32 141.764 316.544 142.644 316.992C143.54 317.44 144.204 318.04 144.636 318.792C145.084 319.544 145.308 320.384 145.308 321.312C145.308 322.4 144.988 323.392 144.348 324.288C143.724 325.168 142.756 325.768 141.444 326.088L145.572 333H142.308ZM136.38 324.144H139.404C140.428 324.144 141.196 323.888 141.708 323.376C142.236 322.864 142.5 322.176 142.5 321.312C142.5 320.448 142.244 319.776 141.732 319.296C141.22 318.8 140.444 318.552 139.404 318.552H136.38V324.144ZM158.624 316.32V318.552H151.544V323.472H157.064V325.704H151.544V333H148.808V316.32H158.624ZM171.215 329.592H164.231L163.031 333H160.175L166.151 316.296H169.319L175.295 333H172.415L171.215 329.592ZM170.447 327.36L167.735 319.608L164.999 327.36H170.447ZM180.63 330.792H186.27V333H177.894V316.32H180.63V330.792ZM191.294 330.792H196.934V333H188.558V316.32H191.294V330.792ZM215.512 329.592H208.528L207.328 333H204.472L210.448 316.296H213.616L219.592 333H216.712L215.512 329.592ZM214.744 327.36L212.032 319.608L209.296 327.36H214.744ZM233.855 321.288C233.855 322.136 233.655 322.936 233.255 323.688C232.855 324.44 232.215 325.056 231.335 325.536C230.455 326 229.327 326.232 227.951 326.232H224.927V333H222.191V316.32H227.951C229.231 316.32 230.311 316.544 231.191 316.992C232.087 317.424 232.751 318.016 233.183 318.768C233.631 319.52 233.855 320.36 233.855 321.288ZM227.951 324C228.991 324 229.767 323.768 230.279 323.304C230.791 322.824 231.047 322.152 231.047 321.288C231.047 319.464 230.015 318.552 227.951 318.552H224.927V324H227.951ZM248.128 321.288C248.128 322.136 247.928 322.936 247.528 323.688C247.128 324.44 246.488 325.056 245.608 325.536C244.728 326 243.6 326.232 242.224 326.232H239.2V333H236.464V316.32H242.224C243.504 316.32 244.584 316.544 245.464 316.992C246.36 317.424 247.024 318.016 247.456 318.768C247.904 319.52 248.128 320.36 248.128 321.288ZM242.224 324C243.264 324 244.04 323.768 244.552 323.304C245.064 322.824 245.32 322.152 245.32 321.288C245.32 319.464 244.288 318.552 242.224 318.552H239.2V324H242.224ZM259.402 333L255.562 326.328H253.474V333H250.738V316.32H256.498C257.778 316.32 258.858 316.544 259.738 316.992C260.634 317.44 261.298 318.04 261.73 318.792C262.178 319.544 262.402 320.384 262.402 321.312C262.402 322.4 262.082 323.392 261.442 324.288C260.818 325.168 259.85 325.768 258.538 326.088L262.666 333H259.402ZM253.474 324.144H256.498C257.522 324.144 258.29 323.888 258.802 323.376C259.33 322.864 259.594 322.176 259.594 321.312C259.594 320.448 259.338 319.776 258.826 319.296C258.314 318.8 257.538 318.552 256.498 318.552H253.474V324.144ZM273.51 333.168C271.958 333.168 270.526 332.808 269.214 332.088C267.918 331.352 266.886 330.336 266.118 329.04C265.366 327.728 264.99 326.256 264.99 324.624C264.99 322.992 265.366 321.528 266.118 320.232C266.886 318.936 267.918 317.928 269.214 317.208C270.526 316.472 271.958 316.104 273.51 316.104C275.078 316.104 276.51 316.472 277.806 317.208C279.118 317.928 280.15 318.936 280.902 320.232C281.654 321.528 282.03 322.992 282.03 324.624C282.03 326.256 281.654 327.728 280.902 329.04C280.15 330.336 279.118 331.352 277.806 332.088C276.51 332.808 275.078 333.168 273.51 333.168ZM273.51 330.792C274.614 330.792 275.598 330.544 276.462 330.048C277.326 329.536 277.998 328.816 278.478 327.888C278.974 326.944 279.222 325.856 279.222 324.624C279.222 323.392 278.974 322.312 278.478 321.384C277.998 320.456 277.326 319.744 276.462 319.248C275.598 318.752 274.614 318.504 273.51 318.504C272.406 318.504 271.422 318.752 270.558 319.248C269.694 319.744 269.014 320.456 268.518 321.384C268.038 322.312 267.798 323.392 267.798 324.624C267.798 325.856 268.038 326.944 268.518 327.888C269.014 328.816 269.694 329.536 270.558 330.048C271.422 330.544 272.406 330.792 273.51 330.792ZM294.778 329.592H287.794L286.594 333H283.738L289.714 316.296H292.882L298.858 333H295.978L294.778 329.592ZM294.01 327.36L291.298 319.608L288.562 327.36H294.01ZM300.544 324.624C300.544 322.992 300.92 321.528 301.672 320.232C302.44 318.936 303.472 317.928 304.768 317.208C306.08 316.472 307.512 316.104 309.064 316.104C310.84 316.104 312.416 316.544 313.792 317.424C315.184 318.288 316.192 319.52 316.816 321.12H313.528C313.096 320.24 312.496 319.584 311.728 319.152C310.96 318.72 310.072 318.504 309.064 318.504C307.96 318.504 306.976 318.752 306.112 319.248C305.248 319.744 304.568 320.456 304.072 321.384C303.592 322.312 303.352 323.392 303.352 324.624C303.352 325.856 303.592 326.936 304.072 327.864C304.568 328.792 305.248 329.512 306.112 330.024C306.976 330.52 307.96 330.768 309.064 330.768C310.072 330.768 310.96 330.552 311.728 330.12C312.496 329.688 313.096 329.032 313.528 328.152H316.816C316.192 329.752 315.184 330.984 313.792 331.848C312.416 332.712 310.84 333.144 309.064 333.144C307.496 333.144 306.064 332.784 304.768 332.064C303.472 331.328 302.44 330.312 301.672 329.016C300.92 327.72 300.544 326.256 300.544 324.624ZM333.339 316.32V333H330.603V325.704H322.755V333H320.019V316.32H322.755V323.472H330.603V316.32H333.339Z" fill="white"/>
<path d="M102 66V84.9286C132.246 84.9286 146.79 90.3184 147.429 115.214V149.286C147.429 179.571 170.143 194.714 185.286 194.714C185.286 194.714 170.143 179.571 170.143 149.286V115.214C170.143 102.177 165.523 92.3536 158.312 84.9286C177.295 84.9286 192.272 92.8496 192.857 115.214V149.286C192.857 179.571 215.571 194.714 230.714 194.714C230.714 194.714 215.571 179.571 215.571 149.286V115.214C215.571 101.367 211.899 91.6207 206.58 84.9286C223.143 84.9286 238.286 93.2644 238.286 115.214V149.286C238.286 179.571 261 194.714 276.143 194.714C276.143 194.714 261 179.571 261 149.286V115.214C261 69.7857 223.143 66 208 66H102ZM147.429 209.857C139.344 209.857 124.831 225 117.143 225V247.714C125.277 247.714 140.242 232.571 147.429 232.571C155.064 232.571 169.63 247.714 177.714 247.714C184.915 247.714 200.312 232.571 208 232.571C215.636 232.571 231.043 247.714 238.286 247.714C245.921 247.714 261.385 232.571 268.571 232.571C275.758 232.571 291.222 247.714 298.857 247.714V225C292.569 225 276.656 209.408 268.571 209.857C261.329 209.857 246.383 225 238.286 225C231.548 225 215.636 209.857 208 209.857C200.364 209.857 184.467 225 177.714 225C170.514 225 155.513 209.857 147.429 209.857Z" fill="white"/>
<rect x="226.533" y="353" width="154.933" height="28" rx="14" fill="white"/>
<path d="M257.624 362.66C258.512 362.66 259.288 362.832 259.952 363.176C260.624 363.512 261.14 364 261.5 364.64C261.868 365.272 262.052 366.012 262.052 366.86C262.052 367.708 261.868 368.444 261.5 369.068C261.14 369.692 260.624 370.172 259.952 370.508C259.288 370.836 258.512 371 257.624 371H254.9V362.66H257.624ZM257.624 369.884C258.6 369.884 259.348 369.62 259.868 369.092C260.388 368.564 260.648 367.82 260.648 366.86C260.648 365.892 260.388 365.136 259.868 364.592C259.348 364.048 258.6 363.776 257.624 363.776H256.268V369.884H257.624ZM269.396 364.388V371H268.028V370.22C267.812 370.492 267.528 370.708 267.176 370.868C266.832 371.02 266.464 371.096 266.072 371.096C265.552 371.096 265.084 370.988 264.668 370.772C264.26 370.556 263.936 370.236 263.696 369.812C263.464 369.388 263.348 368.876 263.348 368.276V364.388H264.704V368.072C264.704 368.664 264.852 369.12 265.148 369.44C265.444 369.752 265.848 369.908 266.36 369.908C266.872 369.908 267.276 369.752 267.572 369.44C267.876 369.12 268.028 368.664 268.028 368.072V364.388H269.396ZM272.569 365.348C272.769 365.012 273.033 364.752 273.361 364.568C273.697 364.376 274.093 364.28 274.549 364.28V365.696H274.201C273.665 365.696 273.257 365.832 272.977 366.104C272.705 366.376 272.569 366.848 272.569 367.52V371H271.201V364.388H272.569V365.348ZM275.35 367.664C275.35 367 275.486 366.412 275.758 365.9C276.038 365.388 276.414 364.992 276.886 364.712C277.366 364.424 277.894 364.28 278.47 364.28C278.99 364.28 279.442 364.384 279.826 364.592C280.218 364.792 280.53 365.044 280.762 365.348V364.388H282.142V371H280.762V370.016C280.53 370.328 280.214 370.588 279.814 370.796C279.414 371.004 278.958 371.108 278.446 371.108C277.878 371.108 277.358 370.964 276.886 370.676C276.414 370.38 276.038 369.972 275.758 369.452C275.486 368.924 275.35 368.328 275.35 367.664ZM280.762 367.688C280.762 367.232 280.666 366.836 280.474 366.5C280.29 366.164 280.046 365.908 279.742 365.732C279.438 365.556 279.11 365.468 278.758 365.468C278.406 365.468 278.078 365.556 277.774 365.732C277.47 365.9 277.222 366.152 277.03 366.488C276.846 366.816 276.754 367.208 276.754 367.664C276.754 368.12 276.846 368.52 277.03 368.864C277.222 369.208 277.47 369.472 277.774 369.656C278.086 369.832 278.414 369.92 278.758 369.92C279.11 369.92 279.438 369.832 279.742 369.656C280.046 369.48 280.29 369.224 280.474 368.888C280.666 368.544 280.762 368.144 280.762 367.688ZM285.535 365.504V369.164C285.535 369.412 285.591 369.592 285.703 369.704C285.823 369.808 286.023 369.86 286.303 369.86H287.143V371H286.063C285.447 371 284.975 370.856 284.647 370.568C284.319 370.28 284.155 369.812 284.155 369.164V365.504H283.375V364.388H284.155V362.744H285.535V364.388H287.143V365.504H285.535ZM289.1 363.512C288.852 363.512 288.644 363.428 288.476 363.26C288.308 363.092 288.224 362.884 288.224 362.636C288.224 362.388 288.308 362.18 288.476 362.012C288.644 361.844 288.852 361.76 289.1 361.76C289.34 361.76 289.544 361.844 289.712 362.012C289.88 362.18 289.964 362.388 289.964 362.636C289.964 362.884 289.88 363.092 289.712 363.26C289.544 363.428 289.34 363.512 289.1 363.512ZM289.772 364.388V371H288.404V364.388H289.772ZM294.436 371.108C293.812 371.108 293.248 370.968 292.744 370.688C292.24 370.4 291.844 370 291.556 369.488C291.268 368.968 291.124 368.368 291.124 367.688C291.124 367.016 291.272 366.42 291.568 365.9C291.864 365.38 292.268 364.98 292.78 364.7C293.292 364.42 293.864 364.28 294.496 364.28C295.128 364.28 295.7 364.42 296.212 364.7C296.724 364.98 297.128 365.38 297.424 365.9C297.72 366.42 297.868 367.016 297.868 367.688C297.868 368.36 297.716 368.956 297.412 369.476C297.108 369.996 296.692 370.4 296.164 370.688C295.644 370.968 295.068 371.108 294.436 371.108ZM294.436 369.92C294.788 369.92 295.116 369.836 295.42 369.668C295.732 369.5 295.984 369.248 296.176 368.912C296.368 368.576 296.464 368.168 296.464 367.688C296.464 367.208 296.372 366.804 296.188 366.476C296.004 366.14 295.76 365.888 295.456 365.72C295.152 365.552 294.824 365.468 294.472 365.468C294.12 365.468 293.792 365.552 293.488 365.72C293.192 365.888 292.956 366.14 292.78 366.476C292.604 366.804 292.516 367.208 292.516 367.688C292.516 368.4 292.696 368.952 293.056 369.344C293.424 369.728 293.884 369.92 294.436 369.92ZM302.556 364.28C303.076 364.28 303.54 364.388 303.948 364.604C304.364 364.82 304.688 365.14 304.92 365.564C305.152 365.988 305.268 366.5 305.268 367.1V371H303.912V367.304C303.912 366.712 303.764 366.26 303.468 365.948C303.172 365.628 302.768 365.468 302.256 365.468C301.744 365.468 301.336 365.628 301.032 365.948C300.736 366.26 300.588 366.712 300.588 367.304V371H299.22V364.388H300.588V365.144C300.812 364.872 301.096 364.66 301.44 364.508C301.792 364.356 302.164 364.28 302.556 364.28ZM307.565 371.084C307.317 371.084 307.109 371 306.941 370.832C306.773 370.664 306.689 370.456 306.689 370.208C306.689 369.96 306.773 369.752 306.941 369.584C307.109 369.416 307.317 369.332 307.565 369.332C307.805 369.332 308.009 369.416 308.177 369.584C308.345 369.752 308.429 369.96 308.429 370.208C308.429 370.456 308.345 370.664 308.177 370.832C308.009 371 307.805 371.084 307.565 371.084ZM307.565 366.044C307.317 366.044 307.109 365.96 306.941 365.792C306.773 365.624 306.689 365.416 306.689 365.168C306.689 364.92 306.773 364.712 306.941 364.544C307.109 364.376 307.317 364.292 307.565 364.292C307.805 364.292 308.009 364.376 308.177 364.544C308.345 364.712 308.429 364.92 308.429 365.168C308.429 365.416 308.345 365.624 308.177 365.792C308.009 365.96 307.805 366.044 307.565 366.044ZM314.368 366.428C313.536 366.012 313.12 365.356 313.12 364.46C313.12 364.028 313.228 363.632 313.444 363.272C313.66 362.912 313.984 362.628 314.416 362.42C314.848 362.204 315.376 362.096 316 362.096C316.616 362.096 317.14 362.204 317.572 362.42C318.012 362.628 318.34 362.912 318.556 363.272C318.772 363.632 318.88 364.028 318.88 364.46C318.88 364.908 318.764 365.304 318.532 365.648C318.308 365.984 318.008 366.244 317.632 366.428C318.088 366.596 318.448 366.872 318.712 367.256C318.976 367.632 319.108 368.076 319.108 368.588C319.108 369.108 318.976 369.568 318.712 369.968C318.448 370.368 318.08 370.676 317.608 370.892C317.136 371.108 316.6 371.216 316 371.216C315.4 371.216 314.864 371.108 314.392 370.892C313.928 370.676 313.564 370.368 313.3 369.968C313.036 369.568 312.904 369.108 312.904 368.588C312.904 368.068 313.036 367.62 313.3 367.244C313.564 366.868 313.92 366.596 314.368 366.428ZM317.572 364.628C317.572 364.18 317.432 363.836 317.152 363.596C316.872 363.356 316.488 363.236 316 363.236C315.52 363.236 315.14 363.356 314.86 363.596C314.58 363.836 314.44 364.184 314.44 364.64C314.44 365.04 314.584 365.368 314.872 365.624C315.168 365.872 315.544 365.996 316 365.996C316.456 365.996 316.832 365.868 317.128 365.612C317.424 365.356 317.572 365.028 317.572 364.628ZM316 367.028C315.472 367.028 315.04 367.16 314.704 367.424C314.376 367.68 314.212 368.052 314.212 368.54C314.212 368.996 314.372 369.368 314.692 369.656C315.012 369.936 315.448 370.076 316 370.076C316.544 370.076 316.972 369.932 317.284 369.644C317.604 369.356 317.764 368.988 317.764 368.54C317.764 368.06 317.6 367.688 317.272 367.424C316.952 367.16 316.528 367.028 316 367.028ZM330.501 362.66V371H329.133V367.352H325.209V371H323.841V362.66H325.209V366.236H329.133V362.66H330.501ZM335.17 371.108C334.546 371.108 333.982 370.968 333.478 370.688C332.974 370.4 332.578 370 332.29 369.488C332.002 368.968 331.858 368.368 331.858 367.688C331.858 367.016 332.006 366.42 332.302 365.9C332.598 365.38 333.002 364.98 333.514 364.7C334.026 364.42 334.598 364.28 335.23 364.28C335.862 364.28 336.434 364.42 336.946 364.7C337.458 364.98 337.862 365.38 338.158 365.9C338.454 366.42 338.602 367.016 338.602 367.688C338.602 368.36 338.45 368.956 338.146 369.476C337.842 369.996 337.426 370.4 336.898 370.688C336.378 370.968 335.802 371.108 335.17 371.108ZM335.17 369.92C335.522 369.92 335.85 369.836 336.154 369.668C336.466 369.5 336.718 369.248 336.91 368.912C337.102 368.576 337.198 368.168 337.198 367.688C337.198 367.208 337.106 366.804 336.922 366.476C336.738 366.14 336.494 365.888 336.19 365.72C335.886 365.552 335.558 365.468 335.206 365.468C334.854 365.468 334.526 365.552 334.222 365.72C333.926 365.888 333.69 366.14 333.514 366.476C333.338 366.804 333.25 367.208 333.25 367.688C333.25 368.4 333.43 368.952 333.79 369.344C334.158 369.728 334.618 369.92 335.17 369.92ZM345.943 364.388V371H344.575V370.22C344.359 370.492 344.075 370.708 343.723 370.868C343.379 371.02 343.011 371.096 342.619 371.096C342.099 371.096 341.631 370.988 341.215 370.772C340.807 370.556 340.483 370.236 340.243 369.812C340.011 369.388 339.895 368.876 339.895 368.276V364.388H341.251V368.072C341.251 368.664 341.399 369.12 341.695 369.44C341.991 369.752 342.395 369.908 342.907 369.908C343.419 369.908 343.823 369.752 344.119 369.44C344.423 369.12 344.575 368.664 344.575 368.072V364.388H345.943ZM349.116 365.348C349.316 365.012 349.58 364.752 349.908 364.568C350.244 364.376 350.64 364.28 351.096 364.28V365.696H350.748C350.212 365.696 349.804 365.832 349.524 366.104C349.252 366.376 349.116 366.848 349.116 367.52V371H347.748V364.388H349.116V365.348ZM354.753 371.108C354.233 371.108 353.765 371.016 353.349 370.832C352.941 370.64 352.617 370.384 352.377 370.064C352.137 369.736 352.009 369.372 351.993 368.972H353.409C353.433 369.252 353.565 369.488 353.805 369.68C354.053 369.864 354.361 369.956 354.729 369.956C355.113 369.956 355.409 369.884 355.617 369.74C355.833 369.588 355.941 369.396 355.941 369.164C355.941 368.916 355.821 368.732 355.581 368.612C355.349 368.492 354.977 368.36 354.465 368.216C353.969 368.08 353.565 367.948 353.253 367.82C352.941 367.692 352.669 367.496 352.437 367.232C352.213 366.968 352.101 366.62 352.101 366.188C352.101 365.836 352.205 365.516 352.413 365.228C352.621 364.932 352.917 364.7 353.301 364.532C353.693 364.364 354.141 364.28 354.645 364.28C355.397 364.28 356.001 364.472 356.457 364.856C356.921 365.232 357.169 365.748 357.201 366.404H355.833C355.809 366.108 355.689 365.872 355.473 365.696C355.257 365.52 354.965 365.432 354.597 365.432C354.237 365.432 353.961 365.5 353.769 365.636C353.577 365.772 353.481 365.952 353.481 366.176C353.481 366.352 353.545 366.5 353.673 366.62C353.801 366.74 353.957 366.836 354.141 366.908C354.325 366.972 354.597 367.056 354.957 367.16C355.437 367.288 355.829 367.42 356.133 367.556C356.445 367.684 356.713 367.876 356.937 368.132C357.161 368.388 357.277 368.728 357.285 369.152C357.285 369.528 357.181 369.864 356.973 370.16C356.765 370.456 356.469 370.688 356.085 370.856C355.709 371.024 355.265 371.108 354.753 371.108Z" fill="#854BFF"/>
<rect x="18" y="353" width="154.933" height="28" rx="14" fill="white"/>
<path d="M54.624 362.66C55.512 362.66 56.288 362.832 56.952 363.176C57.624 363.512 58.14 364 58.5 364.64C58.868 365.272 59.052 366.012 59.052 366.86C59.052 367.708 58.868 368.444 58.5 369.068C58.14 369.692 57.624 370.172 56.952 370.508C56.288 370.836 55.512 371 54.624 371H51.9V362.66H54.624ZM54.624 369.884C55.6 369.884 56.348 369.62 56.868 369.092C57.388 368.564 57.648 367.82 57.648 366.86C57.648 365.892 57.388 365.136 56.868 364.592C56.348 364.048 55.6 363.776 54.624 363.776H53.268V369.884H54.624ZM61.1038 363.512C60.8558 363.512 60.6478 363.428 60.4798 363.26C60.3118 363.092 60.2278 362.884 60.2278 362.636C60.2278 362.388 60.3118 362.18 60.4798 362.012C60.6478 361.844 60.8558 361.76 61.1038 361.76C61.3438 361.76 61.5478 361.844 61.7158 362.012C61.8838 362.18 61.9678 362.388 61.9678 362.636C61.9678 362.884 61.8838 363.092 61.7158 363.26C61.5478 363.428 61.3438 363.512 61.1038 363.512ZM61.7758 364.388V371H60.4078V364.388H61.7758ZM66.3439 365.504H65.1199V371H63.7399V365.504H62.9599V364.388H63.7399V363.92C63.7399 363.16 63.9399 362.608 64.3399 362.264C64.7479 361.912 65.3839 361.736 66.2479 361.736V362.876C65.8319 362.876 65.5399 362.956 65.3719 363.116C65.2039 363.268 65.1199 363.536 65.1199 363.92V364.388H66.3439V365.504ZM70.3283 365.504H69.1043V371H67.7243V365.504H66.9443V364.388H67.7243V363.92C67.7243 363.16 67.9243 362.608 68.3243 362.264C68.7323 361.912 69.3683 361.736 70.2323 361.736V362.876C69.8163 362.876 69.5243 362.956 69.3563 363.116C69.1883 363.268 69.1043 363.536 69.1043 363.92V364.388H70.3283V365.504ZM72.2366 363.512C71.9886 363.512 71.7806 363.428 71.6126 363.26C71.4446 363.092 71.3606 362.884 71.3606 362.636C71.3606 362.388 71.4446 362.18 71.6126 362.012C71.7806 361.844 71.9886 361.76 72.2366 361.76C72.4766 361.76 72.6806 361.844 72.8486 362.012C73.0166 362.18 73.1006 362.388 73.1006 362.636C73.1006 362.884 73.0166 363.092 72.8486 363.26C72.6806 363.428 72.4766 363.512 72.2366 363.512ZM72.9086 364.388V371H71.5406V364.388H72.9086ZM74.2487 367.688C74.2487 367.008 74.3847 366.412 74.6567 365.9C74.9367 365.38 75.3207 364.98 75.8087 364.7C76.2967 364.42 76.8567 364.28 77.4887 364.28C78.2887 364.28 78.9487 364.472 79.4687 364.856C79.9967 365.232 80.3527 365.772 80.5367 366.476H79.0607C78.9407 366.148 78.7487 365.892 78.4847 365.708C78.2207 365.524 77.8887 365.432 77.4887 365.432C76.9287 365.432 76.4807 365.632 76.1447 366.032C75.8167 366.424 75.6527 366.976 75.6527 367.688C75.6527 368.4 75.8167 368.956 76.1447 369.356C76.4807 369.756 76.9287 369.956 77.4887 369.956C78.2807 369.956 78.8047 369.608 79.0607 368.912H80.5367C80.3447 369.584 79.9847 370.12 79.4567 370.52C78.9287 370.912 78.2727 371.108 77.4887 371.108C76.8567 371.108 76.2967 370.968 75.8087 370.688C75.3207 370.4 74.9367 370 74.6567 369.488C74.3847 368.968 74.2487 368.368 74.2487 367.688ZM87.888 364.388V371H86.52V370.22C86.304 370.492 86.02 370.708 85.668 370.868C85.324 371.02 84.956 371.096 84.564 371.096C84.044 371.096 83.576 370.988 83.16 370.772C82.752 370.556 82.428 370.236 82.188 369.812C81.956 369.388 81.84 368.876 81.84 368.276V364.388H83.196V368.072C83.196 368.664 83.344 369.12 83.64 369.44C83.936 369.752 84.34 369.908 84.852 369.908C85.364 369.908 85.768 369.752 86.064 369.44C86.368 369.12 86.52 368.664 86.52 368.072V364.388H87.888ZM91.061 362.12V371H89.693V362.12H91.061ZM94.453 365.504V369.164C94.453 369.412 94.509 369.592 94.621 369.704C94.741 369.808 94.941 369.86 95.221 369.86H96.061V371H94.981C94.365 371 93.893 370.856 93.565 370.568C93.237 370.28 93.073 369.812 93.073 369.164V365.504H92.293V364.388H93.073V362.744H94.453V364.388H96.061V365.504H94.453ZM103.274 364.388L99.2179 374.108H97.8019L99.1459 370.892L96.5419 364.388H98.0659L99.9259 369.428L101.858 364.388H103.274ZM104.858 371.084C104.61 371.084 104.402 371 104.234 370.832C104.066 370.664 103.982 370.456 103.982 370.208C103.982 369.96 104.066 369.752 104.234 369.584C104.402 369.416 104.61 369.332 104.858 369.332C105.098 369.332 105.302 369.416 105.47 369.584C105.638 369.752 105.722 369.96 105.722 370.208C105.722 370.456 105.638 370.664 105.47 370.832C105.302 371 105.098 371.084 104.858 371.084ZM104.858 366.044C104.61 366.044 104.402 365.96 104.234 365.792C104.066 365.624 103.982 365.416 103.982 365.168C103.982 364.92 104.066 364.712 104.234 364.544C104.402 364.376 104.61 364.292 104.858 364.292C105.098 364.292 105.302 364.376 105.47 364.544C105.638 364.712 105.722 364.92 105.722 365.168C105.722 365.416 105.638 365.624 105.47 365.792C105.302 365.96 105.098 366.044 104.858 366.044ZM111.733 363.764V366.212H114.613V367.328H111.733V369.884H114.973V371H110.365V362.648H114.973V363.764H111.733ZM116.202 367.664C116.202 367 116.338 366.412 116.61 365.9C116.89 365.388 117.266 364.992 117.738 364.712C118.218 364.424 118.746 364.28 119.322 364.28C119.842 364.28 120.294 364.384 120.678 364.592C121.07 364.792 121.382 365.044 121.614 365.348V364.388H122.994V371H121.614V370.016C121.382 370.328 121.066 370.588 120.666 370.796C120.266 371.004 119.81 371.108 119.298 371.108C118.73 371.108 118.21 370.964 117.738 370.676C117.266 370.38 116.89 369.972 116.61 369.452C116.338 368.924 116.202 368.328 116.202 367.664ZM121.614 367.688C121.614 367.232 121.518 366.836 121.326 366.5C121.142 366.164 120.898 365.908 120.594 365.732C120.29 365.556 119.962 365.468 119.61 365.468C119.258 365.468 118.93 365.556 118.626 365.732C118.322 365.9 118.074 366.152 117.882 366.488C117.698 366.816 117.606 367.208 117.606 367.664C117.606 368.12 117.698 368.52 117.882 368.864C118.074 369.208 118.322 369.472 118.626 369.656C118.938 369.832 119.266 369.92 119.61 369.92C119.962 369.92 120.29 369.832 120.594 369.656C120.898 369.48 121.142 369.224 121.326 368.888C121.518 368.544 121.614 368.144 121.614 367.688ZM127.191 371.108C126.671 371.108 126.203 371.016 125.787 370.832C125.379 370.64 125.055 370.384 124.815 370.064C124.575 369.736 124.447 369.372 124.431 368.972H125.847C125.871 369.252 126.003 369.488 126.243 369.68C126.491 369.864 126.799 369.956 127.167 369.956C127.551 369.956 127.847 369.884 128.055 369.74C128.271 369.588 128.379 369.396 128.379 369.164C128.379 368.916 128.259 368.732 128.019 368.612C127.787 368.492 127.415 368.36 126.903 368.216C126.407 368.08 126.003 367.948 125.691 367.82C125.379 367.692 125.107 367.496 124.875 367.232C124.651 366.968 124.539 366.62 124.539 366.188C124.539 365.836 124.643 365.516 124.851 365.228C125.059 364.932 125.355 364.7 125.739 364.532C126.131 364.364 126.579 364.28 127.083 364.28C127.835 364.28 128.439 364.472 128.895 364.856C129.359 365.232 129.607 365.748 129.639 366.404H128.271C128.247 366.108 128.127 365.872 127.911 365.696C127.695 365.52 127.403 365.432 127.035 365.432C126.675 365.432 126.399 365.5 126.207 365.636C126.015 365.772 125.919 365.952 125.919 366.176C125.919 366.352 125.983 366.5 126.111 366.62C126.239 366.74 126.395 366.836 126.579 366.908C126.763 366.972 127.035 367.056 127.395 367.16C127.875 367.288 128.267 367.42 128.571 367.556C128.883 367.684 129.151 367.876 129.375 368.132C129.599 368.388 129.715 368.728 129.723 369.152C129.723 369.528 129.619 369.864 129.411 370.16C129.203 370.456 128.907 370.688 128.523 370.856C128.147 371.024 127.703 371.108 127.191 371.108ZM137.153 364.388L133.097 374.108H131.681L133.025 370.892L130.421 364.388H131.945L133.805 369.428L135.737 364.388H137.153Z" fill="#854BFF"/>
</svg>
