<svg width="400" height="400" viewBox="0 0 400 400" fill="none" xmlns="http://www.w3.org/2000/svg">
<rect width="400" height="400" fill="#FF814B"/>
<path d="M70.52 301.32L65.576 318H62.48L58.976 305.376L55.256 318L52.184 318.024L47.456 301.32H50.36L53.816 314.904L57.56 301.32H60.632L64.112 314.832L67.592 301.32H70.52ZM82.8326 314.592H75.8486L74.6486 318H71.7926L77.7686 301.296H80.9366L86.9126 318H84.0326L82.8326 314.592ZM82.0646 312.36L79.3526 304.608L76.6166 312.36H82.0646ZM100.287 301.32V303.552H95.8469V318H93.1109V303.552H88.6469V301.32H100.287ZM105.794 303.528V308.424H111.554V310.656H105.794V315.768H112.274V318H103.058V301.296H112.274V303.528H105.794ZM124.308 318L120.468 311.328H118.38V318H115.644V301.32H121.404C122.684 301.32 123.764 301.544 124.644 301.992C125.54 302.44 126.204 303.04 126.636 303.792C127.084 304.544 127.308 305.384 127.308 306.312C127.308 307.4 126.988 308.392 126.348 309.288C125.724 310.168 124.756 310.768 123.444 311.088L127.572 318H124.308ZM118.38 309.144H121.404C122.428 309.144 123.196 308.888 123.708 308.376C124.236 307.864 124.5 307.176 124.5 306.312C124.5 305.448 124.244 304.776 123.732 304.296C123.22 303.8 122.444 303.552 121.404 303.552H118.38V309.144ZM140.624 301.32V303.552H133.544V308.472H139.064V310.704H133.544V318H130.808V301.32H140.624ZM153.215 314.592H146.231L145.031 318H142.175L148.151 301.296H151.319L157.295 318H154.415L153.215 314.592ZM152.447 312.36L149.735 304.608L146.999 312.36H152.447ZM162.63 315.792H168.27V318H159.894V301.32H162.63V315.792ZM173.294 315.792H178.934V318H170.558V301.32H173.294V315.792ZM197.512 314.592H190.528L189.328 318H186.472L192.448 301.296H195.616L201.592 318H198.712L197.512 314.592ZM196.744 312.36L194.032 304.608L191.296 312.36H196.744ZM215.855 306.288C215.855 307.136 215.655 307.936 215.255 308.688C214.855 309.44 214.215 310.056 213.335 310.536C212.455 311 211.327 311.232 209.951 311.232H206.927V318H204.191V301.32H209.951C211.231 301.32 212.311 301.544 213.191 301.992C214.087 302.424 214.751 303.016 215.183 303.768C215.631 304.52 215.855 305.36 215.855 306.288ZM209.951 309C210.991 309 211.767 308.768 212.279 308.304C212.791 307.824 213.047 307.152 213.047 306.288C213.047 304.464 212.015 303.552 209.951 303.552H206.927V309H209.951ZM230.128 306.288C230.128 307.136 229.928 307.936 229.528 308.688C229.128 309.44 228.488 310.056 227.608 310.536C226.728 311 225.6 311.232 224.224 311.232H221.2V318H218.464V301.32H224.224C225.504 301.32 226.584 301.544 227.464 301.992C228.36 302.424 229.024 303.016 229.456 303.768C229.904 304.52 230.128 305.36 230.128 306.288ZM224.224 309C225.264 309 226.04 308.768 226.552 308.304C227.064 307.824 227.32 307.152 227.32 306.288C227.32 304.464 226.288 303.552 224.224 303.552H221.2V309H224.224ZM241.402 318L237.562 311.328H235.474V318H232.738V301.32H238.498C239.778 301.32 240.858 301.544 241.738 301.992C242.634 302.44 243.298 303.04 243.73 303.792C244.178 304.544 244.402 305.384 244.402 306.312C244.402 307.4 244.082 308.392 243.442 309.288C242.818 310.168 241.85 310.768 240.538 311.088L244.666 318H241.402ZM235.474 309.144H238.498C239.522 309.144 240.29 308.888 240.802 308.376C241.33 307.864 241.594 307.176 241.594 306.312C241.594 305.448 241.338 304.776 240.826 304.296C240.314 303.8 239.538 303.552 238.498 303.552H235.474V309.144ZM255.51 318.168C253.958 318.168 252.526 317.808 251.214 317.088C249.918 316.352 248.886 315.336 248.118 314.04C247.366 312.728 246.99 311.256 246.99 309.624C246.99 307.992 247.366 306.528 248.118 305.232C248.886 303.936 249.918 302.928 251.214 302.208C252.526 301.472 253.958 301.104 255.51 301.104C257.078 301.104 258.51 301.472 259.806 302.208C261.118 302.928 262.15 303.936 262.902 305.232C263.654 306.528 264.03 307.992 264.03 309.624C264.03 311.256 263.654 312.728 262.902 314.04C262.15 315.336 261.118 316.352 259.806 317.088C258.51 317.808 257.078 318.168 255.51 318.168ZM255.51 315.792C256.614 315.792 257.598 315.544 258.462 315.048C259.326 314.536 259.998 313.816 260.478 312.888C260.974 311.944 261.222 310.856 261.222 309.624C261.222 308.392 260.974 307.312 260.478 306.384C259.998 305.456 259.326 304.744 258.462 304.248C257.598 303.752 256.614 303.504 255.51 303.504C254.406 303.504 253.422 303.752 252.558 304.248C251.694 304.744 251.014 305.456 250.518 306.384C250.038 307.312 249.798 308.392 249.798 309.624C249.798 310.856 250.038 311.944 250.518 312.888C251.014 313.816 251.694 314.536 252.558 315.048C253.422 315.544 254.406 315.792 255.51 315.792ZM276.778 314.592H269.794L268.594 318H265.738L271.714 301.296H274.882L280.858 318H277.978L276.778 314.592ZM276.01 312.36L273.298 304.608L270.562 312.36H276.01ZM282.544 309.624C282.544 307.992 282.92 306.528 283.672 305.232C284.44 303.936 285.472 302.928 286.768 302.208C288.08 301.472 289.512 301.104 291.064 301.104C292.84 301.104 294.416 301.544 295.792 302.424C297.184 303.288 298.192 304.52 298.816 306.12H295.528C295.096 305.24 294.496 304.584 293.728 304.152C292.96 303.72 292.072 303.504 291.064 303.504C289.96 303.504 288.976 303.752 288.112 304.248C287.248 304.744 286.568 305.456 286.072 306.384C285.592 307.312 285.352 308.392 285.352 309.624C285.352 310.856 285.592 311.936 286.072 312.864C286.568 313.792 287.248 314.512 288.112 315.024C288.976 315.52 289.96 315.768 291.064 315.768C292.072 315.768 292.96 315.552 293.728 315.12C294.496 314.688 295.096 314.032 295.528 313.152H298.816C298.192 314.752 297.184 315.984 295.792 316.848C294.416 317.712 292.84 318.144 291.064 318.144C289.496 318.144 288.064 317.784 286.768 317.064C285.472 316.328 284.44 315.312 283.672 314.016C282.92 312.72 282.544 311.256 282.544 309.624ZM315.339 301.32V318H312.603V310.704H304.755V318H302.019V301.32H304.755V308.472H312.603V301.32H315.339ZM335.327 308.16V310.464H325.463V308.16H335.327ZM344.728 303V300.504H349.72V318H346.96V303H344.728Z" fill="white"/>
<path d="M102 76V94.9286C132.246 94.9286 146.79 100.318 147.429 125.214V159.286C147.429 189.571 170.143 204.714 185.286 204.714C185.286 204.714 170.143 189.571 170.143 159.286V125.214C170.143 112.177 165.523 102.354 158.312 94.9286C177.295 94.9286 192.272 102.85 192.857 125.214V159.286C192.857 189.571 215.571 204.714 230.714 204.714C230.714 204.714 215.571 189.571 215.571 159.286V125.214C215.571 111.367 211.899 101.621 206.58 94.9286C223.143 94.9286 238.286 103.264 238.286 125.214V159.286C238.286 189.571 261 204.714 276.143 204.714C276.143 204.714 261 189.571 261 159.286V125.214C261 79.7857 223.143 76 208 76H102ZM147.429 219.857C139.344 219.857 124.831 235 117.143 235V257.714C125.277 257.714 140.242 242.571 147.429 242.571C155.064 242.571 169.63 257.714 177.714 257.714C184.915 257.714 200.312 242.571 208 242.571C215.636 242.571 231.043 257.714 238.286 257.714C245.921 257.714 261.385 242.571 268.571 242.571C275.758 242.571 291.222 257.714 298.857 257.714V235C292.569 235 276.656 219.408 268.571 219.857C261.329 219.857 246.383 235 238.286 235C231.548 235 215.636 219.857 208 219.857C200.364 219.857 184.467 235 177.714 235C170.514 235 155.513 219.857 147.429 219.857Z" fill="white"/>
<rect x="226.533" y="353" width="154.933" height="28" rx="14" fill="white"/>
<path d="M257.624 362.66C258.512 362.66 259.288 362.832 259.952 363.176C260.624 363.512 261.14 364 261.5 364.64C261.868 365.272 262.052 366.012 262.052 366.86C262.052 367.708 261.868 368.444 261.5 369.068C261.14 369.692 260.624 370.172 259.952 370.508C259.288 370.836 258.512 371 257.624 371H254.9V362.66H257.624ZM257.624 369.884C258.6 369.884 259.348 369.62 259.868 369.092C260.388 368.564 260.648 367.82 260.648 366.86C260.648 365.892 260.388 365.136 259.868 364.592C259.348 364.048 258.6 363.776 257.624 363.776H256.268V369.884H257.624ZM269.396 364.388V371H268.028V370.22C267.812 370.492 267.528 370.708 267.176 370.868C266.832 371.02 266.464 371.096 266.072 371.096C265.552 371.096 265.084 370.988 264.668 370.772C264.26 370.556 263.936 370.236 263.696 369.812C263.464 369.388 263.348 368.876 263.348 368.276V364.388H264.704V368.072C264.704 368.664 264.852 369.12 265.148 369.44C265.444 369.752 265.848 369.908 266.36 369.908C266.872 369.908 267.276 369.752 267.572 369.44C267.876 369.12 268.028 368.664 268.028 368.072V364.388H269.396ZM272.569 365.348C272.769 365.012 273.033 364.752 273.361 364.568C273.697 364.376 274.093 364.28 274.549 364.28V365.696H274.201C273.665 365.696 273.257 365.832 272.977 366.104C272.705 366.376 272.569 366.848 272.569 367.52V371H271.201V364.388H272.569V365.348ZM275.35 367.664C275.35 367 275.486 366.412 275.758 365.9C276.038 365.388 276.414 364.992 276.886 364.712C277.366 364.424 277.894 364.28 278.47 364.28C278.99 364.28 279.442 364.384 279.826 364.592C280.218 364.792 280.53 365.044 280.762 365.348V364.388H282.142V371H280.762V370.016C280.53 370.328 280.214 370.588 279.814 370.796C279.414 371.004 278.958 371.108 278.446 371.108C277.878 371.108 277.358 370.964 276.886 370.676C276.414 370.38 276.038 369.972 275.758 369.452C275.486 368.924 275.35 368.328 275.35 367.664ZM280.762 367.688C280.762 367.232 280.666 366.836 280.474 366.5C280.29 366.164 280.046 365.908 279.742 365.732C279.438 365.556 279.11 365.468 278.758 365.468C278.406 365.468 278.078 365.556 277.774 365.732C277.47 365.9 277.222 366.152 277.03 366.488C276.846 366.816 276.754 367.208 276.754 367.664C276.754 368.12 276.846 368.52 277.03 368.864C277.222 369.208 277.47 369.472 277.774 369.656C278.086 369.832 278.414 369.92 278.758 369.92C279.11 369.92 279.438 369.832 279.742 369.656C280.046 369.48 280.29 369.224 280.474 368.888C280.666 368.544 280.762 368.144 280.762 367.688ZM285.535 365.504V369.164C285.535 369.412 285.591 369.592 285.703 369.704C285.823 369.808 286.023 369.86 286.303 369.86H287.143V371H286.063C285.447 371 284.975 370.856 284.647 370.568C284.319 370.28 284.155 369.812 284.155 369.164V365.504H283.375V364.388H284.155V362.744H285.535V364.388H287.143V365.504H285.535ZM289.1 363.512C288.852 363.512 288.644 363.428 288.476 363.26C288.308 363.092 288.224 362.884 288.224 362.636C288.224 362.388 288.308 362.18 288.476 362.012C288.644 361.844 288.852 361.76 289.1 361.76C289.34 361.76 289.544 361.844 289.712 362.012C289.88 362.18 289.964 362.388 289.964 362.636C289.964 362.884 289.88 363.092 289.712 363.26C289.544 363.428 289.34 363.512 289.1 363.512ZM289.772 364.388V371H288.404V364.388H289.772ZM294.436 371.108C293.812 371.108 293.248 370.968 292.744 370.688C292.24 370.4 291.844 370 291.556 369.488C291.268 368.968 291.124 368.368 291.124 367.688C291.124 367.016 291.272 366.42 291.568 365.9C291.864 365.38 292.268 364.98 292.78 364.7C293.292 364.42 293.864 364.28 294.496 364.28C295.128 364.28 295.7 364.42 296.212 364.7C296.724 364.98 297.128 365.38 297.424 365.9C297.72 366.42 297.868 367.016 297.868 367.688C297.868 368.36 297.716 368.956 297.412 369.476C297.108 369.996 296.692 370.4 296.164 370.688C295.644 370.968 295.068 371.108 294.436 371.108ZM294.436 369.92C294.788 369.92 295.116 369.836 295.42 369.668C295.732 369.5 295.984 369.248 296.176 368.912C296.368 368.576 296.464 368.168 296.464 367.688C296.464 367.208 296.372 366.804 296.188 366.476C296.004 366.14 295.76 365.888 295.456 365.72C295.152 365.552 294.824 365.468 294.472 365.468C294.12 365.468 293.792 365.552 293.488 365.72C293.192 365.888 292.956 366.14 292.78 366.476C292.604 366.804 292.516 367.208 292.516 367.688C292.516 368.4 292.696 368.952 293.056 369.344C293.424 369.728 293.884 369.92 294.436 369.92ZM302.556 364.28C303.076 364.28 303.54 364.388 303.948 364.604C304.364 364.82 304.688 365.14 304.92 365.564C305.152 365.988 305.268 366.5 305.268 367.1V371H303.912V367.304C303.912 366.712 303.764 366.26 303.468 365.948C303.172 365.628 302.768 365.468 302.256 365.468C301.744 365.468 301.336 365.628 301.032 365.948C300.736 366.26 300.588 366.712 300.588 367.304V371H299.22V364.388H300.588V365.144C300.812 364.872 301.096 364.66 301.44 364.508C301.792 364.356 302.164 364.28 302.556 364.28ZM307.565 371.084C307.317 371.084 307.109 371 306.941 370.832C306.773 370.664 306.689 370.456 306.689 370.208C306.689 369.96 306.773 369.752 306.941 369.584C307.109 369.416 307.317 369.332 307.565 369.332C307.805 369.332 308.009 369.416 308.177 369.584C308.345 369.752 308.429 369.96 308.429 370.208C308.429 370.456 308.345 370.664 308.177 370.832C308.009 371 307.805 371.084 307.565 371.084ZM307.565 366.044C307.317 366.044 307.109 365.96 306.941 365.792C306.773 365.624 306.689 365.416 306.689 365.168C306.689 364.92 306.773 364.712 306.941 364.544C307.109 364.376 307.317 364.292 307.565 364.292C307.805 364.292 308.009 364.376 308.177 364.544C308.345 364.712 308.429 364.92 308.429 365.168C308.429 365.416 308.345 365.624 308.177 365.792C308.009 365.96 307.805 366.044 307.565 366.044ZM313.648 369.14C314.416 368.476 315.02 367.932 315.46 367.508C315.908 367.076 316.28 366.628 316.576 366.164C316.872 365.7 317.02 365.236 317.02 364.772C317.02 364.292 316.904 363.916 316.672 363.644C316.448 363.372 316.092 363.236 315.604 363.236C315.132 363.236 314.764 363.388 314.5 363.692C314.244 363.988 314.108 364.388 314.092 364.892H312.772C312.796 363.98 313.068 363.284 313.588 362.804C314.116 362.316 314.784 362.072 315.592 362.072C316.464 362.072 317.144 362.312 317.632 362.792C318.128 363.272 318.376 363.912 318.376 364.712C318.376 365.288 318.228 365.844 317.932 366.38C317.644 366.908 317.296 367.384 316.888 367.808C316.488 368.224 315.976 368.708 315.352 369.26L314.812 369.74H318.616V370.88H312.784V369.884L313.648 369.14ZM333.975 362.66L331.503 371H329.955L328.203 364.688L326.343 371L324.807 371.012L322.443 362.66H323.895L325.623 369.452L327.495 362.66H329.031L330.771 369.416L332.511 362.66H333.975ZM341.163 367.532C341.163 367.78 341.147 368.004 341.115 368.204H336.063C336.103 368.732 336.299 369.156 336.651 369.476C337.003 369.796 337.435 369.956 337.947 369.956C338.683 369.956 339.203 369.648 339.507 369.032H340.983C340.783 369.64 340.419 370.14 339.891 370.532C339.371 370.916 338.723 371.108 337.947 371.108C337.315 371.108 336.747 370.968 336.243 370.688C335.747 370.4 335.355 370 335.067 369.488C334.787 368.968 334.647 368.368 334.647 367.688C334.647 367.008 334.783 366.412 335.055 365.9C335.335 365.38 335.723 364.98 336.219 364.7C336.723 364.42 337.299 364.28 337.947 364.28C338.571 364.28 339.127 364.416 339.615 364.688C340.103 364.96 340.483 365.344 340.755 365.84C341.027 366.328 341.163 366.892 341.163 367.532ZM339.735 367.1C339.727 366.596 339.547 366.192 339.195 365.888C338.843 365.584 338.407 365.432 337.887 365.432C337.415 365.432 337.011 365.584 336.675 365.888C336.339 366.184 336.139 366.588 336.075 367.1H339.735ZM348.569 367.532C348.569 367.78 348.553 368.004 348.521 368.204H343.469C343.509 368.732 343.705 369.156 344.057 369.476C344.409 369.796 344.841 369.956 345.353 369.956C346.089 369.956 346.609 369.648 346.913 369.032H348.389C348.189 369.64 347.825 370.14 347.297 370.532C346.777 370.916 346.129 371.108 345.353 371.108C344.721 371.108 344.153 370.968 343.649 370.688C343.153 370.4 342.761 370 342.473 369.488C342.193 368.968 342.053 368.368 342.053 367.688C342.053 367.008 342.189 366.412 342.461 365.9C342.741 365.38 343.129 364.98 343.625 364.7C344.129 364.42 344.705 364.28 345.353 364.28C345.977 364.28 346.533 364.416 347.021 364.688C347.509 364.96 347.889 365.344 348.161 365.84C348.433 366.328 348.569 366.892 348.569 367.532ZM347.141 367.1C347.133 366.596 346.953 366.192 346.601 365.888C346.249 365.584 345.813 365.432 345.293 365.432C344.821 365.432 344.417 365.584 344.081 365.888C343.745 366.184 343.545 366.588 343.481 367.1H347.141ZM352.532 367.7L355.58 371H353.732L351.284 368.156V371H349.916V362.12H351.284V367.28L353.684 364.388H355.58L352.532 367.7Z" fill="#FF814B"/>
<rect x="18" y="353" width="154.933" height="28" rx="14" fill="white"/>
<path d="M43.624 362.66C44.512 362.66 45.288 362.832 45.952 363.176C46.624 363.512 47.14 364 47.5 364.64C47.868 365.272 48.052 366.012 48.052 366.86C48.052 367.708 47.868 368.444 47.5 369.068C47.14 369.692 46.624 370.172 45.952 370.508C45.288 370.836 44.512 371 43.624 371H40.9V362.66H43.624ZM43.624 369.884C44.6 369.884 45.348 369.62 45.868 369.092C46.388 368.564 46.648 367.82 46.648 366.86C46.648 365.892 46.388 365.136 45.868 364.592C45.348 364.048 44.6 363.776 43.624 363.776H42.268V369.884H43.624ZM50.1038 363.512C49.8558 363.512 49.6478 363.428 49.4798 363.26C49.3118 363.092 49.2278 362.884 49.2278 362.636C49.2278 362.388 49.3118 362.18 49.4798 362.012C49.6478 361.844 49.8558 361.76 50.1038 361.76C50.3438 361.76 50.5478 361.844 50.7158 362.012C50.8838 362.18 50.9678 362.388 50.9678 362.636C50.9678 362.884 50.8838 363.092 50.7158 363.26C50.5478 363.428 50.3438 363.512 50.1038 363.512ZM50.7758 364.388V371H49.4078V364.388H50.7758ZM55.3439 365.504H54.1199V371H52.7399V365.504H51.9599V364.388H52.7399V363.92C52.7399 363.16 52.9399 362.608 53.3399 362.264C53.7479 361.912 54.3839 361.736 55.2479 361.736V362.876C54.8319 362.876 54.5399 362.956 54.3719 363.116C54.2039 363.268 54.1199 363.536 54.1199 363.92V364.388H55.3439V365.504ZM59.3283 365.504H58.1043V371H56.7243V365.504H55.9443V364.388H56.7243V363.92C56.7243 363.16 56.9243 362.608 57.3243 362.264C57.7323 361.912 58.3683 361.736 59.2323 361.736V362.876C58.8163 362.876 58.5243 362.956 58.3563 363.116C58.1883 363.268 58.1043 363.536 58.1043 363.92V364.388H59.3283V365.504ZM61.2366 363.512C60.9886 363.512 60.7806 363.428 60.6126 363.26C60.4446 363.092 60.3606 362.884 60.3606 362.636C60.3606 362.388 60.4446 362.18 60.6126 362.012C60.7806 361.844 60.9886 361.76 61.2366 361.76C61.4766 361.76 61.6806 361.844 61.8486 362.012C62.0166 362.18 62.1006 362.388 62.1006 362.636C62.1006 362.884 62.0166 363.092 61.8486 363.26C61.6806 363.428 61.4766 363.512 61.2366 363.512ZM61.9086 364.388V371H60.5406V364.388H61.9086ZM63.2487 367.688C63.2487 367.008 63.3847 366.412 63.6567 365.9C63.9367 365.38 64.3207 364.98 64.8087 364.7C65.2967 364.42 65.8567 364.28 66.4887 364.28C67.2887 364.28 67.9487 364.472 68.4687 364.856C68.9967 365.232 69.3527 365.772 69.5367 366.476H68.0607C67.9407 366.148 67.7487 365.892 67.4847 365.708C67.2207 365.524 66.8887 365.432 66.4887 365.432C65.9287 365.432 65.4807 365.632 65.1447 366.032C64.8167 366.424 64.6527 366.976 64.6527 367.688C64.6527 368.4 64.8167 368.956 65.1447 369.356C65.4807 369.756 65.9287 369.956 66.4887 369.956C67.2807 369.956 67.8047 369.608 68.0607 368.912H69.5367C69.3447 369.584 68.9847 370.12 68.4567 370.52C67.9287 370.912 67.2727 371.108 66.4887 371.108C65.8567 371.108 65.2967 370.968 64.8087 370.688C64.3207 370.4 63.9367 370 63.6567 369.488C63.3847 368.968 63.2487 368.368 63.2487 367.688ZM76.888 364.388V371H75.52V370.22C75.304 370.492 75.02 370.708 74.668 370.868C74.324 371.02 73.956 371.096 73.564 371.096C73.044 371.096 72.576 370.988 72.16 370.772C71.752 370.556 71.428 370.236 71.188 369.812C70.956 369.388 70.84 368.876 70.84 368.276V364.388H72.196V368.072C72.196 368.664 72.344 369.12 72.64 369.44C72.936 369.752 73.34 369.908 73.852 369.908C74.364 369.908 74.768 369.752 75.064 369.44C75.368 369.12 75.52 368.664 75.52 368.072V364.388H76.888ZM80.061 362.12V371H78.693V362.12H80.061ZM83.453 365.504V369.164C83.453 369.412 83.509 369.592 83.621 369.704C83.741 369.808 83.941 369.86 84.221 369.86H85.061V371H83.981C83.365 371 82.893 370.856 82.565 370.568C82.237 370.28 82.073 369.812 82.073 369.164V365.504H81.293V364.388H82.073V362.744H83.453V364.388H85.061V365.504H83.453ZM92.2739 364.388L88.2179 374.108H86.8019L88.1459 370.892L85.5419 364.388H87.0659L88.9259 369.428L90.8579 364.388H92.2739ZM93.8583 371.084C93.6103 371.084 93.4023 371 93.2343 370.832C93.0663 370.664 92.9823 370.456 92.9823 370.208C92.9823 369.96 93.0663 369.752 93.2343 369.584C93.4023 369.416 93.6103 369.332 93.8583 369.332C94.0983 369.332 94.3023 369.416 94.4703 369.584C94.6383 369.752 94.7223 369.96 94.7223 370.208C94.7223 370.456 94.6383 370.664 94.4703 370.832C94.3023 371 94.0983 371.084 93.8583 371.084ZM93.8583 366.044C93.6103 366.044 93.4023 365.96 93.2343 365.792C93.0663 365.624 92.9823 365.416 92.9823 365.168C92.9823 364.92 93.0663 364.712 93.2343 364.544C93.4023 364.376 93.6103 364.292 93.8583 364.292C94.0983 364.292 94.3023 364.376 94.4703 364.544C94.6383 364.712 94.7223 364.92 94.7223 365.168C94.7223 365.416 94.6383 365.624 94.4703 365.792C94.3023 365.96 94.0983 366.044 93.8583 366.044ZM108.149 362.66V371H106.781V365.288L104.237 371H103.289L100.733 365.288V371H99.3648V362.66H100.841L103.769 369.2L106.685 362.66H108.149ZM116.007 367.532C116.007 367.78 115.991 368.004 115.959 368.204H110.907C110.947 368.732 111.143 369.156 111.495 369.476C111.847 369.796 112.279 369.956 112.791 369.956C113.527 369.956 114.047 369.648 114.351 369.032H115.827C115.627 369.64 115.263 370.14 114.735 370.532C114.215 370.916 113.567 371.108 112.791 371.108C112.159 371.108 111.591 370.968 111.087 370.688C110.591 370.4 110.199 370 109.911 369.488C109.631 368.968 109.491 368.368 109.491 367.688C109.491 367.008 109.627 366.412 109.899 365.9C110.179 365.38 110.567 364.98 111.063 364.7C111.567 364.42 112.143 364.28 112.791 364.28C113.415 364.28 113.971 364.416 114.459 364.688C114.947 364.96 115.327 365.344 115.599 365.84C115.871 366.328 116.007 366.892 116.007 367.532ZM114.579 367.1C114.571 366.596 114.391 366.192 114.039 365.888C113.687 365.584 113.251 365.432 112.731 365.432C112.259 365.432 111.855 365.584 111.519 365.888C111.183 366.184 110.983 366.588 110.919 367.1H114.579ZM116.897 367.664C116.897 367 117.033 366.412 117.305 365.9C117.585 365.388 117.961 364.992 118.433 364.712C118.913 364.424 119.445 364.28 120.029 364.28C120.461 364.28 120.885 364.376 121.301 364.568C121.725 364.752 122.061 365 122.309 365.312V362.12H123.689V371H122.309V370.004C122.085 370.324 121.773 370.588 121.373 370.796C120.981 371.004 120.529 371.108 120.017 371.108C119.441 371.108 118.913 370.964 118.433 370.676C117.961 370.38 117.585 369.972 117.305 369.452C117.033 368.924 116.897 368.328 116.897 367.664ZM122.309 367.688C122.309 367.232 122.213 366.836 122.021 366.5C121.837 366.164 121.593 365.908 121.289 365.732C120.985 365.556 120.657 365.468 120.305 365.468C119.953 365.468 119.625 365.556 119.321 365.732C119.017 365.9 118.769 366.152 118.577 366.488C118.393 366.816 118.301 367.208 118.301 367.664C118.301 368.12 118.393 368.52 118.577 368.864C118.769 369.208 119.017 369.472 119.321 369.656C119.633 369.832 119.961 369.92 120.305 369.92C120.657 369.92 120.985 369.832 121.289 369.656C121.593 369.48 121.837 369.224 122.021 368.888C122.213 368.544 122.309 368.144 122.309 367.688ZM126.182 363.512C125.934 363.512 125.726 363.428 125.558 363.26C125.39 363.092 125.306 362.884 125.306 362.636C125.306 362.388 125.39 362.18 125.558 362.012C125.726 361.844 125.934 361.76 126.182 361.76C126.422 361.76 126.626 361.844 126.794 362.012C126.962 362.18 127.046 362.388 127.046 362.636C127.046 362.884 126.962 363.092 126.794 363.26C126.626 363.428 126.422 363.512 126.182 363.512ZM126.854 364.388V371H125.486V364.388H126.854ZM134.638 364.388V371H133.27V370.22C133.054 370.492 132.77 370.708 132.418 370.868C132.074 371.02 131.706 371.096 131.314 371.096C130.794 371.096 130.326 370.988 129.91 370.772C129.502 370.556 129.178 370.236 128.938 369.812C128.706 369.388 128.59 368.876 128.59 368.276V364.388H129.946V368.072C129.946 368.664 130.094 369.12 130.39 369.44C130.686 369.752 131.09 369.908 131.602 369.908C132.114 369.908 132.518 369.752 132.814 369.44C133.118 369.12 133.27 368.664 133.27 368.072V364.388H134.638ZM144.447 364.28C144.967 364.28 145.431 364.388 145.839 364.604C146.255 364.82 146.579 365.14 146.811 365.564C147.051 365.988 147.171 366.5 147.171 367.1V371H145.815V367.304C145.815 366.712 145.667 366.26 145.371 365.948C145.075 365.628 144.671 365.468 144.159 365.468C143.647 365.468 143.239 365.628 142.935 365.948C142.639 366.26 142.491 366.712 142.491 367.304V371H141.135V367.304C141.135 366.712 140.987 366.26 140.691 365.948C140.395 365.628 139.991 365.468 139.479 365.468C138.967 365.468 138.559 365.628 138.255 365.948C137.959 366.26 137.811 366.712 137.811 367.304V371H136.443V364.388H137.811V365.144C138.035 364.872 138.319 364.66 138.663 364.508C139.007 364.356 139.375 364.28 139.767 364.28C140.295 364.28 140.767 364.392 141.183 364.616C141.599 364.84 141.919 365.164 142.143 365.588C142.343 365.188 142.655 364.872 143.079 364.64C143.503 364.4 143.959 364.28 144.447 364.28Z" fill="#FF814B"/>
</svg>
