<svg width="400" height="400" viewBox="0 0 400 400" fill="none" xmlns="http://www.w3.org/2000/svg">
<rect width="400" height="400" fill="#4BFF68"/>
<path d="M146.917 109.333C149.916 109.333 152.849 110.223 155.343 111.889C157.837 113.556 159.781 115.925 160.929 118.696C162.077 121.467 162.377 124.517 161.792 127.459C161.207 130.401 159.762 133.103 157.641 135.224C155.52 137.346 152.818 138.79 149.875 139.375C146.933 139.96 143.884 139.66 141.113 138.512C138.341 137.364 135.973 135.42 134.306 132.926C132.639 130.432 131.75 127.5 131.75 124.5C131.75 120.478 133.348 116.62 136.192 113.776C139.036 110.931 142.894 109.333 146.917 109.333ZM146.917 94.1667C140.917 94.1667 135.053 95.9457 130.064 99.2788C125.076 102.612 121.188 107.349 118.892 112.892C116.596 118.435 115.996 124.534 117.166 130.418C118.337 136.302 121.226 141.707 125.468 145.949C129.71 150.191 135.115 153.08 140.999 154.25C146.883 155.421 152.982 154.82 158.525 152.524C164.067 150.228 168.805 146.341 172.138 141.352C175.471 136.364 177.25 130.499 177.25 124.5C177.25 116.455 174.054 108.74 168.366 103.051C162.677 97.3625 154.961 94.1667 146.917 94.1667Z" fill="white"/>
<path d="M253.083 109.333C256.083 109.333 259.015 110.223 261.51 111.889C264.004 113.556 265.948 115.925 267.096 118.696C268.243 121.467 268.544 124.517 267.959 127.459C267.373 130.401 265.929 133.103 263.808 135.224C261.687 137.346 258.984 138.79 256.042 139.375C253.1 139.96 250.051 139.66 247.279 138.512C244.508 137.364 242.139 135.42 240.473 132.926C238.806 130.432 237.917 127.5 237.917 124.5C237.917 120.478 239.515 116.62 242.359 113.776C245.203 110.931 249.061 109.333 253.083 109.333ZM253.083 94.1667C247.084 94.1667 241.219 95.9457 236.231 99.2788C231.243 102.612 227.355 107.349 225.059 112.892C222.763 118.435 222.162 124.534 223.333 130.418C224.503 136.302 227.392 141.707 231.634 145.949C235.877 150.191 241.282 153.08 247.166 154.25C253.05 155.421 259.149 154.82 264.691 152.524C270.234 150.228 274.972 146.341 278.305 141.352C281.638 136.364 283.417 130.499 283.417 124.5C283.417 116.455 280.221 108.74 274.532 103.051C268.844 97.3625 261.128 94.1667 253.083 94.1667Z" fill="white"/>
<path d="M230.333 188.958C238.709 188.958 245.5 182.168 245.5 173.792C245.5 165.415 238.709 158.625 230.333 158.625C221.957 158.625 215.167 165.415 215.167 173.792C215.167 182.168 221.957 188.958 230.333 188.958Z" fill="white"/>
<path d="M169.667 188.958C178.043 188.958 184.833 182.168 184.833 173.792C184.833 165.415 178.043 158.625 169.667 158.625C161.29 158.625 154.5 165.415 154.5 173.792C154.5 182.168 161.29 188.958 169.667 188.958Z" fill="white"/>
<path d="M200 139.667C208.376 139.667 215.167 132.876 215.167 124.5C215.167 116.124 208.376 109.333 200 109.333C191.624 109.333 184.833 116.124 184.833 124.5C184.833 132.876 191.624 139.667 200 139.667Z" fill="white"/>
<path d="M200 204.125C203 204.125 205.932 205.015 208.426 206.681C210.92 208.348 212.864 210.716 214.012 213.488C215.16 216.259 215.46 219.308 214.875 222.251C214.29 225.193 212.845 227.895 210.724 230.016C208.603 232.137 205.901 233.582 202.959 234.167C200.017 234.752 196.967 234.452 194.196 233.304C191.424 232.156 189.056 230.212 187.389 227.718C185.723 225.224 184.833 222.291 184.833 219.292C184.833 215.269 186.431 211.412 189.275 208.567C192.12 205.723 195.977 204.125 200 204.125ZM200 188.958C194 188.958 188.136 190.737 183.148 194.07C178.159 197.403 174.271 202.141 171.976 207.684C169.68 213.226 169.079 219.325 170.249 225.209C171.42 231.093 174.309 236.498 178.551 240.741C182.793 244.983 188.198 247.872 194.082 249.042C199.966 250.213 206.065 249.612 211.608 247.316C217.151 245.02 221.888 241.132 225.221 236.144C228.554 231.156 230.333 225.291 230.333 219.292C230.333 211.247 227.137 203.531 221.449 197.843C215.76 192.154 208.045 188.958 200 188.958Z" fill="white"/>
<path d="M59.536 311.32V328H56.8V311.32H59.536ZM76.8321 328H74.0961L65.8641 315.544V328H63.1281V311.296H65.8641L74.0961 323.728V311.296H76.8321V328ZM91.201 311.32V313.552H86.761V328H84.025V313.552H79.561V311.32H91.201ZM102.636 328L98.7959 321.328H96.7079V328H93.9719V311.32H99.7319C101.012 311.32 102.092 311.544 102.972 311.992C103.868 312.44 104.532 313.04 104.964 313.792C105.412 314.544 105.636 315.384 105.636 316.312C105.636 317.4 105.316 318.392 104.676 319.288C104.052 320.168 103.084 320.768 101.772 321.088L105.9 328H102.636ZM96.7079 319.144H99.7319C100.756 319.144 101.524 318.888 102.036 318.376C102.564 317.864 102.828 317.176 102.828 316.312C102.828 315.448 102.572 314.776 102.06 314.296C101.548 313.8 100.772 313.552 99.7319 313.552H96.7079V319.144ZM116.744 328.168C115.192 328.168 113.76 327.808 112.448 327.088C111.152 326.352 110.12 325.336 109.352 324.04C108.6 322.728 108.224 321.256 108.224 319.624C108.224 317.992 108.6 316.528 109.352 315.232C110.12 313.936 111.152 312.928 112.448 312.208C113.76 311.472 115.192 311.104 116.744 311.104C118.312 311.104 119.744 311.472 121.04 312.208C122.352 312.928 123.384 313.936 124.136 315.232C124.888 316.528 125.264 317.992 125.264 319.624C125.264 321.256 124.888 322.728 124.136 324.04C123.384 325.336 122.352 326.352 121.04 327.088C119.744 327.808 118.312 328.168 116.744 328.168ZM116.744 325.792C117.848 325.792 118.832 325.544 119.696 325.048C120.56 324.536 121.232 323.816 121.712 322.888C122.208 321.944 122.456 320.856 122.456 319.624C122.456 318.392 122.208 317.312 121.712 316.384C121.232 315.456 120.56 314.744 119.696 314.248C118.832 313.752 117.848 313.504 116.744 313.504C115.64 313.504 114.656 313.752 113.792 314.248C112.928 314.744 112.248 315.456 111.752 316.384C111.272 317.312 111.032 318.392 111.032 319.624C111.032 320.856 111.272 321.944 111.752 322.888C112.248 323.816 112.928 324.536 113.792 325.048C114.656 325.544 115.64 325.792 116.744 325.792ZM133.404 311.32C135.18 311.32 136.732 311.664 138.06 312.352C139.404 313.024 140.436 314 141.156 315.28C141.892 316.544 142.26 318.024 142.26 319.72C142.26 321.416 141.892 322.888 141.156 324.136C140.436 325.384 139.404 326.344 138.06 327.016C136.732 327.672 135.18 328 133.404 328H127.956V311.32H133.404ZM133.404 325.768C135.356 325.768 136.852 325.24 137.892 324.184C138.932 323.128 139.452 321.64 139.452 319.72C139.452 317.784 138.932 316.272 137.892 315.184C136.852 314.096 135.356 313.552 133.404 313.552H130.692V325.768H133.404ZM147.684 311.32V321.952C147.684 323.216 148.012 324.168 148.668 324.808C149.34 325.448 150.268 325.768 151.452 325.768C152.652 325.768 153.58 325.448 154.236 324.808C154.908 324.168 155.244 323.216 155.244 321.952V311.32H157.98V321.904C157.98 323.264 157.684 324.416 157.092 325.36C156.5 326.304 155.708 327.008 154.716 327.472C153.724 327.936 152.628 328.168 151.428 328.168C150.228 328.168 149.132 327.936 148.14 327.472C147.164 327.008 146.388 326.304 145.812 325.36C145.236 324.416 144.948 323.264 144.948 321.904V311.32H147.684ZM160.63 319.624C160.63 317.992 161.006 316.528 161.758 315.232C162.526 313.936 163.558 312.928 164.854 312.208C166.166 311.472 167.598 311.104 169.15 311.104C170.926 311.104 172.502 311.544 173.878 312.424C175.27 313.288 176.278 314.52 176.902 316.12H173.614C173.182 315.24 172.582 314.584 171.814 314.152C171.046 313.72 170.158 313.504 169.15 313.504C168.046 313.504 167.062 313.752 166.198 314.248C165.334 314.744 164.654 315.456 164.158 316.384C163.678 317.312 163.438 318.392 163.438 319.624C163.438 320.856 163.678 321.936 164.158 322.864C164.654 323.792 165.334 324.512 166.198 325.024C167.062 325.52 168.046 325.768 169.15 325.768C170.158 325.768 171.046 325.552 171.814 325.12C172.582 324.688 173.182 324.032 173.614 323.152H176.902C176.278 324.752 175.27 325.984 173.878 326.848C172.502 327.712 170.926 328.144 169.15 328.144C167.582 328.144 166.15 327.784 164.854 327.064C163.558 326.328 162.526 325.312 161.758 324.016C161.006 322.72 160.63 321.256 160.63 319.624ZM190.881 311.32V313.552H186.441V328H183.705V313.552H179.241V311.32H190.881ZM196.388 311.32V328H193.652V311.32H196.388ZM207.588 328.168C206.036 328.168 204.604 327.808 203.292 327.088C201.996 326.352 200.964 325.336 200.196 324.04C199.444 322.728 199.068 321.256 199.068 319.624C199.068 317.992 199.444 316.528 200.196 315.232C200.964 313.936 201.996 312.928 203.292 312.208C204.604 311.472 206.036 311.104 207.588 311.104C209.156 311.104 210.588 311.472 211.884 312.208C213.196 312.928 214.228 313.936 214.98 315.232C215.732 316.528 216.108 317.992 216.108 319.624C216.108 321.256 215.732 322.728 214.98 324.04C214.228 325.336 213.196 326.352 211.884 327.088C210.588 327.808 209.156 328.168 207.588 328.168ZM207.588 325.792C208.692 325.792 209.676 325.544 210.54 325.048C211.404 324.536 212.076 323.816 212.556 322.888C213.052 321.944 213.3 320.856 213.3 319.624C213.3 318.392 213.052 317.312 212.556 316.384C212.076 315.456 211.404 314.744 210.54 314.248C209.676 313.752 208.692 313.504 207.588 313.504C206.484 313.504 205.5 313.752 204.636 314.248C203.772 314.744 203.092 315.456 202.596 316.384C202.116 317.312 201.876 318.392 201.876 319.624C201.876 320.856 202.116 321.944 202.596 322.888C203.092 323.816 203.772 324.536 204.636 325.048C205.5 325.544 206.484 325.792 207.588 325.792ZM232.504 328H229.768L221.536 315.544V328H218.8V311.296H221.536L229.768 323.728V311.296H232.504V328ZM253.107 311.32V313.552H248.667V328H245.931V313.552H241.467V311.32H253.107ZM263.486 328.168C261.934 328.168 260.502 327.808 259.19 327.088C257.894 326.352 256.862 325.336 256.094 324.04C255.342 322.728 254.966 321.256 254.966 319.624C254.966 317.992 255.342 316.528 256.094 315.232C256.862 313.936 257.894 312.928 259.19 312.208C260.502 311.472 261.934 311.104 263.486 311.104C265.054 311.104 266.486 311.472 267.782 312.208C269.094 312.928 270.126 313.936 270.878 315.232C271.63 316.528 272.006 317.992 272.006 319.624C272.006 321.256 271.63 322.728 270.878 324.04C270.126 325.336 269.094 326.352 267.782 327.088C266.486 327.808 265.054 328.168 263.486 328.168ZM263.486 325.792C264.59 325.792 265.574 325.544 266.438 325.048C267.302 324.536 267.974 323.816 268.454 322.888C268.95 321.944 269.198 320.856 269.198 319.624C269.198 318.392 268.95 317.312 268.454 316.384C267.974 315.456 267.302 314.744 266.438 314.248C265.574 313.752 264.59 313.504 263.486 313.504C262.382 313.504 261.398 313.752 260.534 314.248C259.67 314.744 258.99 315.456 258.494 316.384C258.014 317.312 257.774 318.392 257.774 319.624C257.774 320.856 258.014 321.944 258.494 322.888C258.99 323.816 259.67 324.536 260.534 325.048C261.398 325.544 262.382 325.792 263.486 325.792ZM290.989 324.592H284.005L282.805 328H279.949L285.925 311.296H289.093L295.069 328H292.189L290.989 324.592ZM290.221 322.36L287.509 314.608L284.773 322.36H290.221ZM309.739 316.12C309.307 315.288 308.707 314.664 307.939 314.248C307.171 313.816 306.283 313.6 305.275 313.6C304.171 313.6 303.187 313.848 302.323 314.344C301.459 314.84 300.779 315.544 300.283 316.456C299.803 317.368 299.563 318.424 299.563 319.624C299.563 320.824 299.803 321.888 300.283 322.816C300.779 323.728 301.459 324.432 302.323 324.928C303.187 325.424 304.171 325.672 305.275 325.672C306.763 325.672 307.971 325.256 308.899 324.424C309.827 323.592 310.395 322.464 310.603 321.04H304.339V318.856H313.531V320.992C313.355 322.288 312.891 323.48 312.139 324.568C311.403 325.656 310.435 326.528 309.235 327.184C308.051 327.824 306.731 328.144 305.275 328.144C303.707 328.144 302.275 327.784 300.979 327.064C299.683 326.328 298.651 325.312 297.883 324.016C297.131 322.72 296.755 321.256 296.755 319.624C296.755 317.992 297.131 316.528 297.883 315.232C298.651 313.936 299.683 312.928 300.979 312.208C302.291 311.472 303.723 311.104 305.275 311.104C307.051 311.104 308.627 311.544 310.003 312.424C311.395 313.288 312.403 314.52 313.027 316.12H309.739ZM318.966 311.32V328H316.23V311.32H318.966ZM325.294 325.792H330.934V328H322.558V311.32H325.294V325.792ZM335.958 313.528V318.424H341.718V320.656H335.958V325.768H342.438V328H333.222V311.296H342.438V313.528H335.958Z" fill="white"/>
<rect x="226.533" y="353" width="154.933" height="28" rx="14" fill="white"/>
<path d="M257.624 362.66C258.512 362.66 259.288 362.832 259.952 363.176C260.624 363.512 261.14 364 261.5 364.64C261.868 365.272 262.052 366.012 262.052 366.86C262.052 367.708 261.868 368.444 261.5 369.068C261.14 369.692 260.624 370.172 259.952 370.508C259.288 370.836 258.512 371 257.624 371H254.9V362.66H257.624ZM257.624 369.884C258.6 369.884 259.348 369.62 259.868 369.092C260.388 368.564 260.648 367.82 260.648 366.86C260.648 365.892 260.388 365.136 259.868 364.592C259.348 364.048 258.6 363.776 257.624 363.776H256.268V369.884H257.624ZM269.396 364.388V371H268.028V370.22C267.812 370.492 267.528 370.708 267.176 370.868C266.832 371.02 266.464 371.096 266.072 371.096C265.552 371.096 265.084 370.988 264.668 370.772C264.26 370.556 263.936 370.236 263.696 369.812C263.464 369.388 263.348 368.876 263.348 368.276V364.388H264.704V368.072C264.704 368.664 264.852 369.12 265.148 369.44C265.444 369.752 265.848 369.908 266.36 369.908C266.872 369.908 267.276 369.752 267.572 369.44C267.876 369.12 268.028 368.664 268.028 368.072V364.388H269.396ZM272.569 365.348C272.769 365.012 273.033 364.752 273.361 364.568C273.697 364.376 274.093 364.28 274.549 364.28V365.696H274.201C273.665 365.696 273.257 365.832 272.977 366.104C272.705 366.376 272.569 366.848 272.569 367.52V371H271.201V364.388H272.569V365.348ZM275.35 367.664C275.35 367 275.486 366.412 275.758 365.9C276.038 365.388 276.414 364.992 276.886 364.712C277.366 364.424 277.894 364.28 278.47 364.28C278.99 364.28 279.442 364.384 279.826 364.592C280.218 364.792 280.53 365.044 280.762 365.348V364.388H282.142V371H280.762V370.016C280.53 370.328 280.214 370.588 279.814 370.796C279.414 371.004 278.958 371.108 278.446 371.108C277.878 371.108 277.358 370.964 276.886 370.676C276.414 370.38 276.038 369.972 275.758 369.452C275.486 368.924 275.35 368.328 275.35 367.664ZM280.762 367.688C280.762 367.232 280.666 366.836 280.474 366.5C280.29 366.164 280.046 365.908 279.742 365.732C279.438 365.556 279.11 365.468 278.758 365.468C278.406 365.468 278.078 365.556 277.774 365.732C277.47 365.9 277.222 366.152 277.03 366.488C276.846 366.816 276.754 367.208 276.754 367.664C276.754 368.12 276.846 368.52 277.03 368.864C277.222 369.208 277.47 369.472 277.774 369.656C278.086 369.832 278.414 369.92 278.758 369.92C279.11 369.92 279.438 369.832 279.742 369.656C280.046 369.48 280.29 369.224 280.474 368.888C280.666 368.544 280.762 368.144 280.762 367.688ZM285.535 365.504V369.164C285.535 369.412 285.591 369.592 285.703 369.704C285.823 369.808 286.023 369.86 286.303 369.86H287.143V371H286.063C285.447 371 284.975 370.856 284.647 370.568C284.319 370.28 284.155 369.812 284.155 369.164V365.504H283.375V364.388H284.155V362.744H285.535V364.388H287.143V365.504H285.535ZM289.1 363.512C288.852 363.512 288.644 363.428 288.476 363.26C288.308 363.092 288.224 362.884 288.224 362.636C288.224 362.388 288.308 362.18 288.476 362.012C288.644 361.844 288.852 361.76 289.1 361.76C289.34 361.76 289.544 361.844 289.712 362.012C289.88 362.18 289.964 362.388 289.964 362.636C289.964 362.884 289.88 363.092 289.712 363.26C289.544 363.428 289.34 363.512 289.1 363.512ZM289.772 364.388V371H288.404V364.388H289.772ZM294.436 371.108C293.812 371.108 293.248 370.968 292.744 370.688C292.24 370.4 291.844 370 291.556 369.488C291.268 368.968 291.124 368.368 291.124 367.688C291.124 367.016 291.272 366.42 291.568 365.9C291.864 365.38 292.268 364.98 292.78 364.7C293.292 364.42 293.864 364.28 294.496 364.28C295.128 364.28 295.7 364.42 296.212 364.7C296.724 364.98 297.128 365.38 297.424 365.9C297.72 366.42 297.868 367.016 297.868 367.688C297.868 368.36 297.716 368.956 297.412 369.476C297.108 369.996 296.692 370.4 296.164 370.688C295.644 370.968 295.068 371.108 294.436 371.108ZM294.436 369.92C294.788 369.92 295.116 369.836 295.42 369.668C295.732 369.5 295.984 369.248 296.176 368.912C296.368 368.576 296.464 368.168 296.464 367.688C296.464 367.208 296.372 366.804 296.188 366.476C296.004 366.14 295.76 365.888 295.456 365.72C295.152 365.552 294.824 365.468 294.472 365.468C294.12 365.468 293.792 365.552 293.488 365.72C293.192 365.888 292.956 366.14 292.78 366.476C292.604 366.804 292.516 367.208 292.516 367.688C292.516 368.4 292.696 368.952 293.056 369.344C293.424 369.728 293.884 369.92 294.436 369.92ZM302.556 364.28C303.076 364.28 303.54 364.388 303.948 364.604C304.364 364.82 304.688 365.14 304.92 365.564C305.152 365.988 305.268 366.5 305.268 367.1V371H303.912V367.304C303.912 366.712 303.764 366.26 303.468 365.948C303.172 365.628 302.768 365.468 302.256 365.468C301.744 365.468 301.336 365.628 301.032 365.948C300.736 366.26 300.588 366.712 300.588 367.304V371H299.22V364.388H300.588V365.144C300.812 364.872 301.096 364.66 301.44 364.508C301.792 364.356 302.164 364.28 302.556 364.28ZM307.565 371.084C307.317 371.084 307.109 371 306.941 370.832C306.773 370.664 306.689 370.456 306.689 370.208C306.689 369.96 306.773 369.752 306.941 369.584C307.109 369.416 307.317 369.332 307.565 369.332C307.805 369.332 308.009 369.416 308.177 369.584C308.345 369.752 308.429 369.96 308.429 370.208C308.429 370.456 308.345 370.664 308.177 370.832C308.009 371 307.805 371.084 307.565 371.084ZM307.565 366.044C307.317 366.044 307.109 365.96 306.941 365.792C306.773 365.624 306.689 365.416 306.689 365.168C306.689 364.92 306.773 364.712 306.941 364.544C307.109 364.376 307.317 364.292 307.565 364.292C307.805 364.292 308.009 364.376 308.177 364.544C308.345 364.712 308.429 364.92 308.429 365.168C308.429 365.416 308.345 365.624 308.177 365.792C308.009 365.96 307.805 366.044 307.565 366.044ZM313.648 369.14C314.416 368.476 315.02 367.932 315.46 367.508C315.908 367.076 316.28 366.628 316.576 366.164C316.872 365.7 317.02 365.236 317.02 364.772C317.02 364.292 316.904 363.916 316.672 363.644C316.448 363.372 316.092 363.236 315.604 363.236C315.132 363.236 314.764 363.388 314.5 363.692C314.244 363.988 314.108 364.388 314.092 364.892H312.772C312.796 363.98 313.068 363.284 313.588 362.804C314.116 362.316 314.784 362.072 315.592 362.072C316.464 362.072 317.144 362.312 317.632 362.792C318.128 363.272 318.376 363.912 318.376 364.712C318.376 365.288 318.228 365.844 317.932 366.38C317.644 366.908 317.296 367.384 316.888 367.808C316.488 368.224 315.976 368.708 315.352 369.26L314.812 369.74H318.616V370.88H312.784V369.884L313.648 369.14ZM333.975 362.66L331.503 371H329.955L328.203 364.688L326.343 371L324.807 371.012L322.443 362.66H323.895L325.623 369.452L327.495 362.66H329.031L330.771 369.416L332.511 362.66H333.975ZM341.163 367.532C341.163 367.78 341.147 368.004 341.115 368.204H336.063C336.103 368.732 336.299 369.156 336.651 369.476C337.003 369.796 337.435 369.956 337.947 369.956C338.683 369.956 339.203 369.648 339.507 369.032H340.983C340.783 369.64 340.419 370.14 339.891 370.532C339.371 370.916 338.723 371.108 337.947 371.108C337.315 371.108 336.747 370.968 336.243 370.688C335.747 370.4 335.355 370 335.067 369.488C334.787 368.968 334.647 368.368 334.647 367.688C334.647 367.008 334.783 366.412 335.055 365.9C335.335 365.38 335.723 364.98 336.219 364.7C336.723 364.42 337.299 364.28 337.947 364.28C338.571 364.28 339.127 364.416 339.615 364.688C340.103 364.96 340.483 365.344 340.755 365.84C341.027 366.328 341.163 366.892 341.163 367.532ZM339.735 367.1C339.727 366.596 339.547 366.192 339.195 365.888C338.843 365.584 338.407 365.432 337.887 365.432C337.415 365.432 337.011 365.584 336.675 365.888C336.339 366.184 336.139 366.588 336.075 367.1H339.735ZM348.569 367.532C348.569 367.78 348.553 368.004 348.521 368.204H343.469C343.509 368.732 343.705 369.156 344.057 369.476C344.409 369.796 344.841 369.956 345.353 369.956C346.089 369.956 346.609 369.648 346.913 369.032H348.389C348.189 369.64 347.825 370.14 347.297 370.532C346.777 370.916 346.129 371.108 345.353 371.108C344.721 371.108 344.153 370.968 343.649 370.688C343.153 370.4 342.761 370 342.473 369.488C342.193 368.968 342.053 368.368 342.053 367.688C342.053 367.008 342.189 366.412 342.461 365.9C342.741 365.38 343.129 364.98 343.625 364.7C344.129 364.42 344.705 364.28 345.353 364.28C345.977 364.28 346.533 364.416 347.021 364.688C347.509 364.96 347.889 365.344 348.161 365.84C348.433 366.328 348.569 366.892 348.569 367.532ZM347.141 367.1C347.133 366.596 346.953 366.192 346.601 365.888C346.249 365.584 345.813 365.432 345.293 365.432C344.821 365.432 344.417 365.584 344.081 365.888C343.745 366.184 343.545 366.588 343.481 367.1H347.141ZM352.532 367.7L355.58 371H353.732L351.284 368.156V371H349.916V362.12H351.284V367.28L353.684 364.388H355.58L352.532 367.7Z" fill="#30B145"/>
<rect x="18" y="353" width="154.933" height="28" rx="14" fill="white"/>
<path d="M43.624 362.66C44.512 362.66 45.288 362.832 45.952 363.176C46.624 363.512 47.14 364 47.5 364.64C47.868 365.272 48.052 366.012 48.052 366.86C48.052 367.708 47.868 368.444 47.5 369.068C47.14 369.692 46.624 370.172 45.952 370.508C45.288 370.836 44.512 371 43.624 371H40.9V362.66H43.624ZM43.624 369.884C44.6 369.884 45.348 369.62 45.868 369.092C46.388 368.564 46.648 367.82 46.648 366.86C46.648 365.892 46.388 365.136 45.868 364.592C45.348 364.048 44.6 363.776 43.624 363.776H42.268V369.884H43.624ZM50.1038 363.512C49.8558 363.512 49.6478 363.428 49.4798 363.26C49.3118 363.092 49.2278 362.884 49.2278 362.636C49.2278 362.388 49.3118 362.18 49.4798 362.012C49.6478 361.844 49.8558 361.76 50.1038 361.76C50.3438 361.76 50.5478 361.844 50.7158 362.012C50.8838 362.18 50.9678 362.388 50.9678 362.636C50.9678 362.884 50.8838 363.092 50.7158 363.26C50.5478 363.428 50.3438 363.512 50.1038 363.512ZM50.7758 364.388V371H49.4078V364.388H50.7758ZM55.3439 365.504H54.1199V371H52.7399V365.504H51.9599V364.388H52.7399V363.92C52.7399 363.16 52.9399 362.608 53.3399 362.264C53.7479 361.912 54.3839 361.736 55.2479 361.736V362.876C54.8319 362.876 54.5399 362.956 54.3719 363.116C54.2039 363.268 54.1199 363.536 54.1199 363.92V364.388H55.3439V365.504ZM59.3283 365.504H58.1043V371H56.7243V365.504H55.9443V364.388H56.7243V363.92C56.7243 363.16 56.9243 362.608 57.3243 362.264C57.7323 361.912 58.3683 361.736 59.2323 361.736V362.876C58.8163 362.876 58.5243 362.956 58.3563 363.116C58.1883 363.268 58.1043 363.536 58.1043 363.92V364.388H59.3283V365.504ZM61.2366 363.512C60.9886 363.512 60.7806 363.428 60.6126 363.26C60.4446 363.092 60.3606 362.884 60.3606 362.636C60.3606 362.388 60.4446 362.18 60.6126 362.012C60.7806 361.844 60.9886 361.76 61.2366 361.76C61.4766 361.76 61.6806 361.844 61.8486 362.012C62.0166 362.18 62.1006 362.388 62.1006 362.636C62.1006 362.884 62.0166 363.092 61.8486 363.26C61.6806 363.428 61.4766 363.512 61.2366 363.512ZM61.9086 364.388V371H60.5406V364.388H61.9086ZM63.2487 367.688C63.2487 367.008 63.3847 366.412 63.6567 365.9C63.9367 365.38 64.3207 364.98 64.8087 364.7C65.2967 364.42 65.8567 364.28 66.4887 364.28C67.2887 364.28 67.9487 364.472 68.4687 364.856C68.9967 365.232 69.3527 365.772 69.5367 366.476H68.0607C67.9407 366.148 67.7487 365.892 67.4847 365.708C67.2207 365.524 66.8887 365.432 66.4887 365.432C65.9287 365.432 65.4807 365.632 65.1447 366.032C64.8167 366.424 64.6527 366.976 64.6527 367.688C64.6527 368.4 64.8167 368.956 65.1447 369.356C65.4807 369.756 65.9287 369.956 66.4887 369.956C67.2807 369.956 67.8047 369.608 68.0607 368.912H69.5367C69.3447 369.584 68.9847 370.12 68.4567 370.52C67.9287 370.912 67.2727 371.108 66.4887 371.108C65.8567 371.108 65.2967 370.968 64.8087 370.688C64.3207 370.4 63.9367 370 63.6567 369.488C63.3847 368.968 63.2487 368.368 63.2487 367.688ZM76.888 364.388V371H75.52V370.22C75.304 370.492 75.02 370.708 74.668 370.868C74.324 371.02 73.956 371.096 73.564 371.096C73.044 371.096 72.576 370.988 72.16 370.772C71.752 370.556 71.428 370.236 71.188 369.812C70.956 369.388 70.84 368.876 70.84 368.276V364.388H72.196V368.072C72.196 368.664 72.344 369.12 72.64 369.44C72.936 369.752 73.34 369.908 73.852 369.908C74.364 369.908 74.768 369.752 75.064 369.44C75.368 369.12 75.52 368.664 75.52 368.072V364.388H76.888ZM80.061 362.12V371H78.693V362.12H80.061ZM83.453 365.504V369.164C83.453 369.412 83.509 369.592 83.621 369.704C83.741 369.808 83.941 369.86 84.221 369.86H85.061V371H83.981C83.365 371 82.893 370.856 82.565 370.568C82.237 370.28 82.073 369.812 82.073 369.164V365.504H81.293V364.388H82.073V362.744H83.453V364.388H85.061V365.504H83.453ZM92.2739 364.388L88.2179 374.108H86.8019L88.1459 370.892L85.5419 364.388H87.0659L88.9259 369.428L90.8579 364.388H92.2739ZM93.8583 371.084C93.6103 371.084 93.4023 371 93.2343 370.832C93.0663 370.664 92.9823 370.456 92.9823 370.208C92.9823 369.96 93.0663 369.752 93.2343 369.584C93.4023 369.416 93.6103 369.332 93.8583 369.332C94.0983 369.332 94.3023 369.416 94.4703 369.584C94.6383 369.752 94.7223 369.96 94.7223 370.208C94.7223 370.456 94.6383 370.664 94.4703 370.832C94.3023 371 94.0983 371.084 93.8583 371.084ZM93.8583 366.044C93.6103 366.044 93.4023 365.96 93.2343 365.792C93.0663 365.624 92.9823 365.416 92.9823 365.168C92.9823 364.92 93.0663 364.712 93.2343 364.544C93.4023 364.376 93.6103 364.292 93.8583 364.292C94.0983 364.292 94.3023 364.376 94.4703 364.544C94.6383 364.712 94.7223 364.92 94.7223 365.168C94.7223 365.416 94.6383 365.624 94.4703 365.792C94.3023 365.96 94.0983 366.044 93.8583 366.044ZM108.149 362.66V371H106.781V365.288L104.237 371H103.289L100.733 365.288V371H99.3648V362.66H100.841L103.769 369.2L106.685 362.66H108.149ZM116.007 367.532C116.007 367.78 115.991 368.004 115.959 368.204H110.907C110.947 368.732 111.143 369.156 111.495 369.476C111.847 369.796 112.279 369.956 112.791 369.956C113.527 369.956 114.047 369.648 114.351 369.032H115.827C115.627 369.64 115.263 370.14 114.735 370.532C114.215 370.916 113.567 371.108 112.791 371.108C112.159 371.108 111.591 370.968 111.087 370.688C110.591 370.4 110.199 370 109.911 369.488C109.631 368.968 109.491 368.368 109.491 367.688C109.491 367.008 109.627 366.412 109.899 365.9C110.179 365.38 110.567 364.98 111.063 364.7C111.567 364.42 112.143 364.28 112.791 364.28C113.415 364.28 113.971 364.416 114.459 364.688C114.947 364.96 115.327 365.344 115.599 365.84C115.871 366.328 116.007 366.892 116.007 367.532ZM114.579 367.1C114.571 366.596 114.391 366.192 114.039 365.888C113.687 365.584 113.251 365.432 112.731 365.432C112.259 365.432 111.855 365.584 111.519 365.888C111.183 366.184 110.983 366.588 110.919 367.1H114.579ZM116.897 367.664C116.897 367 117.033 366.412 117.305 365.9C117.585 365.388 117.961 364.992 118.433 364.712C118.913 364.424 119.445 364.28 120.029 364.28C120.461 364.28 120.885 364.376 121.301 364.568C121.725 364.752 122.061 365 122.309 365.312V362.12H123.689V371H122.309V370.004C122.085 370.324 121.773 370.588 121.373 370.796C120.981 371.004 120.529 371.108 120.017 371.108C119.441 371.108 118.913 370.964 118.433 370.676C117.961 370.38 117.585 369.972 117.305 369.452C117.033 368.924 116.897 368.328 116.897 367.664ZM122.309 367.688C122.309 367.232 122.213 366.836 122.021 366.5C121.837 366.164 121.593 365.908 121.289 365.732C120.985 365.556 120.657 365.468 120.305 365.468C119.953 365.468 119.625 365.556 119.321 365.732C119.017 365.9 118.769 366.152 118.577 366.488C118.393 366.816 118.301 367.208 118.301 367.664C118.301 368.12 118.393 368.52 118.577 368.864C118.769 369.208 119.017 369.472 119.321 369.656C119.633 369.832 119.961 369.92 120.305 369.92C120.657 369.92 120.985 369.832 121.289 369.656C121.593 369.48 121.837 369.224 122.021 368.888C122.213 368.544 122.309 368.144 122.309 367.688ZM126.182 363.512C125.934 363.512 125.726 363.428 125.558 363.26C125.39 363.092 125.306 362.884 125.306 362.636C125.306 362.388 125.39 362.18 125.558 362.012C125.726 361.844 125.934 361.76 126.182 361.76C126.422 361.76 126.626 361.844 126.794 362.012C126.962 362.18 127.046 362.388 127.046 362.636C127.046 362.884 126.962 363.092 126.794 363.26C126.626 363.428 126.422 363.512 126.182 363.512ZM126.854 364.388V371H125.486V364.388H126.854ZM134.638 364.388V371H133.27V370.22C133.054 370.492 132.77 370.708 132.418 370.868C132.074 371.02 131.706 371.096 131.314 371.096C130.794 371.096 130.326 370.988 129.91 370.772C129.502 370.556 129.178 370.236 128.938 369.812C128.706 369.388 128.59 368.876 128.59 368.276V364.388H129.946V368.072C129.946 368.664 130.094 369.12 130.39 369.44C130.686 369.752 131.09 369.908 131.602 369.908C132.114 369.908 132.518 369.752 132.814 369.44C133.118 369.12 133.27 368.664 133.27 368.072V364.388H134.638ZM144.447 364.28C144.967 364.28 145.431 364.388 145.839 364.604C146.255 364.82 146.579 365.14 146.811 365.564C147.051 365.988 147.171 366.5 147.171 367.1V371H145.815V367.304C145.815 366.712 145.667 366.26 145.371 365.948C145.075 365.628 144.671 365.468 144.159 365.468C143.647 365.468 143.239 365.628 142.935 365.948C142.639 366.26 142.491 366.712 142.491 367.304V371H141.135V367.304C141.135 366.712 140.987 366.26 140.691 365.948C140.395 365.628 139.991 365.468 139.479 365.468C138.967 365.468 138.559 365.628 138.255 365.948C137.959 366.26 137.811 366.712 137.811 367.304V371H136.443V364.388H137.811V365.144C138.035 364.872 138.319 364.66 138.663 364.508C139.007 364.356 139.375 364.28 139.767 364.28C140.295 364.28 140.767 364.392 141.183 364.616C141.599 364.84 141.919 365.164 142.143 365.588C142.343 365.188 142.655 364.872 143.079 364.64C143.503 364.4 143.959 364.28 144.447 364.28Z" fill="#30B145"/>
</svg>
