<svg width="400" height="400" viewBox="0 0 400 400" fill="none" xmlns="http://www.w3.org/2000/svg">
<rect width="400" height="400" fill="#FF8C4B"/>
<path d="M87.576 311.32V313.552H83.136V328H80.4V313.552H75.936V311.32H87.576ZM103.667 311.32V328H100.931V320.704H93.0829V328H90.3469V311.32H93.0829V318.472H100.931V311.32H103.667ZM110.005 313.528V318.424H115.765V320.656H110.005V325.768H116.485V328H107.269V311.296H116.485V313.528H110.005ZM136.145 324.592H129.161L127.961 328H125.105L131.081 311.296H134.249L140.225 328H137.345L136.145 324.592ZM135.377 322.36L132.665 314.608L129.929 322.36H135.377ZM154.895 316.12C154.463 315.288 153.863 314.664 153.095 314.248C152.327 313.816 151.439 313.6 150.431 313.6C149.327 313.6 148.343 313.848 147.479 314.344C146.615 314.84 145.935 315.544 145.439 316.456C144.959 317.368 144.719 318.424 144.719 319.624C144.719 320.824 144.959 321.888 145.439 322.816C145.935 323.728 146.615 324.432 147.479 324.928C148.343 325.424 149.327 325.672 150.431 325.672C151.919 325.672 153.127 325.256 154.055 324.424C154.983 323.592 155.551 322.464 155.759 321.04H149.495V318.856H158.687V320.992C158.511 322.288 158.047 323.48 157.295 324.568C156.559 325.656 155.591 326.528 154.391 327.184C153.207 327.824 151.887 328.144 150.431 328.144C148.863 328.144 147.431 327.784 146.135 327.064C144.839 326.328 143.807 325.312 143.039 324.016C142.287 322.72 141.911 321.256 141.911 319.624C141.911 317.992 142.287 316.528 143.039 315.232C143.807 313.936 144.839 312.928 146.135 312.208C147.447 311.472 148.879 311.104 150.431 311.104C152.207 311.104 153.783 311.544 155.159 312.424C156.551 313.288 157.559 314.52 158.183 316.12H154.895ZM164.122 311.32V328H161.386V311.32H164.122ZM170.45 325.792H176.09V328H167.714V311.32H170.45V325.792ZM181.114 313.528V318.424H186.874V320.656H181.114V325.768H187.594V328H178.378V311.296H187.594V313.528H181.114ZM208.862 316.288C208.862 317.136 208.662 317.936 208.262 318.688C207.862 319.44 207.222 320.056 206.342 320.536C205.462 321 204.334 321.232 202.958 321.232H199.934V328H197.198V311.32H202.958C204.238 311.32 205.318 311.544 206.198 311.992C207.094 312.424 207.758 313.016 208.19 313.768C208.638 314.52 208.862 315.36 208.862 316.288ZM202.958 319C203.998 319 204.774 318.768 205.286 318.304C205.798 317.824 206.054 317.152 206.054 316.288C206.054 314.464 205.022 313.552 202.958 313.552H199.934V319H202.958ZM220.136 328L216.296 321.328H214.208V328H211.472V311.32H217.232C218.512 311.32 219.592 311.544 220.472 311.992C221.368 312.44 222.032 313.04 222.464 313.792C222.912 314.544 223.136 315.384 223.136 316.312C223.136 317.4 222.816 318.392 222.176 319.288C221.552 320.168 220.584 320.768 219.272 321.088L223.4 328H220.136ZM214.208 319.144H217.232C218.256 319.144 219.024 318.888 219.536 318.376C220.064 317.864 220.328 317.176 220.328 316.312C220.328 315.448 220.072 314.776 219.56 314.296C219.048 313.8 218.272 313.552 217.232 313.552H214.208V319.144ZM229.372 311.32V328H226.636V311.32H229.372ZM246.668 328H243.932L235.7 315.544V328H232.964V311.296H235.7L243.932 323.728V311.296H246.668V328ZM249.349 319.624C249.349 317.992 249.725 316.528 250.477 315.232C251.245 313.936 252.277 312.928 253.573 312.208C254.885 311.472 256.317 311.104 257.869 311.104C259.645 311.104 261.221 311.544 262.597 312.424C263.989 313.288 264.997 314.52 265.621 316.12H262.333C261.901 315.24 261.301 314.584 260.533 314.152C259.765 313.72 258.877 313.504 257.869 313.504C256.765 313.504 255.781 313.752 254.917 314.248C254.053 314.744 253.373 315.456 252.877 316.384C252.397 317.312 252.157 318.392 252.157 319.624C252.157 320.856 252.397 321.936 252.877 322.864C253.373 323.792 254.053 324.512 254.917 325.024C255.781 325.52 256.765 325.768 257.869 325.768C258.877 325.768 259.765 325.552 260.533 325.12C261.301 324.688 261.901 324.032 262.333 323.152H265.621C264.997 324.752 263.989 325.984 262.597 326.848C261.221 327.712 259.645 328.144 257.869 328.144C256.301 328.144 254.869 327.784 253.573 327.064C252.277 326.328 251.245 325.312 250.477 324.016C249.725 322.72 249.349 321.256 249.349 319.624ZM271.559 311.32V328H268.823V311.32H271.559ZM286.816 316.288C286.816 317.136 286.616 317.936 286.216 318.688C285.816 319.44 285.176 320.056 284.296 320.536C283.416 321 282.288 321.232 280.912 321.232H277.888V328H275.152V311.32H280.912C282.192 311.32 283.272 311.544 284.152 311.992C285.048 312.424 285.712 313.016 286.144 313.768C286.592 314.52 286.816 315.36 286.816 316.288ZM280.912 319C281.952 319 282.728 318.768 283.24 318.304C283.752 317.824 284.008 317.152 284.008 316.288C284.008 314.464 282.976 313.552 280.912 313.552H277.888V319H280.912ZM292.161 325.792H297.801V328H289.425V311.32H292.161V325.792ZM302.825 313.528V318.424H308.585V320.656H302.825V325.768H309.305V328H300.089V311.296H309.305V313.528H302.825ZM318.171 328.168C317.051 328.168 316.043 327.976 315.147 327.592C314.251 327.192 313.547 326.632 313.035 325.912C312.523 325.192 312.267 324.352 312.267 323.392H315.195C315.259 324.112 315.539 324.704 316.035 325.168C316.547 325.632 317.259 325.864 318.171 325.864C319.115 325.864 319.851 325.64 320.379 325.192C320.907 324.728 321.171 324.136 321.171 323.416C321.171 322.856 321.003 322.4 320.667 322.048C320.347 321.696 319.939 321.424 319.443 321.232C318.963 321.04 318.291 320.832 317.427 320.608C316.339 320.32 315.451 320.032 314.763 319.744C314.091 319.44 313.515 318.976 313.035 318.352C312.555 317.728 312.315 316.896 312.315 315.856C312.315 314.896 312.555 314.056 313.035 313.336C313.515 312.616 314.187 312.064 315.051 311.68C315.915 311.296 316.915 311.104 318.051 311.104C319.667 311.104 320.987 311.512 322.011 312.328C323.051 313.128 323.627 314.232 323.739 315.64H320.715C320.667 315.032 320.379 314.512 319.851 314.08C319.323 313.648 318.627 313.432 317.763 313.432C316.979 313.432 316.339 313.632 315.843 314.032C315.347 314.432 315.099 315.008 315.099 315.76C315.099 316.272 315.251 316.696 315.555 317.032C315.875 317.352 316.275 317.608 316.755 317.8C317.235 317.992 317.891 318.2 318.723 318.424C319.827 318.728 320.723 319.032 321.411 319.336C322.115 319.64 322.707 320.112 323.187 320.752C323.683 321.376 323.931 322.216 323.931 323.272C323.931 324.12 323.699 324.92 323.235 325.672C322.787 326.424 322.123 327.032 321.243 327.496C320.379 327.944 319.355 328.168 318.171 328.168Z" fill="white"/>
<path d="M275.723 236.598L131.773 236.531L131.841 92.5484C131.841 88.7523 128.716 85.7289 124.954 85.6953C121.158 85.6953 118.067 88.7523 118.067 92.5484L118 243.384C118 245.198 118.739 246.945 120.016 248.222C121.225 249.431 122.804 250.137 124.517 250.204C124.652 250.204 124.752 250.204 124.887 250.204L275.723 250.271C279.519 250.271 282.609 247.214 282.609 243.418C282.609 239.655 279.519 236.598 275.723 236.598Z" fill="white"/>
<path d="M154.147 217.013L192.007 185.435L240.248 182.815C242.801 182.68 245.051 181.135 246.126 178.851L263.394 141.73L267.089 149.826C269.81 155.201 274.816 153.823 276.226 153.219C279.72 151.741 281.198 147.575 279.619 144.148L268.937 120.834C266.619 116.03 261.512 116.467 259.732 117.475L236.787 128.292C233.361 129.905 231.883 134.003 233.495 137.43C235.108 140.856 239.24 142.301 242.666 140.688L250.393 137.027L235.376 169.344L188.95 171.863C187.472 171.93 186.061 172.502 184.919 173.442L145.312 206.498C142.389 208.917 142.053 213.217 144.438 216.173C146.79 218.995 151.392 219.466 154.147 217.013Z" fill="white"/>
<rect x="226.533" y="353" width="154.933" height="28" rx="14" fill="white"/>
<path d="M257.624 362.66C258.512 362.66 259.288 362.832 259.952 363.176C260.624 363.512 261.14 364 261.5 364.64C261.868 365.272 262.052 366.012 262.052 366.86C262.052 367.708 261.868 368.444 261.5 369.068C261.14 369.692 260.624 370.172 259.952 370.508C259.288 370.836 258.512 371 257.624 371H254.9V362.66H257.624ZM257.624 369.884C258.6 369.884 259.348 369.62 259.868 369.092C260.388 368.564 260.648 367.82 260.648 366.86C260.648 365.892 260.388 365.136 259.868 364.592C259.348 364.048 258.6 363.776 257.624 363.776H256.268V369.884H257.624ZM269.396 364.388V371H268.028V370.22C267.812 370.492 267.528 370.708 267.176 370.868C266.832 371.02 266.464 371.096 266.072 371.096C265.552 371.096 265.084 370.988 264.668 370.772C264.26 370.556 263.936 370.236 263.696 369.812C263.464 369.388 263.348 368.876 263.348 368.276V364.388H264.704V368.072C264.704 368.664 264.852 369.12 265.148 369.44C265.444 369.752 265.848 369.908 266.36 369.908C266.872 369.908 267.276 369.752 267.572 369.44C267.876 369.12 268.028 368.664 268.028 368.072V364.388H269.396ZM272.569 365.348C272.769 365.012 273.033 364.752 273.361 364.568C273.697 364.376 274.093 364.28 274.549 364.28V365.696H274.201C273.665 365.696 273.257 365.832 272.977 366.104C272.705 366.376 272.569 366.848 272.569 367.52V371H271.201V364.388H272.569V365.348ZM275.35 367.664C275.35 367 275.486 366.412 275.758 365.9C276.038 365.388 276.414 364.992 276.886 364.712C277.366 364.424 277.894 364.28 278.47 364.28C278.99 364.28 279.442 364.384 279.826 364.592C280.218 364.792 280.53 365.044 280.762 365.348V364.388H282.142V371H280.762V370.016C280.53 370.328 280.214 370.588 279.814 370.796C279.414 371.004 278.958 371.108 278.446 371.108C277.878 371.108 277.358 370.964 276.886 370.676C276.414 370.38 276.038 369.972 275.758 369.452C275.486 368.924 275.35 368.328 275.35 367.664ZM280.762 367.688C280.762 367.232 280.666 366.836 280.474 366.5C280.29 366.164 280.046 365.908 279.742 365.732C279.438 365.556 279.11 365.468 278.758 365.468C278.406 365.468 278.078 365.556 277.774 365.732C277.47 365.9 277.222 366.152 277.03 366.488C276.846 366.816 276.754 367.208 276.754 367.664C276.754 368.12 276.846 368.52 277.03 368.864C277.222 369.208 277.47 369.472 277.774 369.656C278.086 369.832 278.414 369.92 278.758 369.92C279.11 369.92 279.438 369.832 279.742 369.656C280.046 369.48 280.29 369.224 280.474 368.888C280.666 368.544 280.762 368.144 280.762 367.688ZM285.535 365.504V369.164C285.535 369.412 285.591 369.592 285.703 369.704C285.823 369.808 286.023 369.86 286.303 369.86H287.143V371H286.063C285.447 371 284.975 370.856 284.647 370.568C284.319 370.28 284.155 369.812 284.155 369.164V365.504H283.375V364.388H284.155V362.744H285.535V364.388H287.143V365.504H285.535ZM289.1 363.512C288.852 363.512 288.644 363.428 288.476 363.26C288.308 363.092 288.224 362.884 288.224 362.636C288.224 362.388 288.308 362.18 288.476 362.012C288.644 361.844 288.852 361.76 289.1 361.76C289.34 361.76 289.544 361.844 289.712 362.012C289.88 362.18 289.964 362.388 289.964 362.636C289.964 362.884 289.88 363.092 289.712 363.26C289.544 363.428 289.34 363.512 289.1 363.512ZM289.772 364.388V371H288.404V364.388H289.772ZM294.436 371.108C293.812 371.108 293.248 370.968 292.744 370.688C292.24 370.4 291.844 370 291.556 369.488C291.268 368.968 291.124 368.368 291.124 367.688C291.124 367.016 291.272 366.42 291.568 365.9C291.864 365.38 292.268 364.98 292.78 364.7C293.292 364.42 293.864 364.28 294.496 364.28C295.128 364.28 295.7 364.42 296.212 364.7C296.724 364.98 297.128 365.38 297.424 365.9C297.72 366.42 297.868 367.016 297.868 367.688C297.868 368.36 297.716 368.956 297.412 369.476C297.108 369.996 296.692 370.4 296.164 370.688C295.644 370.968 295.068 371.108 294.436 371.108ZM294.436 369.92C294.788 369.92 295.116 369.836 295.42 369.668C295.732 369.5 295.984 369.248 296.176 368.912C296.368 368.576 296.464 368.168 296.464 367.688C296.464 367.208 296.372 366.804 296.188 366.476C296.004 366.14 295.76 365.888 295.456 365.72C295.152 365.552 294.824 365.468 294.472 365.468C294.12 365.468 293.792 365.552 293.488 365.72C293.192 365.888 292.956 366.14 292.78 366.476C292.604 366.804 292.516 367.208 292.516 367.688C292.516 368.4 292.696 368.952 293.056 369.344C293.424 369.728 293.884 369.92 294.436 369.92ZM302.556 364.28C303.076 364.28 303.54 364.388 303.948 364.604C304.364 364.82 304.688 365.14 304.92 365.564C305.152 365.988 305.268 366.5 305.268 367.1V371H303.912V367.304C303.912 366.712 303.764 366.26 303.468 365.948C303.172 365.628 302.768 365.468 302.256 365.468C301.744 365.468 301.336 365.628 301.032 365.948C300.736 366.26 300.588 366.712 300.588 367.304V371H299.22V364.388H300.588V365.144C300.812 364.872 301.096 364.66 301.44 364.508C301.792 364.356 302.164 364.28 302.556 364.28ZM307.565 371.084C307.317 371.084 307.109 371 306.941 370.832C306.773 370.664 306.689 370.456 306.689 370.208C306.689 369.96 306.773 369.752 306.941 369.584C307.109 369.416 307.317 369.332 307.565 369.332C307.805 369.332 308.009 369.416 308.177 369.584C308.345 369.752 308.429 369.96 308.429 370.208C308.429 370.456 308.345 370.664 308.177 370.832C308.009 371 307.805 371.084 307.565 371.084ZM307.565 366.044C307.317 366.044 307.109 365.96 306.941 365.792C306.773 365.624 306.689 365.416 306.689 365.168C306.689 364.92 306.773 364.712 306.941 364.544C307.109 364.376 307.317 364.292 307.565 364.292C307.805 364.292 308.009 364.376 308.177 364.544C308.345 364.712 308.429 364.92 308.429 365.168C308.429 365.416 308.345 365.624 308.177 365.792C308.009 365.96 307.805 366.044 307.565 366.044ZM312.712 363.5V362.252H315.208V371H313.828V363.5H312.712ZM331.244 362.66L328.772 371H327.224L325.472 364.688L323.612 371L322.076 371.012L319.712 362.66H321.164L322.892 369.452L324.764 362.66H326.3L328.04 369.416L329.78 362.66H331.244ZM338.433 367.532C338.433 367.78 338.417 368.004 338.385 368.204H333.333C333.373 368.732 333.569 369.156 333.921 369.476C334.273 369.796 334.705 369.956 335.217 369.956C335.953 369.956 336.473 369.648 336.777 369.032H338.253C338.053 369.64 337.689 370.14 337.161 370.532C336.641 370.916 335.993 371.108 335.217 371.108C334.585 371.108 334.017 370.968 333.513 370.688C333.017 370.4 332.625 370 332.337 369.488C332.057 368.968 331.917 368.368 331.917 367.688C331.917 367.008 332.053 366.412 332.325 365.9C332.605 365.38 332.993 364.98 333.489 364.7C333.993 364.42 334.569 364.28 335.217 364.28C335.841 364.28 336.397 364.416 336.885 364.688C337.373 364.96 337.753 365.344 338.025 365.84C338.297 366.328 338.433 366.892 338.433 367.532ZM337.005 367.1C336.997 366.596 336.817 366.192 336.465 365.888C336.113 365.584 335.677 365.432 335.157 365.432C334.685 365.432 334.281 365.584 333.945 365.888C333.609 366.184 333.409 366.588 333.345 367.1H337.005ZM345.839 367.532C345.839 367.78 345.823 368.004 345.791 368.204H340.739C340.779 368.732 340.975 369.156 341.327 369.476C341.679 369.796 342.111 369.956 342.623 369.956C343.359 369.956 343.879 369.648 344.183 369.032H345.659C345.459 369.64 345.095 370.14 344.567 370.532C344.047 370.916 343.399 371.108 342.623 371.108C341.991 371.108 341.423 370.968 340.919 370.688C340.423 370.4 340.031 370 339.743 369.488C339.463 368.968 339.323 368.368 339.323 367.688C339.323 367.008 339.459 366.412 339.731 365.9C340.011 365.38 340.399 364.98 340.895 364.7C341.399 364.42 341.975 364.28 342.623 364.28C343.247 364.28 343.803 364.416 344.291 364.688C344.779 364.96 345.159 365.344 345.431 365.84C345.703 366.328 345.839 366.892 345.839 367.532ZM344.411 367.1C344.403 366.596 344.223 366.192 343.871 365.888C343.519 365.584 343.083 365.432 342.563 365.432C342.091 365.432 341.687 365.584 341.351 365.888C341.015 366.184 340.815 366.588 340.751 367.1H344.411ZM349.801 367.7L352.849 371H351.001L348.553 368.156V371H347.185V362.12H348.553V367.28L350.953 364.388H352.849L349.801 367.7Z" fill="#CE723E"/>
<rect x="18" y="353" width="154.933" height="28" rx="14" fill="white"/>
<path d="M43.624 362.66C44.512 362.66 45.288 362.832 45.952 363.176C46.624 363.512 47.14 364 47.5 364.64C47.868 365.272 48.052 366.012 48.052 366.86C48.052 367.708 47.868 368.444 47.5 369.068C47.14 369.692 46.624 370.172 45.952 370.508C45.288 370.836 44.512 371 43.624 371H40.9V362.66H43.624ZM43.624 369.884C44.6 369.884 45.348 369.62 45.868 369.092C46.388 368.564 46.648 367.82 46.648 366.86C46.648 365.892 46.388 365.136 45.868 364.592C45.348 364.048 44.6 363.776 43.624 363.776H42.268V369.884H43.624ZM50.1038 363.512C49.8558 363.512 49.6478 363.428 49.4798 363.26C49.3118 363.092 49.2278 362.884 49.2278 362.636C49.2278 362.388 49.3118 362.18 49.4798 362.012C49.6478 361.844 49.8558 361.76 50.1038 361.76C50.3438 361.76 50.5478 361.844 50.7158 362.012C50.8838 362.18 50.9678 362.388 50.9678 362.636C50.9678 362.884 50.8838 363.092 50.7158 363.26C50.5478 363.428 50.3438 363.512 50.1038 363.512ZM50.7758 364.388V371H49.4078V364.388H50.7758ZM55.3439 365.504H54.1199V371H52.7399V365.504H51.9599V364.388H52.7399V363.92C52.7399 363.16 52.9399 362.608 53.3399 362.264C53.7479 361.912 54.3839 361.736 55.2479 361.736V362.876C54.8319 362.876 54.5399 362.956 54.3719 363.116C54.2039 363.268 54.1199 363.536 54.1199 363.92V364.388H55.3439V365.504ZM59.3283 365.504H58.1043V371H56.7243V365.504H55.9443V364.388H56.7243V363.92C56.7243 363.16 56.9243 362.608 57.3243 362.264C57.7323 361.912 58.3683 361.736 59.2323 361.736V362.876C58.8163 362.876 58.5243 362.956 58.3563 363.116C58.1883 363.268 58.1043 363.536 58.1043 363.92V364.388H59.3283V365.504ZM61.2366 363.512C60.9886 363.512 60.7806 363.428 60.6126 363.26C60.4446 363.092 60.3606 362.884 60.3606 362.636C60.3606 362.388 60.4446 362.18 60.6126 362.012C60.7806 361.844 60.9886 361.76 61.2366 361.76C61.4766 361.76 61.6806 361.844 61.8486 362.012C62.0166 362.18 62.1006 362.388 62.1006 362.636C62.1006 362.884 62.0166 363.092 61.8486 363.26C61.6806 363.428 61.4766 363.512 61.2366 363.512ZM61.9086 364.388V371H60.5406V364.388H61.9086ZM63.2487 367.688C63.2487 367.008 63.3847 366.412 63.6567 365.9C63.9367 365.38 64.3207 364.98 64.8087 364.7C65.2967 364.42 65.8567 364.28 66.4887 364.28C67.2887 364.28 67.9487 364.472 68.4687 364.856C68.9967 365.232 69.3527 365.772 69.5367 366.476H68.0607C67.9407 366.148 67.7487 365.892 67.4847 365.708C67.2207 365.524 66.8887 365.432 66.4887 365.432C65.9287 365.432 65.4807 365.632 65.1447 366.032C64.8167 366.424 64.6527 366.976 64.6527 367.688C64.6527 368.4 64.8167 368.956 65.1447 369.356C65.4807 369.756 65.9287 369.956 66.4887 369.956C67.2807 369.956 67.8047 369.608 68.0607 368.912H69.5367C69.3447 369.584 68.9847 370.12 68.4567 370.52C67.9287 370.912 67.2727 371.108 66.4887 371.108C65.8567 371.108 65.2967 370.968 64.8087 370.688C64.3207 370.4 63.9367 370 63.6567 369.488C63.3847 368.968 63.2487 368.368 63.2487 367.688ZM76.888 364.388V371H75.52V370.22C75.304 370.492 75.02 370.708 74.668 370.868C74.324 371.02 73.956 371.096 73.564 371.096C73.044 371.096 72.576 370.988 72.16 370.772C71.752 370.556 71.428 370.236 71.188 369.812C70.956 369.388 70.84 368.876 70.84 368.276V364.388H72.196V368.072C72.196 368.664 72.344 369.12 72.64 369.44C72.936 369.752 73.34 369.908 73.852 369.908C74.364 369.908 74.768 369.752 75.064 369.44C75.368 369.12 75.52 368.664 75.52 368.072V364.388H76.888ZM80.061 362.12V371H78.693V362.12H80.061ZM83.453 365.504V369.164C83.453 369.412 83.509 369.592 83.621 369.704C83.741 369.808 83.941 369.86 84.221 369.86H85.061V371H83.981C83.365 371 82.893 370.856 82.565 370.568C82.237 370.28 82.073 369.812 82.073 369.164V365.504H81.293V364.388H82.073V362.744H83.453V364.388H85.061V365.504H83.453ZM92.2739 364.388L88.2179 374.108H86.8019L88.1459 370.892L85.5419 364.388H87.0659L88.9259 369.428L90.8579 364.388H92.2739ZM93.8583 371.084C93.6103 371.084 93.4023 371 93.2343 370.832C93.0663 370.664 92.9823 370.456 92.9823 370.208C92.9823 369.96 93.0663 369.752 93.2343 369.584C93.4023 369.416 93.6103 369.332 93.8583 369.332C94.0983 369.332 94.3023 369.416 94.4703 369.584C94.6383 369.752 94.7223 369.96 94.7223 370.208C94.7223 370.456 94.6383 370.664 94.4703 370.832C94.3023 371 94.0983 371.084 93.8583 371.084ZM93.8583 366.044C93.6103 366.044 93.4023 365.96 93.2343 365.792C93.0663 365.624 92.9823 365.416 92.9823 365.168C92.9823 364.92 93.0663 364.712 93.2343 364.544C93.4023 364.376 93.6103 364.292 93.8583 364.292C94.0983 364.292 94.3023 364.376 94.4703 364.544C94.6383 364.712 94.7223 364.92 94.7223 365.168C94.7223 365.416 94.6383 365.624 94.4703 365.792C94.3023 365.96 94.0983 366.044 93.8583 366.044ZM108.149 362.66V371H106.781V365.288L104.237 371H103.289L100.733 365.288V371H99.3648V362.66H100.841L103.769 369.2L106.685 362.66H108.149ZM116.007 367.532C116.007 367.78 115.991 368.004 115.959 368.204H110.907C110.947 368.732 111.143 369.156 111.495 369.476C111.847 369.796 112.279 369.956 112.791 369.956C113.527 369.956 114.047 369.648 114.351 369.032H115.827C115.627 369.64 115.263 370.14 114.735 370.532C114.215 370.916 113.567 371.108 112.791 371.108C112.159 371.108 111.591 370.968 111.087 370.688C110.591 370.4 110.199 370 109.911 369.488C109.631 368.968 109.491 368.368 109.491 367.688C109.491 367.008 109.627 366.412 109.899 365.9C110.179 365.38 110.567 364.98 111.063 364.7C111.567 364.42 112.143 364.28 112.791 364.28C113.415 364.28 113.971 364.416 114.459 364.688C114.947 364.96 115.327 365.344 115.599 365.84C115.871 366.328 116.007 366.892 116.007 367.532ZM114.579 367.1C114.571 366.596 114.391 366.192 114.039 365.888C113.687 365.584 113.251 365.432 112.731 365.432C112.259 365.432 111.855 365.584 111.519 365.888C111.183 366.184 110.983 366.588 110.919 367.1H114.579ZM116.897 367.664C116.897 367 117.033 366.412 117.305 365.9C117.585 365.388 117.961 364.992 118.433 364.712C118.913 364.424 119.445 364.28 120.029 364.28C120.461 364.28 120.885 364.376 121.301 364.568C121.725 364.752 122.061 365 122.309 365.312V362.12H123.689V371H122.309V370.004C122.085 370.324 121.773 370.588 121.373 370.796C120.981 371.004 120.529 371.108 120.017 371.108C119.441 371.108 118.913 370.964 118.433 370.676C117.961 370.38 117.585 369.972 117.305 369.452C117.033 368.924 116.897 368.328 116.897 367.664ZM122.309 367.688C122.309 367.232 122.213 366.836 122.021 366.5C121.837 366.164 121.593 365.908 121.289 365.732C120.985 365.556 120.657 365.468 120.305 365.468C119.953 365.468 119.625 365.556 119.321 365.732C119.017 365.9 118.769 366.152 118.577 366.488C118.393 366.816 118.301 367.208 118.301 367.664C118.301 368.12 118.393 368.52 118.577 368.864C118.769 369.208 119.017 369.472 119.321 369.656C119.633 369.832 119.961 369.92 120.305 369.92C120.657 369.92 120.985 369.832 121.289 369.656C121.593 369.48 121.837 369.224 122.021 368.888C122.213 368.544 122.309 368.144 122.309 367.688ZM126.182 363.512C125.934 363.512 125.726 363.428 125.558 363.26C125.39 363.092 125.306 362.884 125.306 362.636C125.306 362.388 125.39 362.18 125.558 362.012C125.726 361.844 125.934 361.76 126.182 361.76C126.422 361.76 126.626 361.844 126.794 362.012C126.962 362.18 127.046 362.388 127.046 362.636C127.046 362.884 126.962 363.092 126.794 363.26C126.626 363.428 126.422 363.512 126.182 363.512ZM126.854 364.388V371H125.486V364.388H126.854ZM134.638 364.388V371H133.27V370.22C133.054 370.492 132.77 370.708 132.418 370.868C132.074 371.02 131.706 371.096 131.314 371.096C130.794 371.096 130.326 370.988 129.91 370.772C129.502 370.556 129.178 370.236 128.938 369.812C128.706 369.388 128.59 368.876 128.59 368.276V364.388H129.946V368.072C129.946 368.664 130.094 369.12 130.39 369.44C130.686 369.752 131.09 369.908 131.602 369.908C132.114 369.908 132.518 369.752 132.814 369.44C133.118 369.12 133.27 368.664 133.27 368.072V364.388H134.638ZM144.447 364.28C144.967 364.28 145.431 364.388 145.839 364.604C146.255 364.82 146.579 365.14 146.811 365.564C147.051 365.988 147.171 366.5 147.171 367.1V371H145.815V367.304C145.815 366.712 145.667 366.26 145.371 365.948C145.075 365.628 144.671 365.468 144.159 365.468C143.647 365.468 143.239 365.628 142.935 365.948C142.639 366.26 142.491 366.712 142.491 367.304V371H141.135V367.304C141.135 366.712 140.987 366.26 140.691 365.948C140.395 365.628 139.991 365.468 139.479 365.468C138.967 365.468 138.559 365.628 138.255 365.948C137.959 366.26 137.811 366.712 137.811 367.304V371H136.443V364.388H137.811V365.144C138.035 364.872 138.319 364.66 138.663 364.508C139.007 364.356 139.375 364.28 139.767 364.28C140.295 364.28 140.767 364.392 141.183 364.616C141.599 364.84 141.919 365.164 142.143 365.588C142.343 365.188 142.655 364.872 143.079 364.64C143.503 364.4 143.959 364.28 144.447 364.28Z" fill="#CE723E"/>
</svg>
