<svg width="400" height="400" viewBox="0 0 400 400" fill="none" xmlns="http://www.w3.org/2000/svg">
<rect width="400" height="400" fill="#4F4BFF"/>
<path d="M73.7609 285.288C73.7609 286.136 73.5609 286.936 73.1609 287.688C72.7609 288.44 72.1209 289.056 71.2409 289.536C70.3609 290 69.2329 290.232 67.8569 290.232H64.8329V297H62.0969V280.32H67.8569C69.1369 280.32 70.2169 280.544 71.0969 280.992C71.9929 281.424 72.6569 282.016 73.0889 282.768C73.5369 283.52 73.7609 284.36 73.7609 285.288ZM67.8569 288C68.8969 288 69.6729 287.768 70.1849 287.304C70.6969 286.824 70.9529 286.152 70.9529 285.288C70.9529 283.464 69.9209 282.552 67.8569 282.552H64.8329V288H67.8569ZM85.0343 297L81.1943 290.328H79.1063V297H76.3703V280.32H82.1303C83.4103 280.32 84.4903 280.544 85.3703 280.992C86.2663 281.44 86.9303 282.04 87.3623 282.792C87.8103 283.544 88.0343 284.384 88.0343 285.312C88.0343 286.4 87.7143 287.392 87.0743 288.288C86.4503 289.168 85.4823 289.768 84.1703 290.088L88.2983 297H85.0343ZM79.1063 288.144H82.1303C83.1543 288.144 83.9223 287.888 84.4343 287.376C84.9623 286.864 85.2263 286.176 85.2263 285.312C85.2263 284.448 84.9703 283.776 84.4583 283.296C83.9463 282.8 83.1703 282.552 82.1303 282.552H79.1063V288.144ZM99.1424 297.168C97.5904 297.168 96.1584 296.808 94.8464 296.088C93.5504 295.352 92.5184 294.336 91.7504 293.04C90.9984 291.728 90.6224 290.256 90.6224 288.624C90.6224 286.992 90.9984 285.528 91.7504 284.232C92.5184 282.936 93.5504 281.928 94.8464 281.208C96.1584 280.472 97.5904 280.104 99.1424 280.104C100.71 280.104 102.142 280.472 103.438 281.208C104.75 281.928 105.782 282.936 106.534 284.232C107.286 285.528 107.662 286.992 107.662 288.624C107.662 290.256 107.286 291.728 106.534 293.04C105.782 294.336 104.75 295.352 103.438 296.088C102.142 296.808 100.71 297.168 99.1424 297.168ZM99.1424 294.792C100.246 294.792 101.23 294.544 102.094 294.048C102.958 293.536 103.63 292.816 104.11 291.888C104.606 290.944 104.854 289.856 104.854 288.624C104.854 287.392 104.606 286.312 104.11 285.384C103.63 284.456 102.958 283.744 102.094 283.248C101.23 282.752 100.246 282.504 99.1424 282.504C98.0384 282.504 97.0544 282.752 96.1904 283.248C95.3264 283.744 94.6464 284.456 94.1504 285.384C93.6704 286.312 93.4304 287.392 93.4304 288.624C93.4304 289.856 93.6704 290.944 94.1504 291.888C94.6464 292.816 95.3264 293.536 96.1904 294.048C97.0544 294.544 98.0384 294.792 99.1424 294.792ZM119.451 280.32V292.344C119.451 293.832 118.995 295.008 118.083 295.872C117.187 296.736 116.003 297.168 114.531 297.168C113.059 297.168 111.867 296.736 110.955 295.872C110.059 295.008 109.611 293.832 109.611 292.344H112.371C112.387 293.08 112.571 293.664 112.923 294.096C113.291 294.528 113.827 294.744 114.531 294.744C115.235 294.744 115.771 294.528 116.139 294.096C116.507 293.648 116.691 293.064 116.691 292.344V280.32H119.451ZM126.638 282.528V287.424H132.398V289.656H126.638V294.768H133.118V297H123.902V280.296H133.118V282.528H126.638ZM135.576 288.624C135.576 286.992 135.952 285.528 136.704 284.232C137.472 282.936 138.504 281.928 139.8 281.208C141.112 280.472 142.544 280.104 144.096 280.104C145.872 280.104 147.448 280.544 148.824 281.424C150.216 282.288 151.224 283.52 151.848 285.12H148.56C148.128 284.24 147.528 283.584 146.76 283.152C145.992 282.72 145.104 282.504 144.096 282.504C142.992 282.504 142.008 282.752 141.144 283.248C140.28 283.744 139.6 284.456 139.104 285.384C138.624 286.312 138.384 287.392 138.384 288.624C138.384 289.856 138.624 290.936 139.104 291.864C139.6 292.792 140.28 293.512 141.144 294.024C142.008 294.52 142.992 294.768 144.096 294.768C145.104 294.768 145.992 294.552 146.76 294.12C147.528 293.688 148.128 293.032 148.56 292.152H151.848C151.224 293.752 150.216 294.984 148.824 295.848C147.448 296.712 145.872 297.144 144.096 297.144C142.528 297.144 141.096 296.784 139.8 296.064C138.504 295.328 137.472 294.312 136.704 293.016C135.952 291.72 135.576 290.256 135.576 288.624ZM165.826 280.32V282.552H161.386V297H158.65V282.552H154.186V280.32H165.826ZM192.399 280.32V297H189.663V285.576L184.575 297H182.679L177.567 285.576V297H174.831V280.32H177.783L183.639 293.4L189.471 280.32H192.399ZM206.051 293.592H199.067L197.867 297H195.011L200.987 280.296H204.155L210.131 297H207.251L206.051 293.592ZM205.283 291.36L202.571 283.608L199.835 291.36H205.283ZM226.434 297H223.698L215.466 284.544V297H212.73V280.296H215.466L223.698 292.728V280.296H226.434V297ZM240.083 293.592H233.099L231.899 297H229.043L235.019 280.296H238.187L244.163 297H241.283L240.083 293.592ZM239.315 291.36L236.603 283.608L233.867 291.36H239.315ZM258.833 285.12C258.401 284.288 257.801 283.664 257.033 283.248C256.265 282.816 255.377 282.6 254.369 282.6C253.265 282.6 252.281 282.848 251.417 283.344C250.553 283.84 249.873 284.544 249.377 285.456C248.897 286.368 248.657 287.424 248.657 288.624C248.657 289.824 248.897 290.888 249.377 291.816C249.873 292.728 250.553 293.432 251.417 293.928C252.281 294.424 253.265 294.672 254.369 294.672C255.857 294.672 257.065 294.256 257.993 293.424C258.921 292.592 259.489 291.464 259.697 290.04H253.433V287.856H262.625V289.992C262.449 291.288 261.985 292.48 261.233 293.568C260.497 294.656 259.529 295.528 258.329 296.184C257.145 296.824 255.825 297.144 254.369 297.144C252.801 297.144 251.369 296.784 250.073 296.064C248.777 295.328 247.745 294.312 246.977 293.016C246.225 291.72 245.849 290.256 245.849 288.624C245.849 286.992 246.225 285.528 246.977 284.232C247.745 282.936 248.777 281.928 250.073 281.208C251.385 280.472 252.817 280.104 254.369 280.104C256.145 280.104 257.721 280.544 259.097 281.424C260.489 282.288 261.497 283.52 262.121 285.12H258.833ZM268.059 282.528V287.424H273.819V289.656H268.059V294.768H274.539V297H265.323V280.296H274.539V282.528H268.059ZM295.477 280.32V297H292.741V285.576L287.653 297H285.757L280.645 285.576V297H277.909V280.32H280.861L286.717 293.4L292.549 280.32H295.477ZM301.809 282.528V287.424H307.569V289.656H301.809V294.768H308.289V297H299.073V280.296H308.289V282.528H301.809ZM325.363 297H322.627L314.395 284.544V297H311.659V280.296H314.395L322.627 292.728V280.296H325.363V297ZM339.732 280.32V282.552H335.292V297H332.556V282.552H328.092V280.32H339.732ZM174.908 316.32V318.552H170.468V333H167.732V318.552H163.268V316.32H174.908ZM185.287 333.168C183.735 333.168 182.303 332.808 180.991 332.088C179.695 331.352 178.663 330.336 177.895 329.04C177.143 327.728 176.767 326.256 176.767 324.624C176.767 322.992 177.143 321.528 177.895 320.232C178.663 318.936 179.695 317.928 180.991 317.208C182.303 316.472 183.735 316.104 185.287 316.104C186.855 316.104 188.287 316.472 189.583 317.208C190.895 317.928 191.927 318.936 192.679 320.232C193.431 321.528 193.807 322.992 193.807 324.624C193.807 326.256 193.431 327.728 192.679 329.04C191.927 330.336 190.895 331.352 189.583 332.088C188.287 332.808 186.855 333.168 185.287 333.168ZM185.287 330.792C186.391 330.792 187.375 330.544 188.239 330.048C189.103 329.536 189.775 328.816 190.255 327.888C190.751 326.944 190.999 325.856 190.999 324.624C190.999 323.392 190.751 322.312 190.255 321.384C189.775 320.456 189.103 319.744 188.239 319.248C187.375 318.752 186.391 318.504 185.287 318.504C184.183 318.504 183.199 318.752 182.335 319.248C181.471 319.744 180.791 320.456 180.295 321.384C179.815 322.312 179.575 323.392 179.575 324.624C179.575 325.856 179.815 326.944 180.295 327.888C180.791 328.816 181.471 329.536 182.335 330.048C183.199 330.544 184.183 330.792 185.287 330.792ZM204.107 333.168C202.555 333.168 201.123 332.808 199.811 332.088C198.515 331.352 197.483 330.336 196.715 329.04C195.963 327.728 195.587 326.256 195.587 324.624C195.587 322.992 195.963 321.528 196.715 320.232C197.483 318.936 198.515 317.928 199.811 317.208C201.123 316.472 202.555 316.104 204.107 316.104C205.675 316.104 207.107 316.472 208.403 317.208C209.715 317.928 210.747 318.936 211.499 320.232C212.251 321.528 212.627 322.992 212.627 324.624C212.627 326.256 212.251 327.728 211.499 329.04C210.747 330.336 209.715 331.352 208.403 332.088C207.107 332.808 205.675 333.168 204.107 333.168ZM204.107 330.792C205.211 330.792 206.195 330.544 207.059 330.048C207.923 329.536 208.595 328.816 209.075 327.888C209.571 326.944 209.819 325.856 209.819 324.624C209.819 323.392 209.571 322.312 209.075 321.384C208.595 320.456 207.923 319.744 207.059 319.248C206.195 318.752 205.211 318.504 204.107 318.504C203.003 318.504 202.019 318.752 201.155 319.248C200.291 319.744 199.611 320.456 199.115 321.384C198.635 322.312 198.395 323.392 198.395 324.624C198.395 325.856 198.635 326.944 199.115 327.888C199.611 328.816 200.291 329.536 201.155 330.048C202.019 330.544 203.003 330.792 204.107 330.792ZM218.056 330.792H223.696V333H215.32V316.32H218.056V330.792ZM231.48 333.168C230.36 333.168 229.352 332.976 228.456 332.592C227.56 332.192 226.856 331.632 226.344 330.912C225.832 330.192 225.576 329.352 225.576 328.392H228.504C228.568 329.112 228.848 329.704 229.344 330.168C229.856 330.632 230.568 330.864 231.48 330.864C232.424 330.864 233.16 330.64 233.688 330.192C234.216 329.728 234.48 329.136 234.48 328.416C234.48 327.856 234.312 327.4 233.976 327.048C233.656 326.696 233.248 326.424 232.752 326.232C232.272 326.04 231.6 325.832 230.736 325.608C229.648 325.32 228.76 325.032 228.072 324.744C227.4 324.44 226.824 323.976 226.344 323.352C225.864 322.728 225.624 321.896 225.624 320.856C225.624 319.896 225.864 319.056 226.344 318.336C226.824 317.616 227.496 317.064 228.36 316.68C229.224 316.296 230.224 316.104 231.36 316.104C232.976 316.104 234.296 316.512 235.32 317.328C236.36 318.128 236.936 319.232 237.048 320.64H234.024C233.976 320.032 233.688 319.512 233.16 319.08C232.632 318.648 231.936 318.432 231.072 318.432C230.288 318.432 229.648 318.632 229.152 319.032C228.656 319.432 228.408 320.008 228.408 320.76C228.408 321.272 228.56 321.696 228.864 322.032C229.184 322.352 229.584 322.608 230.064 322.8C230.544 322.992 231.2 323.2 232.032 323.424C233.136 323.728 234.032 324.032 234.72 324.336C235.424 324.64 236.016 325.112 236.496 325.752C236.992 326.376 237.24 327.216 237.24 328.272C237.24 329.12 237.008 329.92 236.544 330.672C236.096 331.424 235.432 332.032 234.552 332.496C233.688 332.944 232.664 333.168 231.48 333.168Z" fill="white"/>
<path d="M261.069 92.4553H196.978C196.978 108.426 209.927 121.374 225.897 121.374H237.701V132.783C237.714 148.718 250.614 161.636 266.536 161.68H266.54V98.0332C266.54 98.0243 266.54 98.0199 266.54 98.011C266.54 94.9713 264.1 92.5041 261.073 92.4597H261.069V92.4553ZM229.359 124.379H165.268C165.272 140.349 178.216 153.293 194.187 153.293H205.991V164.707C206.004 180.673 218.944 193.608 234.91 193.621V129.934C234.91 126.868 232.425 124.383 229.359 124.383V124.379ZM197.622 156.298H133.455C133.464 172.273 146.417 185.217 162.392 185.217C162.419 185.217 162.446 185.217 162.472 185.217H174.28V196.621C174.28 212.587 187.22 225.531 203.186 225.54V161.871C203.186 158.791 200.692 156.298 197.613 156.298H197.622Z" fill="white"/>
<rect x="226.533" y="353" width="154.933" height="28" rx="14" fill="white"/>
<path d="M257.624 362.66C258.512 362.66 259.288 362.832 259.952 363.176C260.624 363.512 261.14 364 261.5 364.64C261.868 365.272 262.052 366.012 262.052 366.86C262.052 367.708 261.868 368.444 261.5 369.068C261.14 369.692 260.624 370.172 259.952 370.508C259.288 370.836 258.512 371 257.624 371H254.9V362.66H257.624ZM257.624 369.884C258.6 369.884 259.348 369.62 259.868 369.092C260.388 368.564 260.648 367.82 260.648 366.86C260.648 365.892 260.388 365.136 259.868 364.592C259.348 364.048 258.6 363.776 257.624 363.776H256.268V369.884H257.624ZM269.396 364.388V371H268.028V370.22C267.812 370.492 267.528 370.708 267.176 370.868C266.832 371.02 266.464 371.096 266.072 371.096C265.552 371.096 265.084 370.988 264.668 370.772C264.26 370.556 263.936 370.236 263.696 369.812C263.464 369.388 263.348 368.876 263.348 368.276V364.388H264.704V368.072C264.704 368.664 264.852 369.12 265.148 369.44C265.444 369.752 265.848 369.908 266.36 369.908C266.872 369.908 267.276 369.752 267.572 369.44C267.876 369.12 268.028 368.664 268.028 368.072V364.388H269.396ZM272.569 365.348C272.769 365.012 273.033 364.752 273.361 364.568C273.697 364.376 274.093 364.28 274.549 364.28V365.696H274.201C273.665 365.696 273.257 365.832 272.977 366.104C272.705 366.376 272.569 366.848 272.569 367.52V371H271.201V364.388H272.569V365.348ZM275.35 367.664C275.35 367 275.486 366.412 275.758 365.9C276.038 365.388 276.414 364.992 276.886 364.712C277.366 364.424 277.894 364.28 278.47 364.28C278.99 364.28 279.442 364.384 279.826 364.592C280.218 364.792 280.53 365.044 280.762 365.348V364.388H282.142V371H280.762V370.016C280.53 370.328 280.214 370.588 279.814 370.796C279.414 371.004 278.958 371.108 278.446 371.108C277.878 371.108 277.358 370.964 276.886 370.676C276.414 370.38 276.038 369.972 275.758 369.452C275.486 368.924 275.35 368.328 275.35 367.664ZM280.762 367.688C280.762 367.232 280.666 366.836 280.474 366.5C280.29 366.164 280.046 365.908 279.742 365.732C279.438 365.556 279.11 365.468 278.758 365.468C278.406 365.468 278.078 365.556 277.774 365.732C277.47 365.9 277.222 366.152 277.03 366.488C276.846 366.816 276.754 367.208 276.754 367.664C276.754 368.12 276.846 368.52 277.03 368.864C277.222 369.208 277.47 369.472 277.774 369.656C278.086 369.832 278.414 369.92 278.758 369.92C279.11 369.92 279.438 369.832 279.742 369.656C280.046 369.48 280.29 369.224 280.474 368.888C280.666 368.544 280.762 368.144 280.762 367.688ZM285.535 365.504V369.164C285.535 369.412 285.591 369.592 285.703 369.704C285.823 369.808 286.023 369.86 286.303 369.86H287.143V371H286.063C285.447 371 284.975 370.856 284.647 370.568C284.319 370.28 284.155 369.812 284.155 369.164V365.504H283.375V364.388H284.155V362.744H285.535V364.388H287.143V365.504H285.535ZM289.1 363.512C288.852 363.512 288.644 363.428 288.476 363.26C288.308 363.092 288.224 362.884 288.224 362.636C288.224 362.388 288.308 362.18 288.476 362.012C288.644 361.844 288.852 361.76 289.1 361.76C289.34 361.76 289.544 361.844 289.712 362.012C289.88 362.18 289.964 362.388 289.964 362.636C289.964 362.884 289.88 363.092 289.712 363.26C289.544 363.428 289.34 363.512 289.1 363.512ZM289.772 364.388V371H288.404V364.388H289.772ZM294.436 371.108C293.812 371.108 293.248 370.968 292.744 370.688C292.24 370.4 291.844 370 291.556 369.488C291.268 368.968 291.124 368.368 291.124 367.688C291.124 367.016 291.272 366.42 291.568 365.9C291.864 365.38 292.268 364.98 292.78 364.7C293.292 364.42 293.864 364.28 294.496 364.28C295.128 364.28 295.7 364.42 296.212 364.7C296.724 364.98 297.128 365.38 297.424 365.9C297.72 366.42 297.868 367.016 297.868 367.688C297.868 368.36 297.716 368.956 297.412 369.476C297.108 369.996 296.692 370.4 296.164 370.688C295.644 370.968 295.068 371.108 294.436 371.108ZM294.436 369.92C294.788 369.92 295.116 369.836 295.42 369.668C295.732 369.5 295.984 369.248 296.176 368.912C296.368 368.576 296.464 368.168 296.464 367.688C296.464 367.208 296.372 366.804 296.188 366.476C296.004 366.14 295.76 365.888 295.456 365.72C295.152 365.552 294.824 365.468 294.472 365.468C294.12 365.468 293.792 365.552 293.488 365.72C293.192 365.888 292.956 366.14 292.78 366.476C292.604 366.804 292.516 367.208 292.516 367.688C292.516 368.4 292.696 368.952 293.056 369.344C293.424 369.728 293.884 369.92 294.436 369.92ZM302.556 364.28C303.076 364.28 303.54 364.388 303.948 364.604C304.364 364.82 304.688 365.14 304.92 365.564C305.152 365.988 305.268 366.5 305.268 367.1V371H303.912V367.304C303.912 366.712 303.764 366.26 303.468 365.948C303.172 365.628 302.768 365.468 302.256 365.468C301.744 365.468 301.336 365.628 301.032 365.948C300.736 366.26 300.588 366.712 300.588 367.304V371H299.22V364.388H300.588V365.144C300.812 364.872 301.096 364.66 301.44 364.508C301.792 364.356 302.164 364.28 302.556 364.28ZM307.565 371.084C307.317 371.084 307.109 371 306.941 370.832C306.773 370.664 306.689 370.456 306.689 370.208C306.689 369.96 306.773 369.752 306.941 369.584C307.109 369.416 307.317 369.332 307.565 369.332C307.805 369.332 308.009 369.416 308.177 369.584C308.345 369.752 308.429 369.96 308.429 370.208C308.429 370.456 308.345 370.664 308.177 370.832C308.009 371 307.805 371.084 307.565 371.084ZM307.565 366.044C307.317 366.044 307.109 365.96 306.941 365.792C306.773 365.624 306.689 365.416 306.689 365.168C306.689 364.92 306.773 364.712 306.941 364.544C307.109 364.376 307.317 364.292 307.565 364.292C307.805 364.292 308.009 364.376 308.177 364.544C308.345 364.712 308.429 364.92 308.429 365.168C308.429 365.416 308.345 365.624 308.177 365.792C308.009 365.96 307.805 366.044 307.565 366.044ZM313.648 369.14C314.416 368.476 315.02 367.932 315.46 367.508C315.908 367.076 316.28 366.628 316.576 366.164C316.872 365.7 317.02 365.236 317.02 364.772C317.02 364.292 316.904 363.916 316.672 363.644C316.448 363.372 316.092 363.236 315.604 363.236C315.132 363.236 314.764 363.388 314.5 363.692C314.244 363.988 314.108 364.388 314.092 364.892H312.772C312.796 363.98 313.068 363.284 313.588 362.804C314.116 362.316 314.784 362.072 315.592 362.072C316.464 362.072 317.144 362.312 317.632 362.792C318.128 363.272 318.376 363.912 318.376 364.712C318.376 365.288 318.228 365.844 317.932 366.38C317.644 366.908 317.296 367.384 316.888 367.808C316.488 368.224 315.976 368.708 315.352 369.26L314.812 369.74H318.616V370.88H312.784V369.884L313.648 369.14ZM333.975 362.66L331.503 371H329.955L328.203 364.688L326.343 371L324.807 371.012L322.443 362.66H323.895L325.623 369.452L327.495 362.66H329.031L330.771 369.416L332.511 362.66H333.975ZM341.163 367.532C341.163 367.78 341.147 368.004 341.115 368.204H336.063C336.103 368.732 336.299 369.156 336.651 369.476C337.003 369.796 337.435 369.956 337.947 369.956C338.683 369.956 339.203 369.648 339.507 369.032H340.983C340.783 369.64 340.419 370.14 339.891 370.532C339.371 370.916 338.723 371.108 337.947 371.108C337.315 371.108 336.747 370.968 336.243 370.688C335.747 370.4 335.355 370 335.067 369.488C334.787 368.968 334.647 368.368 334.647 367.688C334.647 367.008 334.783 366.412 335.055 365.9C335.335 365.38 335.723 364.98 336.219 364.7C336.723 364.42 337.299 364.28 337.947 364.28C338.571 364.28 339.127 364.416 339.615 364.688C340.103 364.96 340.483 365.344 340.755 365.84C341.027 366.328 341.163 366.892 341.163 367.532ZM339.735 367.1C339.727 366.596 339.547 366.192 339.195 365.888C338.843 365.584 338.407 365.432 337.887 365.432C337.415 365.432 337.011 365.584 336.675 365.888C336.339 366.184 336.139 366.588 336.075 367.1H339.735ZM348.569 367.532C348.569 367.78 348.553 368.004 348.521 368.204H343.469C343.509 368.732 343.705 369.156 344.057 369.476C344.409 369.796 344.841 369.956 345.353 369.956C346.089 369.956 346.609 369.648 346.913 369.032H348.389C348.189 369.64 347.825 370.14 347.297 370.532C346.777 370.916 346.129 371.108 345.353 371.108C344.721 371.108 344.153 370.968 343.649 370.688C343.153 370.4 342.761 370 342.473 369.488C342.193 368.968 342.053 368.368 342.053 367.688C342.053 367.008 342.189 366.412 342.461 365.9C342.741 365.38 343.129 364.98 343.625 364.7C344.129 364.42 344.705 364.28 345.353 364.28C345.977 364.28 346.533 364.416 347.021 364.688C347.509 364.96 347.889 365.344 348.161 365.84C348.433 366.328 348.569 366.892 348.569 367.532ZM347.141 367.1C347.133 366.596 346.953 366.192 346.601 365.888C346.249 365.584 345.813 365.432 345.293 365.432C344.821 365.432 344.417 365.584 344.081 365.888C343.745 366.184 343.545 366.588 343.481 367.1H347.141ZM352.532 367.7L355.58 371H353.732L351.284 368.156V371H349.916V362.12H351.284V367.28L353.684 364.388H355.58L352.532 367.7Z" fill="#854BFF"/>
<rect x="18" y="353" width="154.933" height="28" rx="14" fill="white"/>
<path d="M43.624 362.66C44.512 362.66 45.288 362.832 45.952 363.176C46.624 363.512 47.14 364 47.5 364.64C47.868 365.272 48.052 366.012 48.052 366.86C48.052 367.708 47.868 368.444 47.5 369.068C47.14 369.692 46.624 370.172 45.952 370.508C45.288 370.836 44.512 371 43.624 371H40.9V362.66H43.624ZM43.624 369.884C44.6 369.884 45.348 369.62 45.868 369.092C46.388 368.564 46.648 367.82 46.648 366.86C46.648 365.892 46.388 365.136 45.868 364.592C45.348 364.048 44.6 363.776 43.624 363.776H42.268V369.884H43.624ZM50.1038 363.512C49.8558 363.512 49.6478 363.428 49.4798 363.26C49.3118 363.092 49.2278 362.884 49.2278 362.636C49.2278 362.388 49.3118 362.18 49.4798 362.012C49.6478 361.844 49.8558 361.76 50.1038 361.76C50.3438 361.76 50.5478 361.844 50.7158 362.012C50.8838 362.18 50.9678 362.388 50.9678 362.636C50.9678 362.884 50.8838 363.092 50.7158 363.26C50.5478 363.428 50.3438 363.512 50.1038 363.512ZM50.7758 364.388V371H49.4078V364.388H50.7758ZM55.3439 365.504H54.1199V371H52.7399V365.504H51.9599V364.388H52.7399V363.92C52.7399 363.16 52.9399 362.608 53.3399 362.264C53.7479 361.912 54.3839 361.736 55.2479 361.736V362.876C54.8319 362.876 54.5399 362.956 54.3719 363.116C54.2039 363.268 54.1199 363.536 54.1199 363.92V364.388H55.3439V365.504ZM59.3283 365.504H58.1043V371H56.7243V365.504H55.9443V364.388H56.7243V363.92C56.7243 363.16 56.9243 362.608 57.3243 362.264C57.7323 361.912 58.3683 361.736 59.2323 361.736V362.876C58.8163 362.876 58.5243 362.956 58.3563 363.116C58.1883 363.268 58.1043 363.536 58.1043 363.92V364.388H59.3283V365.504ZM61.2366 363.512C60.9886 363.512 60.7806 363.428 60.6126 363.26C60.4446 363.092 60.3606 362.884 60.3606 362.636C60.3606 362.388 60.4446 362.18 60.6126 362.012C60.7806 361.844 60.9886 361.76 61.2366 361.76C61.4766 361.76 61.6806 361.844 61.8486 362.012C62.0166 362.18 62.1006 362.388 62.1006 362.636C62.1006 362.884 62.0166 363.092 61.8486 363.26C61.6806 363.428 61.4766 363.512 61.2366 363.512ZM61.9086 364.388V371H60.5406V364.388H61.9086ZM63.2487 367.688C63.2487 367.008 63.3847 366.412 63.6567 365.9C63.9367 365.38 64.3207 364.98 64.8087 364.7C65.2967 364.42 65.8567 364.28 66.4887 364.28C67.2887 364.28 67.9487 364.472 68.4687 364.856C68.9967 365.232 69.3527 365.772 69.5367 366.476H68.0607C67.9407 366.148 67.7487 365.892 67.4847 365.708C67.2207 365.524 66.8887 365.432 66.4887 365.432C65.9287 365.432 65.4807 365.632 65.1447 366.032C64.8167 366.424 64.6527 366.976 64.6527 367.688C64.6527 368.4 64.8167 368.956 65.1447 369.356C65.4807 369.756 65.9287 369.956 66.4887 369.956C67.2807 369.956 67.8047 369.608 68.0607 368.912H69.5367C69.3447 369.584 68.9847 370.12 68.4567 370.52C67.9287 370.912 67.2727 371.108 66.4887 371.108C65.8567 371.108 65.2967 370.968 64.8087 370.688C64.3207 370.4 63.9367 370 63.6567 369.488C63.3847 368.968 63.2487 368.368 63.2487 367.688ZM76.888 364.388V371H75.52V370.22C75.304 370.492 75.02 370.708 74.668 370.868C74.324 371.02 73.956 371.096 73.564 371.096C73.044 371.096 72.576 370.988 72.16 370.772C71.752 370.556 71.428 370.236 71.188 369.812C70.956 369.388 70.84 368.876 70.84 368.276V364.388H72.196V368.072C72.196 368.664 72.344 369.12 72.64 369.44C72.936 369.752 73.34 369.908 73.852 369.908C74.364 369.908 74.768 369.752 75.064 369.44C75.368 369.12 75.52 368.664 75.52 368.072V364.388H76.888ZM80.061 362.12V371H78.693V362.12H80.061ZM83.453 365.504V369.164C83.453 369.412 83.509 369.592 83.621 369.704C83.741 369.808 83.941 369.86 84.221 369.86H85.061V371H83.981C83.365 371 82.893 370.856 82.565 370.568C82.237 370.28 82.073 369.812 82.073 369.164V365.504H81.293V364.388H82.073V362.744H83.453V364.388H85.061V365.504H83.453ZM92.2739 364.388L88.2179 374.108H86.8019L88.1459 370.892L85.5419 364.388H87.0659L88.9259 369.428L90.8579 364.388H92.2739ZM93.8583 371.084C93.6103 371.084 93.4023 371 93.2343 370.832C93.0663 370.664 92.9823 370.456 92.9823 370.208C92.9823 369.96 93.0663 369.752 93.2343 369.584C93.4023 369.416 93.6103 369.332 93.8583 369.332C94.0983 369.332 94.3023 369.416 94.4703 369.584C94.6383 369.752 94.7223 369.96 94.7223 370.208C94.7223 370.456 94.6383 370.664 94.4703 370.832C94.3023 371 94.0983 371.084 93.8583 371.084ZM93.8583 366.044C93.6103 366.044 93.4023 365.96 93.2343 365.792C93.0663 365.624 92.9823 365.416 92.9823 365.168C92.9823 364.92 93.0663 364.712 93.2343 364.544C93.4023 364.376 93.6103 364.292 93.8583 364.292C94.0983 364.292 94.3023 364.376 94.4703 364.544C94.6383 364.712 94.7223 364.92 94.7223 365.168C94.7223 365.416 94.6383 365.624 94.4703 365.792C94.3023 365.96 94.0983 366.044 93.8583 366.044ZM108.149 362.66V371H106.781V365.288L104.237 371H103.289L100.733 365.288V371H99.3648V362.66H100.841L103.769 369.2L106.685 362.66H108.149ZM116.007 367.532C116.007 367.78 115.991 368.004 115.959 368.204H110.907C110.947 368.732 111.143 369.156 111.495 369.476C111.847 369.796 112.279 369.956 112.791 369.956C113.527 369.956 114.047 369.648 114.351 369.032H115.827C115.627 369.64 115.263 370.14 114.735 370.532C114.215 370.916 113.567 371.108 112.791 371.108C112.159 371.108 111.591 370.968 111.087 370.688C110.591 370.4 110.199 370 109.911 369.488C109.631 368.968 109.491 368.368 109.491 367.688C109.491 367.008 109.627 366.412 109.899 365.9C110.179 365.38 110.567 364.98 111.063 364.7C111.567 364.42 112.143 364.28 112.791 364.28C113.415 364.28 113.971 364.416 114.459 364.688C114.947 364.96 115.327 365.344 115.599 365.84C115.871 366.328 116.007 366.892 116.007 367.532ZM114.579 367.1C114.571 366.596 114.391 366.192 114.039 365.888C113.687 365.584 113.251 365.432 112.731 365.432C112.259 365.432 111.855 365.584 111.519 365.888C111.183 366.184 110.983 366.588 110.919 367.1H114.579ZM116.897 367.664C116.897 367 117.033 366.412 117.305 365.9C117.585 365.388 117.961 364.992 118.433 364.712C118.913 364.424 119.445 364.28 120.029 364.28C120.461 364.28 120.885 364.376 121.301 364.568C121.725 364.752 122.061 365 122.309 365.312V362.12H123.689V371H122.309V370.004C122.085 370.324 121.773 370.588 121.373 370.796C120.981 371.004 120.529 371.108 120.017 371.108C119.441 371.108 118.913 370.964 118.433 370.676C117.961 370.38 117.585 369.972 117.305 369.452C117.033 368.924 116.897 368.328 116.897 367.664ZM122.309 367.688C122.309 367.232 122.213 366.836 122.021 366.5C121.837 366.164 121.593 365.908 121.289 365.732C120.985 365.556 120.657 365.468 120.305 365.468C119.953 365.468 119.625 365.556 119.321 365.732C119.017 365.9 118.769 366.152 118.577 366.488C118.393 366.816 118.301 367.208 118.301 367.664C118.301 368.12 118.393 368.52 118.577 368.864C118.769 369.208 119.017 369.472 119.321 369.656C119.633 369.832 119.961 369.92 120.305 369.92C120.657 369.92 120.985 369.832 121.289 369.656C121.593 369.48 121.837 369.224 122.021 368.888C122.213 368.544 122.309 368.144 122.309 367.688ZM126.182 363.512C125.934 363.512 125.726 363.428 125.558 363.26C125.39 363.092 125.306 362.884 125.306 362.636C125.306 362.388 125.39 362.18 125.558 362.012C125.726 361.844 125.934 361.76 126.182 361.76C126.422 361.76 126.626 361.844 126.794 362.012C126.962 362.18 127.046 362.388 127.046 362.636C127.046 362.884 126.962 363.092 126.794 363.26C126.626 363.428 126.422 363.512 126.182 363.512ZM126.854 364.388V371H125.486V364.388H126.854ZM134.638 364.388V371H133.27V370.22C133.054 370.492 132.77 370.708 132.418 370.868C132.074 371.02 131.706 371.096 131.314 371.096C130.794 371.096 130.326 370.988 129.91 370.772C129.502 370.556 129.178 370.236 128.938 369.812C128.706 369.388 128.59 368.876 128.59 368.276V364.388H129.946V368.072C129.946 368.664 130.094 369.12 130.39 369.44C130.686 369.752 131.09 369.908 131.602 369.908C132.114 369.908 132.518 369.752 132.814 369.44C133.118 369.12 133.27 368.664 133.27 368.072V364.388H134.638ZM144.447 364.28C144.967 364.28 145.431 364.388 145.839 364.604C146.255 364.82 146.579 365.14 146.811 365.564C147.051 365.988 147.171 366.5 147.171 367.1V371H145.815V367.304C145.815 366.712 145.667 366.26 145.371 365.948C145.075 365.628 144.671 365.468 144.159 365.468C143.647 365.468 143.239 365.628 142.935 365.948C142.639 366.26 142.491 366.712 142.491 367.304V371H141.135V367.304C141.135 366.712 140.987 366.26 140.691 365.948C140.395 365.628 139.991 365.468 139.479 365.468C138.967 365.468 138.559 365.628 138.255 365.948C137.959 366.26 137.811 366.712 137.811 367.304V371H136.443V364.388H137.811V365.144C138.035 364.872 138.319 364.66 138.663 364.508C139.007 364.356 139.375 364.28 139.767 364.28C140.295 364.28 140.767 364.392 141.183 364.616C141.599 364.84 141.919 365.164 142.143 365.588C142.343 365.188 142.655 364.872 143.079 364.64C143.503 364.4 143.959 364.28 144.447 364.28Z" fill="#854BFF"/>
</svg>
