<svg width="116" height="159" viewBox="0 0 116 159" fill="none" xmlns="http://www.w3.org/2000/svg">
<mask id="mask0_5_2" style="mask-type:luminance" maskUnits="userSpaceOnUse" x="0" y="84" width="116" height="75">
<path d="M21.0678 134.408C37.6339 148.695 57.9235 158.839 57.9235 158.839C57.9235 158.839 78.2135 148.695 94.7802 134.408C103.797 126.632 111.712 117.628 114.65 108.366C115.327 106.231 115.74 104.081 115.842 101.931C116.014 98.2698 112.908 95.5354 110.098 93.7255C103.42 89.427 89.0121 84.789 57.9235 84.789C26.8339 84.789 12.4261 89.427 5.74902 93.7255C2.9386 95.5338 -0.165046 98.2682 0.00682996 101.929C0.107872 104.081 0.521413 106.229 1.1985 108.366C4.13704 117.628 12.0511 126.632 21.0678 134.408Z" fill="white"/>
</mask>
<g mask="url(#mask0_5_2)">
<mask id="mask1_5_2" style="mask-type:luminance" maskUnits="userSpaceOnUse" x="0" y="84" width="116" height="75">
<path d="M21.0678 134.408C37.6339 148.695 57.9235 158.839 57.9235 158.839C57.9235 158.839 78.2135 148.695 94.7802 134.408C103.797 126.632 111.712 117.628 114.65 108.366C115.327 106.231 115.74 104.081 115.842 101.931C116.014 98.2698 112.908 95.5354 110.098 93.7255C103.42 89.427 89.0121 84.789 57.9235 84.789C26.8339 84.789 12.4261 89.427 5.74902 93.7255C2.9386 95.5338 -0.165046 98.2682 0.00682996 101.929C0.107872 104.081 0.521413 106.229 1.1985 108.366C4.13704 117.628 12.0511 126.632 21.0678 134.408Z" fill="white"/>
</mask>
<g mask="url(#mask1_5_2)">
<path d="M21.0685 134.412C37.6334 148.697 57.9272 158.841 57.9272 158.841C57.9272 143.076 57.9272 134.536 57.9272 118.765C32.9689 118.619 4.14116 117.63 1.2065 108.367C4.14116 117.63 12.0589 126.635 21.0737 134.412H21.0685Z" fill="#1F7CBC"/>
<path d="M57.9275 158.841C57.9275 158.841 78.2161 148.697 94.781 134.412C103.801 126.635 111.713 117.63 114.653 108.367C111.713 117.63 82.7994 118.619 57.9223 118.765C57.9223 134.536 57.9223 143.076 57.9223 158.841H57.9275Z" fill="#1F7CBC"/>
<path d="M1.20259 108.366C4.13726 117.629 32.965 118.618 57.9233 118.764C57.9233 117.775 57.9233 116.97 57.9233 116.132C31.3437 114.652 4.49912 113.257 0.386185 105.156C0.586185 106.231 0.862058 107.301 1.20259 108.366Z" fill="#1F7CBC"/>
<path d="M0.385534 105.156C4.49847 113.257 31.343 114.652 57.9226 116.132C57.9226 115.289 57.9226 114.419 57.9226 113.295C29.7272 110.485 5.29288 108.874 0.00727844 101.929C0.0566118 103.005 0.185534 104.08 0.385534 105.156Z" fill="#1E7ABB"/>
<path d="M0.00698185 101.93C5.29258 108.875 29.7269 110.485 57.9223 113.296C57.9223 112.345 57.9223 111.209 57.9223 109.766C29.2729 107.399 5.94114 104.545 0.439274 99.3571C0.125807 100.157 -0.0308848 101.017 0.00698185 101.93Z" fill="#1B74B4"/>
<path d="M0.438919 99.3567C5.94079 104.545 29.2725 107.398 57.922 109.766C57.922 108.323 57.922 106.567 57.922 104.367C28.278 102.967 7.74073 98.454 1.75793 97.1354C1.2066 97.8163 0.747052 98.5567 0.438919 99.3567Z" fill="#196CA9"/>
<path d="M1.75923 97.1369C7.74203 98.4555 28.2793 102.969 57.9233 104.369C57.9233 102.169 57.9233 99.5258 57.9233 96.31C27.2849 95.867 10.1037 92.7165 3.6453 95.2566C2.9589 95.8241 2.3159 96.4505 1.75923 97.1369Z" fill="#15619D"/>
<path d="M3.64432 95.2552C10.1027 92.715 27.2839 95.8655 57.9223 96.3086C57.9223 93.0875 57.9223 89.2936 57.9223 84.7916C26.8301 84.7916 12.4212 89.4286 5.74654 93.7252C5.044 94.1792 4.32005 94.6877 3.63911 95.2552H3.64432Z" fill="#10548C"/>
<path d="M57.9223 118.764C82.7994 118.618 111.713 117.629 114.653 108.366C114.988 107.301 115.264 106.231 115.464 105.156C111.351 113.257 84.4315 114.652 57.9223 116.132C57.9223 116.97 57.9223 117.775 57.9223 118.764Z" fill="#1F7CBC"/>
<path d="M57.9223 116.133C84.4315 114.652 111.351 113.258 115.464 105.157C115.664 104.081 115.794 103.011 115.842 101.935C110.557 108.875 86.0638 110.491 57.9223 113.296C57.9223 114.42 57.9223 115.295 57.9223 116.133Z" fill="#1E7ABB"/>
<path d="M57.9223 113.296C86.0638 110.491 110.557 108.874 115.842 101.935C115.885 101.016 115.724 100.162 115.416 99.3619C109.909 104.545 86.5286 107.399 57.9223 109.772C57.9223 111.215 57.9223 112.344 57.9223 113.296Z" fill="#1B74B4"/>
<path d="M57.9223 109.772C86.5286 107.399 109.909 104.545 115.416 99.3619C115.102 98.5621 114.643 97.8218 114.092 97.1354C108.109 98.454 87.5391 102.967 57.9223 104.372C57.9223 106.572 57.9223 108.324 57.9223 109.772Z" fill="#196CA9"/>
<path d="M57.9223 104.373C87.5391 102.968 108.109 98.4547 114.092 97.1361C113.535 96.4497 112.892 95.8285 112.206 95.2611C105.747 92.7155 88.5552 95.8715 57.9223 96.3093C57.9223 99.5305 57.9223 102.173 57.9223 104.373Z" fill="#15619D"/>
<path d="M57.9223 96.3086C88.5552 95.8708 105.747 92.7148 112.206 95.2604C111.525 94.6874 110.8 94.1792 110.097 93.7252C103.423 89.4286 89.0144 84.7916 57.9275 84.7916C57.9275 89.2936 57.9275 93.0875 57.9275 96.3086H57.9223Z" fill="#10548C"/>
</g>
</g>
<path d="M0 28.5094V62.3687C0 62.3687 19.3131 52.587 57.9412 52.587C96.5688 52.587 115.883 62.3687 115.883 62.3687V3.93204C115.883 2.28404 114.654 0.909378 113.017 0.720045C106.081 -0.0826219 86.888 -1.35862 59.0469 4.24138C24.7344 11.1427 6.34688 22.4494 1.38907 25.852C0.509896 26.4574 0 27.4427 0 28.5094Z" fill="#2CB9F1"/>
</svg>
