<svg width="407" height="159" viewBox="0 0 407 159" fill="none" xmlns="http://www.w3.org/2000/svg">
<mask id="mask0_3_46" style="mask-type:luminance" maskUnits="userSpaceOnUse" x="0" y="84" width="116" height="75">
<path d="M21.0678 134.403C37.6339 148.689 57.9235 158.833 57.9235 158.833C57.9235 158.833 78.2135 148.689 94.7802 134.403C103.797 126.626 111.712 117.622 114.65 108.361C115.327 106.225 115.74 104.075 115.842 101.926C116.014 98.2644 112.908 95.53 110.098 93.7201C103.42 89.4216 89.0121 84.7836 57.9235 84.7836C26.8339 84.7836 12.4261 89.4216 5.74902 93.7201C2.9386 95.5284 -0.165046 98.2628 0.00682996 101.923C0.107872 104.075 0.521413 106.224 1.1985 108.361C4.13704 117.622 12.0511 126.626 21.0678 134.403Z" fill="white"/>
</mask>
<g mask="url(#mask0_3_46)">
<mask id="mask1_3_46" style="mask-type:luminance" maskUnits="userSpaceOnUse" x="0" y="84" width="116" height="75">
<path d="M21.0678 134.403C37.6339 148.689 57.9235 158.833 57.9235 158.833C57.9235 158.833 78.2135 148.689 94.7802 134.403C103.797 126.626 111.712 117.622 114.65 108.361C115.327 106.225 115.74 104.075 115.842 101.926C116.014 98.2644 112.908 95.53 110.098 93.7201C103.42 89.4216 89.0121 84.7836 57.9235 84.7836C26.8339 84.7836 12.4261 89.4216 5.74902 93.7201C2.9386 95.5284 -0.165046 98.2628 0.00682996 101.923C0.107872 104.075 0.521413 106.224 1.1985 108.361C4.13704 117.622 12.0511 126.626 21.0678 134.403Z" fill="white"/>
</mask>
<g mask="url(#mask1_3_46)">
<path d="M21.0685 134.407C37.6334 148.691 57.9272 158.835 57.9272 158.835C57.9272 143.07 57.9272 134.53 57.9272 118.76C32.9689 118.614 4.14116 117.625 1.2065 108.361C4.14116 117.625 12.0589 126.63 21.0737 134.407H21.0685Z" fill="#1F7CBC"/>
<path d="M57.9275 158.835C57.9275 158.835 78.2161 148.691 94.781 134.407C103.801 126.63 111.713 117.625 114.653 108.361C111.713 117.625 82.7994 118.614 57.9223 118.76C57.9223 134.53 57.9223 143.07 57.9223 158.835H57.9275Z" fill="#1F7CBC"/>
<path d="M1.20259 108.36C4.13726 117.623 32.965 118.613 57.9233 118.759C57.9233 117.77 57.9233 116.965 57.9233 116.127C31.3437 114.646 4.49912 113.252 0.386185 105.151C0.586185 106.226 0.862058 107.295 1.20259 108.36Z" fill="#1F7CBC"/>
<path d="M0.385534 105.151C4.49847 113.252 31.343 114.646 57.9226 116.127C57.9226 115.284 57.9226 114.414 57.9226 113.29C29.7272 110.479 5.29288 108.869 0.00727844 101.924C0.0566118 102.999 0.185534 104.075 0.385534 105.151Z" fill="#1E7ABB"/>
<path d="M0.00698185 101.925C5.29258 108.869 29.7269 110.48 57.9223 113.29C57.9223 112.339 57.9223 111.204 57.9223 109.761C29.2729 107.393 5.94114 104.54 0.439274 99.3517C0.125807 100.152 -0.0308848 101.011 0.00698185 101.925Z" fill="#1B74B4"/>
<path d="M0.438919 99.3514C5.94079 104.54 29.2725 107.393 57.922 109.76C57.922 108.317 57.922 106.561 57.922 104.362C28.278 102.962 7.74073 98.4487 1.75793 97.13C1.2066 97.8109 0.747052 98.5514 0.438919 99.3514Z" fill="#196CA9"/>
<path d="M1.75923 97.1315C7.74203 98.4502 28.2793 102.963 57.9233 104.363C57.9233 102.164 57.9233 99.5204 57.9233 96.3047C27.2849 95.8616 10.1037 92.7111 3.6453 95.2513C2.9589 95.8187 2.3159 96.4451 1.75923 97.1315Z" fill="#15619D"/>
<path d="M3.64432 95.2498C10.1027 92.7097 27.2839 95.8601 57.9223 96.3032C57.9223 93.0821 57.9223 89.2883 57.9223 84.7863C26.8301 84.7863 12.4212 89.4232 5.74654 93.7198C5.044 94.1738 4.32005 94.6823 3.63911 95.2498H3.64432Z" fill="#10548C"/>
<path d="M57.9223 118.759C82.7994 118.613 111.713 117.623 114.653 108.36C114.988 107.295 115.264 106.226 115.464 105.151C111.351 113.252 84.4315 114.646 57.9223 116.127C57.9223 116.965 57.9223 117.77 57.9223 118.759Z" fill="#1F7CBC"/>
<path d="M57.9223 116.128C84.4315 114.647 111.351 113.252 115.464 105.151C115.664 104.076 115.794 103.005 115.842 101.93C110.557 108.869 86.0638 110.486 57.9223 113.29C57.9223 114.415 57.9223 115.29 57.9223 116.128Z" fill="#1E7ABB"/>
<path d="M57.9223 113.29C86.0638 110.485 110.557 108.869 115.842 101.929C115.885 101.011 115.724 100.156 115.416 99.3566C109.909 104.54 86.5286 107.394 57.9223 109.767C57.9223 111.21 57.9223 112.339 57.9223 113.29Z" fill="#1B74B4"/>
<path d="M57.9223 109.767C86.5286 107.394 109.909 104.54 115.416 99.3566C115.102 98.5567 114.643 97.8164 114.092 97.13C108.109 98.4487 87.5391 102.962 57.9223 104.367C57.9223 106.567 57.9223 108.318 57.9223 109.767Z" fill="#196CA9"/>
<path d="M57.9223 104.368C87.5391 102.962 108.109 98.4494 114.092 97.1307C113.535 96.4443 112.892 95.8232 112.206 95.2557C105.747 92.7101 88.5552 95.8662 57.9223 96.3039C57.9223 99.5251 57.9223 102.168 57.9223 104.368Z" fill="#15619D"/>
<path d="M57.9223 96.3032C88.5552 95.8654 105.747 92.7094 112.206 95.255C111.525 94.6821 110.8 94.1738 110.097 93.7198C103.423 89.4232 89.0144 84.7863 57.9275 84.7863C57.9275 89.2883 57.9275 93.0821 57.9275 96.3032H57.9223Z" fill="#10548C"/>
</g>
</g>
<path d="M0 28.504V62.3633C0 62.3633 19.3131 52.5816 57.9412 52.5816C96.5688 52.5816 115.883 62.3633 115.883 62.3633V3.92667C115.883 2.27867 114.654 0.904007 113.017 0.714674C106.081 -0.087993 86.888 -1.36399 59.0469 4.23601C24.7344 11.1373 6.34688 22.444 1.38907 25.8467C0.509896 26.452 0 27.4373 0 28.504Z" fill="#2CB9F1"/>
<path d="M147.876 53V26.8182H157.209C159.246 26.8182 160.933 27.1889 162.271 27.9304C163.609 28.6719 164.611 29.6861 165.276 30.973C165.94 32.2514 166.273 33.6918 166.273 35.294C166.273 36.9048 165.936 38.3537 165.263 39.6406C164.598 40.919 163.592 41.9332 162.246 42.6832C160.908 43.4247 159.224 43.7955 157.196 43.7955H150.778V40.446H156.838C158.125 40.446 159.169 40.2244 159.97 39.7812C160.771 39.3295 161.359 38.7159 161.734 37.9403C162.109 37.1648 162.297 36.2827 162.297 35.294C162.297 34.3054 162.109 33.4276 161.734 32.6605C161.359 31.8935 160.767 31.2926 159.957 30.858C159.156 30.4233 158.099 30.206 156.787 30.206H151.827V53H147.876ZM170.904 53V26.8182H180.236C182.265 26.8182 183.948 27.1676 185.286 27.8665C186.632 28.5653 187.638 29.5327 188.303 30.7685C188.968 31.9957 189.3 33.4148 189.3 35.0256C189.3 36.6278 188.963 38.0384 188.29 39.2571C187.625 40.4673 186.62 41.4091 185.273 42.0824C183.935 42.7557 182.252 43.0923 180.223 43.0923H173.154V39.6918H179.865C181.144 39.6918 182.184 39.5085 182.985 39.142C183.794 38.7756 184.387 38.2429 184.762 37.544C185.137 36.8452 185.324 36.0057 185.324 35.0256C185.324 34.0369 185.132 33.1804 184.749 32.456C184.374 31.7315 183.782 31.1776 182.972 30.794C182.171 30.402 181.118 30.206 179.814 30.206H174.854V53H170.904ZM183.828 41.1875L190.297 53H185.797L179.456 41.1875H183.828ZM216.85 39.9091C216.85 42.7045 216.338 45.108 215.316 47.1193C214.293 49.1222 212.891 50.6648 211.11 51.7472C209.337 52.821 207.321 53.358 205.063 53.358C202.796 53.358 200.772 52.821 198.99 51.7472C197.218 50.6648 195.82 49.1179 194.797 47.1065C193.775 45.0952 193.263 42.696 193.263 39.9091C193.263 37.1136 193.775 34.7145 194.797 32.7116C195.82 30.7003 197.218 29.1577 198.99 28.0838C200.772 27.0014 202.796 26.4602 205.063 26.4602C207.321 26.4602 209.337 27.0014 211.11 28.0838C212.891 29.1577 214.293 30.7003 215.316 32.7116C216.338 34.7145 216.85 37.1136 216.85 39.9091ZM212.938 39.9091C212.938 37.7784 212.593 35.9844 211.902 34.527C211.221 33.0611 210.283 31.9531 209.09 31.2031C207.905 30.4446 206.563 30.0653 205.063 30.0653C203.554 30.0653 202.208 30.4446 201.023 31.2031C199.838 31.9531 198.901 33.0611 198.211 34.527C197.529 35.9844 197.188 37.7784 197.188 39.9091C197.188 42.0398 197.529 43.8381 198.211 45.304C198.901 46.7614 199.838 47.8693 201.023 48.6278C202.208 49.3778 203.554 49.7528 205.063 49.7528C206.563 49.7528 207.905 49.3778 209.09 48.6278C210.283 47.8693 211.221 46.7614 211.902 45.304C212.593 43.8381 212.938 42.0398 212.938 39.9091ZM231.951 26.8182H235.888V45.3807C235.888 47.0597 235.556 48.4957 234.891 49.6889C234.235 50.8821 233.31 51.794 232.117 52.4247C230.924 53.0469 229.526 53.358 227.924 53.358C226.45 53.358 225.124 53.0895 223.948 52.5526C222.781 52.0156 221.856 51.2358 221.174 50.2131C220.501 49.1818 220.164 47.929 220.164 46.4545H224.089C224.089 47.179 224.255 47.8054 224.587 48.3338C224.928 48.8622 225.393 49.2756 225.981 49.5739C226.577 49.8636 227.259 50.0085 228.026 50.0085C228.862 50.0085 229.569 49.8338 230.148 49.4844C230.737 49.1264 231.184 48.6023 231.491 47.9119C231.798 47.2216 231.951 46.3778 231.951 45.3807V26.8182ZM241.638 53V26.8182H258.053V30.2188H245.588V38.196H257.196V41.5838H245.588V49.5994H258.206V53H241.638ZM285.075 35.3324H281.087C280.933 34.4801 280.648 33.7301 280.23 33.0824C279.813 32.4347 279.301 31.8849 278.696 31.4332C278.091 30.9815 277.413 30.6406 276.663 30.4105C275.922 30.1804 275.134 30.0653 274.298 30.0653C272.79 30.0653 271.439 30.4446 270.246 31.2031C269.061 31.9616 268.124 33.0739 267.433 34.5398C266.751 36.0057 266.411 37.7955 266.411 39.9091C266.411 42.0398 266.751 43.8381 267.433 45.304C268.124 46.7699 269.065 47.8778 270.259 48.6278C271.452 49.3778 272.794 49.7528 274.286 49.7528C275.112 49.7528 275.896 49.642 276.638 49.4205C277.388 49.1903 278.065 48.8537 278.67 48.4105C279.276 47.9673 279.787 47.4261 280.205 46.7869C280.631 46.1392 280.925 45.3977 281.087 44.5625L285.075 44.5753C284.862 45.8622 284.449 47.0469 283.835 48.1293C283.23 49.2031 282.45 50.1321 281.496 50.9162C280.55 51.6918 279.467 52.2926 278.249 52.7188C277.03 53.1449 275.7 53.358 274.26 53.358C271.993 53.358 269.973 52.821 268.2 51.7472C266.428 50.6648 265.03 49.1179 264.007 47.1065C262.993 45.0952 262.486 42.696 262.486 39.9091C262.486 37.1136 262.997 34.7145 264.02 32.7116C265.043 30.7003 266.44 29.1577 268.213 28.0838C269.986 27.0014 272.001 26.4602 274.26 26.4602C275.649 26.4602 276.945 26.6605 278.146 27.0611C279.357 27.4531 280.443 28.0327 281.406 28.7997C282.369 29.5582 283.166 30.4872 283.797 31.5866C284.428 32.6776 284.854 33.9261 285.075 35.3324ZM288.511 30.2188V26.8182H308.774V30.2188H300.605V53H296.667V30.2188H288.511Z" fill="#1868A5"/>
<path d="M147.876 70.8182H152.67L161.006 91.1705H161.312L169.648 70.8182H174.442V97H170.683V78.054H170.44L162.719 96.9616H159.599L151.878 78.0412H151.635V97H147.876V70.8182ZM182.397 97H178.203L187.625 70.8182H192.189L201.611 97H197.418L190.016 75.5739H189.811L182.397 97ZM183.1 86.7472H196.702V90.071H183.1V86.7472ZM226.524 70.8182V97H222.893L209.585 77.7983H209.342V97H205.392V70.8182H209.048L222.369 90.0455H222.612V70.8182H226.524ZM234.498 97H230.305L239.727 70.8182H244.291L253.713 97H249.52L242.118 75.5739H241.913L234.498 97ZM235.201 86.7472H248.804V90.071H235.201V86.7472ZM273.982 79.0895C273.735 78.3139 273.402 77.6193 272.985 77.0057C272.576 76.3835 272.086 75.8551 271.515 75.4205C270.944 74.9773 270.292 74.6406 269.559 74.4105C268.834 74.1804 268.037 74.0653 267.168 74.0653C265.694 74.0653 264.364 74.4446 263.179 75.2031C261.995 75.9616 261.057 77.0739 260.367 78.5398C259.685 79.9972 259.344 81.7827 259.344 83.8963C259.344 86.0185 259.689 87.8125 260.38 89.2784C261.07 90.7443 262.016 91.8565 263.218 92.6151C264.419 93.3736 265.787 93.7528 267.321 93.7528C268.745 93.7528 269.985 93.4631 271.042 92.8835C272.107 92.304 272.929 91.4858 273.509 90.429C274.097 89.3636 274.391 88.1108 274.391 86.6705L275.414 86.8622H267.922V83.6023H278.213V86.581C278.213 88.7798 277.745 90.6889 276.807 92.3082C275.878 93.919 274.591 95.1634 272.946 96.0412C271.31 96.919 269.435 97.358 267.321 97.358C264.952 97.358 262.873 96.8125 261.083 95.7216C259.301 94.6307 257.912 93.0838 256.915 91.081C255.918 89.0696 255.419 86.6832 255.419 83.9219C255.419 81.8338 255.709 79.9588 256.289 78.2969C256.868 76.6349 257.682 75.2244 258.73 74.0653C259.787 72.8977 261.027 72.0071 262.451 71.3935C263.882 70.7713 265.446 70.4602 267.142 70.4602C268.557 70.4602 269.874 70.669 271.093 71.0866C272.32 71.5043 273.411 72.0966 274.365 72.8636C275.328 73.6307 276.125 74.5426 276.756 75.5994C277.387 76.6477 277.813 77.8111 278.034 79.0895H273.982ZM283.228 97V70.8182H299.643V74.2188H287.178V82.196H298.786V85.5838H287.178V93.5994H299.796V97H283.228ZM304.919 70.8182H309.713L318.049 91.1705H318.355L326.691 70.8182H331.485V97H327.726V78.054H327.483L319.762 96.9616H316.642L308.921 78.0412H308.678V97H304.919V70.8182ZM337.228 97V70.8182H353.643V74.2188H341.178V82.196H352.786V85.5838H341.178V93.5994H353.796V97H337.228ZM380.051 70.8182V97H376.421L363.113 77.7983H362.87V97H358.919V70.8182H362.576L375.897 90.0455H376.14V70.8182H380.051ZM384.523 74.2188V70.8182H404.786V74.2188H396.616V97H392.679V74.2188H384.523Z" fill="#2CB9F1"/>
<path d="M148.78 119.62C149.167 119.087 149.693 118.653 150.36 118.32C151.04 117.973 151.793 117.8 152.62 117.8C153.593 117.8 154.473 118.033 155.26 118.5C156.047 118.967 156.667 119.633 157.12 120.5C157.573 121.353 157.8 122.333 157.8 123.44C157.8 124.547 157.573 125.54 157.12 126.42C156.667 127.287 156.04 127.967 155.24 128.46C154.453 128.94 153.58 129.18 152.62 129.18C151.767 129.18 151.007 129.013 150.34 128.68C149.687 128.347 149.167 127.92 148.78 127.4V129H146.5V114.2H148.78V119.62ZM155.48 123.44C155.48 122.68 155.32 122.027 155 121.48C154.693 120.92 154.28 120.5 153.76 120.22C153.253 119.927 152.707 119.78 152.12 119.78C151.547 119.78 151 119.927 150.48 120.22C149.973 120.513 149.56 120.94 149.24 121.5C148.933 122.06 148.78 122.72 148.78 123.48C148.78 124.24 148.933 124.907 149.24 125.48C149.56 126.04 149.973 126.467 150.48 126.76C151 127.053 151.547 127.2 152.12 127.2C152.707 127.2 153.253 127.053 153.76 126.76C154.28 126.453 154.693 126.013 155 125.44C155.32 124.867 155.48 124.2 155.48 123.44ZM169.975 117.98L163.215 134.18H160.855L163.095 128.82L158.755 117.98H161.295L164.395 126.38L167.615 117.98H169.975ZM183.231 129.14C181.937 129.14 180.744 128.84 179.651 128.24C178.571 127.627 177.711 126.78 177.071 125.7C176.444 124.607 176.131 123.38 176.131 122.02C176.131 120.66 176.444 119.44 177.071 118.36C177.711 117.28 178.571 116.44 179.651 115.84C180.744 115.227 181.937 114.92 183.231 114.92C184.537 114.92 185.731 115.227 186.811 115.84C187.904 116.44 188.764 117.28 189.391 118.36C190.017 119.44 190.331 120.66 190.331 122.02C190.331 123.38 190.017 124.607 189.391 125.7C188.764 126.78 187.904 127.627 186.811 128.24C185.731 128.84 184.537 129.14 183.231 129.14ZM183.231 127.16C184.151 127.16 184.971 126.953 185.691 126.54C186.411 126.113 186.971 125.513 187.371 124.74C187.784 123.953 187.991 123.047 187.991 122.02C187.991 120.993 187.784 120.093 187.371 119.32C186.971 118.547 186.411 117.953 185.691 117.54C184.971 117.127 184.151 116.92 183.231 116.92C182.311 116.92 181.491 117.127 180.771 117.54C180.051 117.953 179.484 118.547 179.071 119.32C178.671 120.093 178.471 120.993 178.471 122.02C178.471 123.047 178.671 123.953 179.071 124.74C179.484 125.513 180.051 126.113 180.771 126.54C181.491 126.953 182.311 127.16 183.231 127.16ZM191.814 123.44C191.814 122.333 192.041 121.353 192.494 120.5C192.961 119.647 193.588 118.987 194.374 118.52C195.174 118.04 196.061 117.8 197.034 117.8C197.754 117.8 198.461 117.96 199.154 118.28C199.861 118.587 200.421 119 200.834 119.52V114.2H203.134V129H200.834V127.34C200.461 127.873 199.941 128.313 199.274 128.66C198.621 129.007 197.868 129.18 197.014 129.18C196.054 129.18 195.174 128.94 194.374 128.46C193.588 127.967 192.961 127.287 192.494 126.42C192.041 125.54 191.814 124.547 191.814 123.44ZM200.834 123.48C200.834 122.72 200.674 122.06 200.354 121.5C200.048 120.94 199.641 120.513 199.134 120.22C198.628 119.927 198.081 119.78 197.494 119.78C196.908 119.78 196.361 119.927 195.854 120.22C195.348 120.5 194.934 120.92 194.614 121.48C194.308 122.027 194.154 122.68 194.154 123.44C194.154 124.2 194.308 124.867 194.614 125.44C194.934 126.013 195.348 126.453 195.854 126.76C196.374 127.053 196.921 127.2 197.494 127.2C198.081 127.2 198.628 127.053 199.134 126.76C199.641 126.467 200.048 126.04 200.354 125.48C200.674 124.907 200.834 124.24 200.834 123.48ZM210.909 129.18C209.869 129.18 208.929 128.947 208.089 128.48C207.249 128 206.589 127.333 206.109 126.48C205.629 125.613 205.389 124.613 205.389 123.48C205.389 122.36 205.636 121.367 206.129 120.5C206.622 119.633 207.296 118.967 208.149 118.5C209.002 118.033 209.956 117.8 211.009 117.8C212.062 117.8 213.016 118.033 213.869 118.5C214.722 118.967 215.396 119.633 215.889 120.5C216.382 121.367 216.629 122.36 216.629 123.48C216.629 124.6 216.376 125.593 215.869 126.46C215.362 127.327 214.669 128 213.789 128.48C212.922 128.947 211.962 129.18 210.909 129.18ZM210.909 127.2C211.496 127.2 212.042 127.06 212.549 126.78C213.069 126.5 213.489 126.08 213.809 125.52C214.129 124.96 214.289 124.28 214.289 123.48C214.289 122.68 214.136 122.007 213.829 121.46C213.522 120.9 213.116 120.48 212.609 120.2C212.102 119.92 211.556 119.78 210.969 119.78C210.382 119.78 209.836 119.92 209.329 120.2C208.836 120.48 208.442 120.9 208.149 121.46C207.856 122.007 207.709 122.68 207.709 123.48C207.709 124.667 208.009 125.587 208.609 126.24C209.222 126.88 209.989 127.2 210.909 127.2ZM226.358 116.94V121.02H231.158V122.88H226.358V127.14H231.758V129H224.078V115.08H231.758V116.94H226.358ZM239.186 119.84H237.146V129H234.846V119.84H233.546V117.98H234.846V117.2C234.846 115.933 235.18 115.013 235.846 114.44C236.526 113.853 237.586 113.56 239.026 113.56V115.46C238.333 115.46 237.846 115.593 237.566 115.86C237.286 116.113 237.146 116.56 237.146 117.2V117.98H239.186V119.84ZM245.827 119.84H243.787V129H241.487V119.84H240.187V117.98H241.487V117.2C241.487 115.933 241.82 115.013 242.487 114.44C243.167 113.853 244.227 113.56 245.667 113.56V115.46C244.974 115.46 244.487 115.593 244.207 115.86C243.927 116.113 243.787 116.56 243.787 117.2V117.98H245.827V119.84ZM249.008 116.52C248.594 116.52 248.248 116.38 247.968 116.1C247.688 115.82 247.548 115.473 247.548 115.06C247.548 114.647 247.688 114.3 247.968 114.02C248.248 113.74 248.594 113.6 249.008 113.6C249.408 113.6 249.748 113.74 250.028 114.02C250.308 114.3 250.448 114.647 250.448 115.06C250.448 115.473 250.308 115.82 250.028 116.1C249.748 116.38 249.408 116.52 249.008 116.52ZM250.128 117.98V129H247.848V117.98H250.128ZM257.901 129.18C256.861 129.18 255.921 128.947 255.081 128.48C254.241 128 253.581 127.333 253.101 126.48C252.621 125.613 252.381 124.613 252.381 123.48C252.381 122.36 252.628 121.367 253.121 120.5C253.614 119.633 254.288 118.967 255.141 118.5C255.994 118.033 256.948 117.8 258.001 117.8C259.054 117.8 260.008 118.033 260.861 118.5C261.714 118.967 262.388 119.633 262.881 120.5C263.374 121.367 263.621 122.36 263.621 123.48C263.621 124.6 263.368 125.593 262.861 126.46C262.354 127.327 261.661 128 260.781 128.48C259.914 128.947 258.954 129.18 257.901 129.18ZM257.901 127.2C258.488 127.2 259.034 127.06 259.541 126.78C260.061 126.5 260.481 126.08 260.801 125.52C261.121 124.96 261.281 124.28 261.281 123.48C261.281 122.68 261.128 122.007 260.821 121.46C260.514 120.9 260.108 120.48 259.601 120.2C259.094 119.92 258.548 119.78 257.961 119.78C257.374 119.78 256.828 119.92 256.321 120.2C255.828 120.48 255.434 120.9 255.141 121.46C254.848 122.007 254.701 122.68 254.701 123.48C254.701 124.667 255.001 125.587 255.601 126.24C256.214 126.88 256.981 127.2 257.901 127.2ZM271.435 117.8C272.302 117.8 273.075 117.98 273.755 118.34C274.448 118.7 274.988 119.233 275.375 119.94C275.762 120.647 275.955 121.5 275.955 122.5V129H273.695V122.84C273.695 121.853 273.448 121.1 272.955 120.58C272.462 120.047 271.788 119.78 270.935 119.78C270.082 119.78 269.402 120.047 268.895 120.58C268.402 121.1 268.155 121.853 268.155 122.84V129H265.875V117.98H268.155V119.24C268.528 118.787 269.002 118.433 269.575 118.18C270.162 117.927 270.782 117.8 271.435 117.8ZM283.303 117.8C284.157 117.8 284.91 117.973 285.563 118.32C286.23 118.653 286.75 119.073 287.123 119.58V117.98H289.423V129.18C289.423 130.193 289.21 131.093 288.783 131.88C288.357 132.68 287.737 133.307 286.923 133.76C286.123 134.213 285.163 134.44 284.043 134.44C282.55 134.44 281.31 134.087 280.323 133.38C279.337 132.687 278.777 131.74 278.643 130.54H280.903C281.077 131.113 281.443 131.573 282.003 131.92C282.577 132.28 283.257 132.46 284.043 132.46C284.963 132.46 285.703 132.18 286.263 131.62C286.837 131.06 287.123 130.247 287.123 129.18V127.34C286.737 127.86 286.21 128.3 285.543 128.66C284.89 129.007 284.143 129.18 283.303 129.18C282.343 129.18 281.463 128.94 280.663 128.46C279.877 127.967 279.25 127.287 278.783 126.42C278.33 125.54 278.103 124.547 278.103 123.44C278.103 122.333 278.33 121.353 278.783 120.5C279.25 119.647 279.877 118.987 280.663 118.52C281.463 118.04 282.343 117.8 283.303 117.8ZM287.123 123.48C287.123 122.72 286.963 122.06 286.643 121.5C286.337 120.94 285.93 120.513 285.423 120.22C284.917 119.927 284.37 119.78 283.783 119.78C283.197 119.78 282.65 119.927 282.143 120.22C281.637 120.5 281.223 120.92 280.903 121.48C280.597 122.027 280.443 122.68 280.443 123.44C280.443 124.2 280.597 124.867 280.903 125.44C281.223 126.013 281.637 126.453 282.143 126.76C282.663 127.053 283.21 127.2 283.783 127.2C284.37 127.2 284.917 127.053 285.423 126.76C285.93 126.467 286.337 126.04 286.643 125.48C286.963 124.907 287.123 124.24 287.123 123.48Z" fill="#FF9900"/>
</svg>
